SplineFontDB: 3.0
FontName: Ume-P-Gothic_Balsa
FullName: Ume P Gothic Balsa
FamilyName: Ume P Gothic Balsa
Weight: Book
Copyright: Author: HORAI Wataru. License: This font is a free software. Unlimited permission is granted to use, copy, and distribute it, with or without modification, either commercially and noncommercially. THIS FONT IS PROVIDED "AS IS" WITHOUT WARRANTY.
Version: Look update time of this file.
ItalicAngle: 0
UnderlinePosition: -72
UnderlineWidth: 48
Ascent: 3520
Descent: 576
LayerCount: 2
Layer: 0 1 "Back"  1
Layer: 1 1 "Fore"  0
NeedsXUIDChange: 1
XUID: [1021 992 1258595862 470570]
FSType: 8
OS2Version: 1
OS2_WeightWidthSlopeOnly: 0
OS2_UseTypoMetrics: 1
CreationTime: -2082844800
ModificationTime: 1308259030
PfmFamily: 17
TTFWeight: 400
TTFWidth: 5
LineGap: 0
VLineGap: 0
Panose: 2 0 6 0 0 0 0 0 0 0
OS2TypoAscent: 0
OS2TypoAOffset: 1
OS2TypoDescent: 0
OS2TypoDOffset: 1
OS2TypoLinegap: 0
OS2WinAscent: -224
OS2WinAOffset: 1
OS2WinDescent: -112
OS2WinDOffset: 1
HheadAscent: -224
HheadAOffset: 1
HheadDescent: 112
HheadDOffset: 1
OS2SubXSize: 2048
OS2SubYSize: 2048
OS2SubXOff: 0
OS2SubYOff: 1472
OS2SupXSize: 2048
OS2SupYSize: 2048
OS2SupXOff: 0
OS2SupYOff: 1760
OS2StrikeYSize: 208
OS2StrikeYPos: 1056
OS2Vendor: 'Take'
OS2CodePages: 4002009f.dfd70000
OS2UnicodeRanges: a00002bf.68c7fcfb.00000010.00000000
Lookup: 1 1 0 "'vert' Vertical Alternates (obs) in Hiragana & Katakana lookup 0"  {"'vert' Vertical Alternates (obs) in Hiragana & Katakana lookup 0 subtable"  } ['vert' ('kana' <'JAN ' 'dflt' > ) ]
MarkAttachClasses: 1
DEI: 91125
TtTable: prep
PUSHW_1
 511
SCANCTRL
PUSHB_1
 1
SCANTYPE
PUSHB_2
 1
 129
RCVT
WCVTP
PUSHB_2
 2
 130
RCVT
WCVTP
PUSHB_2
 3
 131
RCVT
WCVTP
PUSHB_2
 4
 132
RCVT
WCVTP
PUSHB_2
 5
 133
RCVT
WCVTP
PUSHB_2
 6
 134
RCVT
WCVTP
PUSHB_2
 7
 135
RCVT
WCVTP
PUSHB_2
 8
 136
RCVT
WCVTP
PUSHB_2
 9
 137
RCVT
WCVTP
PUSHB_2
 10
 138
RCVT
WCVTP
PUSHB_2
 11
 139
RCVT
WCVTP
PUSHB_2
 12
 140
RCVT
WCVTP
PUSHB_2
 13
 141
RCVT
WCVTP
PUSHB_2
 14
 142

StartChar: .notdef
Encoding: 65536 -1 0
Width: 4096
Flags: W
LayerCount: 2
Fore
SplineSet
400 400 m 1,0,-1
 400 620 l 1,1,-1
 620 620 l 1,2,-1
 620 400 l 1,3,-1
 400 400 l 1,0,-1
EndSplineSet
EndChar

StartChar: exclam
Encoding: 33 33 4
Width: 896
GlyphClass: 2
Flags: W
LayerCount: 2
Fore
SplineSet
640 3104 m 1,0,-1
 560 976 l 1,1,-1
 320 976 l 1,2,-1
 256 3104 l 1,3,-1
 640 3104 l 1,0,-1
592 0 m 1,4,-1
 304 0 l 1,5,-1
 304 528 l 1,6,-1
 592 528 l 1,7,-1
 592 0 l 1,4,-1
EndSplineSet
EndChar

StartChar: quotedbl
Encoding: 34 34 5
Width: 2048
GlyphClass: 2
Flags: W
LayerCount: 2
Fore
SplineSet
736 3104 m 1,0,-1
 736 2512 l 2,1,2
 736 1760 736 1760 272 1728 c 1,3,-1
 272 2016 l 1,4,5
 496 2016 496 2016 496 2528 c 1,6,-1
 272 2528 l 1,7,-1
 272 3104 l 1,8,-1
 736 3104 l 1,0,-1
1488 3104 m 1,9,-1
 1488 2512 l 2,10,11
 1488 1760 1488 1760 1024 1728 c 1,12,-1
 1024 2016 l 1,13,14
 1248 2016 1248 2016 1248 2528 c 1,15,-1
 1024 2528 l 1,16,-1
 1024 3104 l 1,17,-1
 1488 3104 l 1,9,-1
EndSplineSet
EndChar

StartChar: numbersign
Encoding: 35 35 6
Width: 2048
GlyphClass: 2
Flags: W
LayerCount: 2
Fore
SplineSet
2000 2080 m 1,0,-1
 1655 2080 l 1,1,-1
 1502 1152 l 1,2,-1
 1856 1152 l 1,3,-1
 1856 928 l 1,4,-1
 1465 928 l 1,5,-1
 1312 0 l 1,6,-1
 1024 0 l 1,7,-1
 1177 928 l 1,8,-1
 649 928 l 1,9,-1
 496 0 l 1,10,-1
 208 0 l 1,11,-1
 361 928 l 1,12,-1
 48 928 l 1,13,-1
 48 1152 l 1,14,-1
 398 1152 l 1,15,-1
 551 2080 l 1,16,-1
 176 2080 l 1,17,-1
 176 2304 l 1,18,-1
 588 2304 l 1,19,-1
 720 3104 l 1,20,-1
 1008 3104 l 1,21,-1
 876 2304 l 1,22,-1
 1404 2304 l 1,23,-1
 1536 3104 l 1,24,-1
 1824 3104 l 1,25,-1
 1692 2304 l 1,26,-1
 2000 2304 l 1,27,-1
 2000 2080 l 1,0,-1
839 2080 m 1,28,-1
 686 1152 l 1,29,-1
 1214 1152 l 1,30,-1
 1367 2080 l 1,31,-1
 839 2080 l 1,28,-1
EndSplineSet
EndChar

StartChar: dollar
Encoding: 36 36 7
Width: 2048
GlyphClass: 2
Flags: W
LayerCount: 2
Fore
SplineSet
880 3520 m 1,0,-1
 1168 3520 l 1,1,-1
 1168 3097 l 1,2,3
 1340 3079 1340 3079 1488 3016 c 0,4,5
 1696 2928 1696 2928 1872 2752 c 1,6,-1
 1872 2320 l 1,7,8
 1648 2592 1648 2592 1472 2712 c 0,9,10
 1345 2799 1345 2799 1168 2823 c 1,11,-1
 1168 1645 l 1,12,13
 1352 1611 1352 1611 1528 1504 c 0,14,15
 1712 1392 1712 1392 1800 1224 c 128,-1,16
 1888 1056 1888 1056 1888 816 c 0,17,18
 1888 400 1888 400 1688 200 c 0,19,20
 1521 33 1521 33 1168 5 c 1,21,-1
 1168 -576 l 1,22,-1
 880 -576 l 1,23,-1
 880 11 l 1,24,25
 733 32 733 32 568 96 c 0,26,27
 320 192 320 192 160 368 c 1,28,-1
 160 752 l 1,29,30
 400 480 400 480 624 384 c 0,31,32
 761 325 761 325 880 302 c 1,33,-1
 880 1444 l 1,34,35
 743 1476 743 1476 584 1544 c 0,36,37
 416 1616 416 1616 288 1800 c 128,-1,38
 160 1984 160 1984 160 2272 c 0,39,40
 160 2640 160 2640 336 2872 c 0,41,42
 486 3070 486 3070 880 3099 c 1,43,-1
 880 3520 l 1,0,-1
576 2688 m 0,44,45
 464 2544 464 2544 464 2272 c 256,46,47
 464 2000 464 2000 592 1872 c 0,48,49
 709 1755 709 1755 880 1718 c 1,50,-1
 880 2824 l 1,51,52
 662 2799 662 2799 576 2688 c 0,44,45
1456 408 m 0,53,54
 1600 528 1600 528 1600 816 c 0,55,56
 1600 1088 1600 1088 1432 1224 c 0,57,58
 1285 1343 1285 1343 1168 1383 c 1,59,-1
 1168 297 l 1,60,61
 1351 320 1351 320 1456 408 c 0,53,54
EndSplineSet
EndChar

StartChar: percent
Encoding: 37 37 8
Width: 2048
GlyphClass: 2
Flags: W
LayerCount: 2
Fore
SplineSet
1504 1632 m 256,0,1
 1744 1632 1744 1632 1864 1392 c 128,-1,2
 1984 1152 1984 1152 1984 704 c 0,3,4
 1984 192 1984 192 1856 -8 c 128,-1,5
 1728 -208 1728 -208 1504 -208 c 0,6,7
 1248 -208 1248 -208 1144 24 c 128,-1,8
 1040 256 1040 256 1040 704 c 0,9,10
 1040 1184 1040 1184 1152 1408 c 128,-1,11
 1264 1632 1264 1632 1504 1632 c 256,0,1
1504 1360 m 0,12,13
 1344 1360 1344 1360 1344 704 c 0,14,15
 1344 64 1344 64 1504 64 c 0,16,17
 1696 64 1696 64 1696 704 c 0,18,19
 1696 1360 1696 1360 1504 1360 c 0,12,13
512 3200 m 0,20,21
 768 3200 768 3200 872 2944 c 128,-1,22
 976 2688 976 2688 976 2256 c 0,23,24
 976 1744 976 1744 856 1528 c 128,-1,25
 736 1312 736 1312 512 1312 c 0,26,27
 240 1312 240 1312 136 1560 c 128,-1,28
 32 1808 32 1808 32 2256 c 0,29,30
 32 2736 32 2736 152 2968 c 128,-1,31
 272 3200 272 3200 512 3200 c 0,20,21
512 2928 m 1,32,33
 336 2944 336 2944 336 2256 c 256,34,35
 336 1568 336 1568 512 1568 c 256,36,37
 688 1568 688 1568 688 2256 c 0,38,39
 688 2928 688 2928 512 2928 c 1,32,33
1872 3248 m 1,40,-1
 512 -176 l 1,41,-1
 208 -176 l 1,42,-1
 1568 3248 l 1,43,-1
 1872 3248 l 1,40,-1
EndSplineSet
EndChar

StartChar: ampersand
Encoding: 38 38 9
Width: 2432
GlyphClass: 2
Flags: W
LayerCount: 2
Fore
SplineSet
912 0 m 0,0,1
 560 0 560 0 344 192 c 128,-1,2
 128 384 128 384 128 768 c 0,3,4
 128 1008 128 1008 264 1200 c 128,-1,5
 400 1392 400 1392 632 1528 c 0,6,7
 665 1547 665 1547 699 1569 c 1,8,9
 414 2092 414 2092 400 2432 c 1,10,11
 416 2784 416 2784 608 2952 c 128,-1,12
 800 3120 800 3120 1088 3104 c 1,13,14
 1392 3104 1392 3104 1560 2936 c 128,-1,15
 1728 2768 1728 2768 1728 2480 c 256,16,17
 1728 2192 1728 2192 1552 1952 c 128,-1,18
 1376 1712 1376 1712 1176 1568 c 0,19,20
 1115 1524 1115 1524 1046 1475 c 1,21,22
 1232 1175 1232 1175 1598 744 c 1,23,24
 1705 900 1705 900 1760 1080 c 0,25,26
 1856 1392 1856 1392 1888 1808 c 1,27,-1
 2192 1808 l 1,28,29
 2160 1280 2160 1280 2008 896 c 0,30,31
 1924 683 1924 683 1802 509 c 1,32,33
 2014 272 2014 272 2272 0 c 1,34,-1
 1840 0 l 1,35,36
 1718 142 1718 142 1606 277 c 1,37,38
 1595 266 1595 266 1584 256 c 0,39,40
 1312 0 1312 0 912 0 c 0,0,1
1152 1904 m 0,41,42
 1440 2144 1440 2144 1440 2480 c 0,43,44
 1440 2656 1440 2656 1344 2752 c 128,-1,45
 1248 2848 1248 2848 1088 2848 c 0,46,47
 896 2848 896 2848 792 2736 c 128,-1,48
 688 2624 688 2624 688 2432 c 1,49,50
 701 2123 701 2123 911 1714 c 1,51,52
 1026 1799 1026 1799 1152 1904 c 0,41,42
704 1232 m 0,53,54
 432 1040 432 1040 416 768 c 1,55,56
 416 496 416 496 568 392 c 128,-1,57
 720 288 720 288 928 288 c 0,58,59
 1165 288 1165 288 1409 521 c 1,60,61
 1065 958 1065 958 839 1327 c 1,62,63
 774 1281 774 1281 704 1232 c 0,53,54
EndSplineSet
EndChar

StartChar: quotesingle
Encoding: 39 39 10
Width: 832
GlyphClass: 2
Flags: W
LayerCount: 2
Fore
SplineSet
672 3104 m 1,0,-1
 672 2512 l 2,1,2
 672 1760 672 1760 192 1728 c 1,3,-1
 192 2016 l 1,4,5
 416 2016 416 2016 416 2528 c 1,6,-1
 192 2528 l 1,7,-1
 192 3104 l 1,8,-1
 672 3104 l 1,0,-1
EndSplineSet
EndChar

StartChar: parenleft
Encoding: 40 40 11
Width: 1248
GlyphClass: 2
Flags: W
LayerCount: 2
Fore
SplineSet
1088 -384 m 1,0,-1
 880 -512 l 1,1,2
 208 288 208 288 208 1472 c 0,3,4
 208 2624 208 2624 880 3440 c 1,5,-1
 1088 3312 l 1,6,7
 512 2496 512 2496 512 1472 c 0,8,9
 512 400 512 400 1088 -384 c 1,0,-1
EndSplineSet
EndChar

StartChar: parenright
Encoding: 41 41 12
Width: 1248
GlyphClass: 2
Flags: W
LayerCount: 2
Fore
SplineSet
368 3440 m 1,0,1
 1072 2608 1072 2608 1072 1472 c 0,2,3
 1072 288 1072 288 368 -512 c 1,4,-1
 160 -384 l 1,5,6
 752 400 752 400 752 1472 c 0,7,8
 752 2496 752 2496 160 3312 c 1,9,-1
 368 3440 l 1,0,1
EndSplineSet
EndChar

StartChar: asterisk
Encoding: 42 42 13
Width: 2048
GlyphClass: 2
Flags: W
LayerCount: 2
Fore
SplineSet
1904 1024 m 1,0,-1
 1680 688 l 1,1,-1
 1152 1296 l 1,2,-1
 1200 0 l 1,3,-1
 848 0 l 1,4,-1
 896 1296 l 1,5,-1
 384 688 l 1,6,-1
 160 1024 l 1,7,-1
 784 1552 l 1,8,-1
 160 2096 l 1,9,-1
 384 2416 l 1,10,-1
 896 1840 l 1,11,-1
 848 3104 l 1,12,-1
 1200 3104 l 1,13,-1
 1152 1840 l 1,14,-1
 1680 2416 l 1,15,-1
 1888 2096 l 1,16,-1
 1280 1552 l 1,17,-1
 1904 1024 l 1,0,-1
EndSplineSet
EndChar

StartChar: plus
Encoding: 43 43 14
Width: 2048
GlyphClass: 2
Flags: W
LayerCount: 2
Fore
SplineSet
1920 1360 m 1,0,-1
 1168 1360 l 1,1,-1
 1168 0 l 1,2,-1
 880 0 l 1,3,-1
 880 1360 l 1,4,-1
 112 1360 l 1,5,-1
 112 1632 l 1,6,-1
 880 1632 l 1,7,-1
 880 2944 l 1,8,-1
 1168 2944 l 1,9,-1
 1168 1632 l 1,10,-1
 1920 1632 l 1,11,-1
 1920 1360 l 1,0,-1
EndSplineSet
EndChar

StartChar: comma
Encoding: 44 44 15
Width: 832
GlyphClass: 2
Flags: W
LayerCount: 2
Fore
SplineSet
672 800 m 1,0,-1
 672 224 l 2,1,2
 672 -560 672 -560 176 -576 c 1,3,-1
 176 -288 l 1,4,5
 416 -288 416 -288 416 224 c 1,6,-1
 176 224 l 1,7,-1
 176 800 l 1,8,-1
 672 800 l 1,0,-1
EndSplineSet
EndChar

StartChar: hyphen
Encoding: 45 45 16
Width: 2048
GlyphClass: 2
Flags: W
LayerCount: 2
Fore
SplineSet
1728 1088 m 1,0,-1
 304 1088 l 1,1,-1
 304 1312 l 1,2,-1
 1728 1312 l 1,3,-1
 1728 1088 l 1,0,-1
EndSplineSet
EndChar

StartChar: period
Encoding: 46 46 17
Width: 832
GlyphClass: 2
Flags: W
LayerCount: 2
Fore
SplineSet
640 0 m 1,0,-1
 208 0 l 1,1,-1
 208 800 l 1,2,-1
 640 800 l 1,3,-1
 640 0 l 1,0,-1
EndSplineSet
EndChar

StartChar: slash
Encoding: 47 47 18
Width: 2048
GlyphClass: 2
Flags: W
LayerCount: 2
Fore
SplineSet
1824 3232 m 1,0,-1
 496 -384 l 1,1,-1
 224 -272 l 1,2,-1
 1536 3328 l 1,3,-1
 1824 3232 l 1,0,-1
EndSplineSet
EndChar

StartChar: zero
Encoding: 48 48 19
Width: 2048
GlyphClass: 2
Flags: W
LayerCount: 2
Fore
SplineSet
1024 288 m 256,0,1
 1248 288 1248 288 1400 624 c 128,-1,2
 1552 960 1552 960 1536 1568 c 1,3,4
 1536 2144 1536 2144 1392 2488 c 128,-1,5
 1248 2832 1248 2832 1024 2832 c 256,6,7
 800 2832 800 2832 656 2488 c 128,-1,8
 512 2144 512 2144 512 1584 c 0,9,10
 512 944 512 944 656 616 c 128,-1,11
 800 288 800 288 1024 288 c 256,0,1
928 0 m 2,12,13
 656 0 656 0 440 384 c 128,-1,14
 224 768 224 768 224 1568 c 0,15,16
 224 2384 224 2384 448 2744 c 128,-1,17
 672 3104 672 3104 928 3104 c 2,18,-1
 1120 3104 l 2,19,20
 1376 3104 1376 3104 1600 2744 c 128,-1,21
 1824 2384 1824 2384 1824 1568 c 0,22,23
 1824 784 1824 784 1608 392 c 128,-1,24
 1392 0 1392 0 1120 0 c 2,25,-1
 928 0 l 2,12,13
864 1568 m 256,26,27
 864 1776 864 1776 904 1880 c 128,-1,28
 944 1984 944 1984 1024 1984 c 256,29,30
 1104 1984 1104 1984 1144 1880 c 128,-1,31
 1184 1776 1184 1776 1184 1568 c 256,32,33
 1184 1360 1184 1360 1144 1256 c 128,-1,34
 1104 1152 1104 1152 1024 1152 c 256,35,36
 944 1152 944 1152 904 1256 c 128,-1,37
 864 1360 864 1360 864 1568 c 256,26,27
EndSplineSet
EndChar

StartChar: one
Encoding: 49 49 20
Width: 2048
GlyphClass: 2
Flags: W
LayerCount: 2
Fore
SplineSet
1168 3104 m 1,0,-1
 1168 256 l 1,1,-1
 1648 256 l 1,2,-1
 1648 0 l 1,3,-1
 400 0 l 1,4,-1
 400 256 l 1,5,-1
 880 256 l 1,6,-1
 880 2416 l 1,7,-1
 400 2416 l 1,8,-1
 400 2672 l 1,9,-1
 560 2672 l 2,10,11
 816 2672 816 2672 928 3104 c 1,12,-1
 1168 3104 l 1,0,-1
EndSplineSet
EndChar

StartChar: two
Encoding: 50 50 21
Width: 2048
GlyphClass: 2
Flags: W
LayerCount: 2
Fore
SplineSet
1760 0 m 1,0,-1
 288 0 l 1,1,-1
 288 272 l 1,2,3
 400 752 400 752 816 1144 c 128,-1,4
 1232 1536 1232 1536 1352 1800 c 128,-1,5
 1472 2064 1472 2064 1472 2352 c 0,6,7
 1472 2816 1472 2816 1008 2816 c 0,8,9
 784 2816 784 2816 680 2656 c 128,-1,10
 576 2496 576 2496 576 2288 c 1,11,-1
 288 2288 l 1,12,13
 288 2640 288 2640 464 2872 c 128,-1,14
 640 3104 640 3104 896 3104 c 2,15,-1
 1120 3104 l 2,16,17
 1392 3104 1392 3104 1576 2896 c 128,-1,18
 1760 2688 1760 2688 1760 2352 c 0,19,20
 1760 1936 1760 1936 1600 1632 c 128,-1,21
 1440 1328 1440 1328 1048 952 c 128,-1,22
 656 576 656 576 624 272 c 1,23,-1
 1760 272 l 1,24,-1
 1760 0 l 1,0,-1
EndSplineSet
EndChar

StartChar: three
Encoding: 51 51 22
Width: 2048
GlyphClass: 2
Flags: W
LayerCount: 2
Fore
SplineSet
1072 1952 m 1,0,1
 1248 1920 1248 1920 1400 1808 c 128,-1,2
 1552 1696 1552 1696 1656 1496 c 128,-1,3
 1760 1296 1760 1296 1760 992 c 0,4,5
 1760 512 1760 512 1536 256 c 128,-1,6
 1312 0 1312 0 880 0 c 0,7,8
 704 0 704 0 544 48 c 128,-1,9
 384 96 384 96 288 160 c 1,10,-1
 288 464 l 1,11,12
 448 368 448 368 600 320 c 128,-1,13
 752 272 752 272 880 272 c 0,14,15
 1200 272 1200 272 1336 456 c 128,-1,16
 1472 640 1472 640 1472 992 c 0,17,18
 1472 1312 1472 1312 1304 1504 c 128,-1,19
 1136 1696 1136 1696 880 1696 c 0,20,21
 784 1696 784 1696 704 1664 c 1,22,-1
 704 1920 l 1,23,-1
 1408 2848 l 1,24,-1
 288 2848 l 1,25,-1
 288 3104 l 1,26,-1
 1760 3104 l 1,27,-1
 1760 2848 l 1,28,-1
 1072 1952 l 1,0,1
EndSplineSet
EndChar

StartChar: four
Encoding: 52 52 23
Width: 2048
GlyphClass: 2
Flags: W
LayerCount: 2
Fore
SplineSet
1216 944 m 1,0,-1
 1216 2512 l 1,1,-1
 464 944 l 1,2,-1
 1216 944 l 1,0,-1
1904 688 m 1,3,-1
 1488 688 l 1,4,-1
 1488 0 l 1,5,-1
 1216 0 l 1,6,-1
 1216 688 l 1,7,-1
 160 688 l 1,8,-1
 160 928 l 1,9,-1
 1216 3104 l 1,10,-1
 1488 3104 l 1,11,-1
 1488 944 l 1,12,-1
 1904 944 l 1,13,-1
 1904 688 l 1,3,-1
EndSplineSet
EndChar

StartChar: five
Encoding: 53 53 24
Width: 2048
GlyphClass: 2
Flags: W
LayerCount: 2
Fore
SplineSet
576 2080 m 1,0,1
 688 2096 688 2096 768 2096 c 0,2,3
 1232 2096 1232 2096 1496 1832 c 128,-1,4
 1760 1568 1760 1568 1760 1056 c 0,5,6
 1760 608 1760 608 1520 304 c 128,-1,7
 1280 0 1280 0 800 0 c 0,8,9
 496 0 496 0 288 80 c 1,10,-1
 288 368 l 1,11,12
 544 272 544 272 800 272 c 0,13,14
 1120 272 1120 272 1288 504 c 128,-1,15
 1456 736 1456 736 1456 1056 c 0,16,17
 1456 1456 1456 1456 1256 1648 c 128,-1,18
 1056 1840 1056 1840 768 1840 c 0,19,20
 528 1840 528 1840 288 1760 c 1,21,-1
 288 3104 l 1,22,-1
 1760 3104 l 1,23,-1
 1760 2848 l 1,24,-1
 576 2848 l 1,25,-1
 576 2080 l 1,0,1
EndSplineSet
EndChar

StartChar: six
Encoding: 54 54 25
Width: 2048
GlyphClass: 2
Flags: W
LayerCount: 2
Fore
SplineSet
720 1920 m 1,0,1
 848 2016 848 2016 992 2016 c 2,2,-1
 1104 2016 l 2,3,4
 1376 2016 1376 2016 1568 1752 c 128,-1,5
 1760 1488 1760 1488 1760 992 c 0,6,7
 1760 528 1760 528 1568 264 c 128,-1,8
 1376 0 1376 0 1104 0 c 2,9,-1
 960 0 l 2,10,11
 688 0 688 0 488 272 c 128,-1,12
 288 544 288 544 288 992 c 0,13,14
 288 1632 288 1632 496 2128 c 128,-1,15
 704 2624 704 2624 1024 3104 c 1,16,-1
 1376 3104 l 1,17,18
 928 2464 928 2464 720 1920 c 1,0,1
1040 1712 m 256,19,20
 848 1712 848 1712 720 1512 c 128,-1,21
 592 1312 592 1312 592 992 c 256,22,23
 592 672 592 672 704 480 c 128,-1,24
 816 288 816 288 1040 288 c 0,25,26
 1232 288 1232 288 1352 480 c 128,-1,27
 1472 672 1472 672 1472 992 c 256,28,29
 1472 1312 1472 1312 1352 1512 c 128,-1,30
 1232 1712 1232 1712 1040 1712 c 256,19,20
EndSplineSet
EndChar

StartChar: seven
Encoding: 55 55 26
Width: 2048
GlyphClass: 2
Flags: W
LayerCount: 2
Fore
SplineSet
1760 2848 m 1,0,1
 1232 1376 1232 1376 928 0 c 1,2,-1
 624 0 l 1,3,4
 928 1424 928 1424 1456 2848 c 1,5,-1
 288 2848 l 1,6,-1
 288 3104 l 1,7,-1
 1760 3104 l 1,8,-1
 1760 2848 l 1,0,1
EndSplineSet
EndChar

StartChar: eight
Encoding: 56 56 27
Width: 2048
GlyphClass: 2
Flags: W
LayerCount: 2
Fore
SplineSet
1360 1568 m 1,0,1
 1760 1248 1760 1248 1760 816 c 0,2,3
 1760 464 1760 464 1560 232 c 128,-1,4
 1360 0 1360 0 1120 0 c 2,5,-1
 928 0 l 2,6,7
 704 0 704 0 496 216 c 128,-1,8
 288 432 288 432 288 800 c 0,9,10
 288 1264 288 1264 688 1568 c 1,11,12
 320 1856 320 1856 320 2320 c 0,13,14
 320 2672 320 2672 504 2888 c 128,-1,15
 688 3104 688 3104 944 3104 c 2,16,-1
 1120 3104 l 2,17,18
 1360 3104 1360 3104 1536 2888 c 128,-1,19
 1712 2672 1712 2672 1712 2320 c 0,20,21
 1712 1840 1712 1840 1360 1568 c 1,0,1
1024 1696 m 1,22,23
 1408 1904 1408 1904 1408 2320 c 0,24,25
 1408 2576 1408 2576 1304 2704 c 128,-1,26
 1200 2832 1200 2832 1024 2832 c 256,27,28
 848 2832 848 2832 736 2696 c 128,-1,29
 624 2560 624 2560 624 2320 c 1,30,31
 640 1888 640 1888 1024 1696 c 1,22,23
1024 1440 m 1,32,33
 608 1200 608 1200 592 800 c 1,34,35
 608 592 608 592 720 448 c 128,-1,36
 832 304 832 304 1024 304 c 0,37,38
 1232 304 1232 304 1344 440 c 128,-1,39
 1456 576 1456 576 1456 816 c 1,40,41
 1440 1200 1440 1200 1024 1440 c 1,32,33
EndSplineSet
EndChar

StartChar: nine
Encoding: 57 57 28
Width: 2048
GlyphClass: 2
Flags: W
LayerCount: 2
Fore
SplineSet
1344 1184 m 1,0,1
 1200 1088 1200 1088 1072 1088 c 2,2,-1
 944 1088 l 2,3,4
 672 1088 672 1088 480 1352 c 128,-1,5
 288 1616 288 1616 288 2112 c 0,6,7
 288 2592 288 2592 480 2848 c 128,-1,8
 672 3104 672 3104 944 3104 c 2,9,-1
 1088 3104 l 2,10,11
 1376 3104 1376 3104 1568 2832 c 128,-1,12
 1760 2560 1760 2560 1760 2112 c 0,13,14
 1760 1472 1760 1472 1560 976 c 128,-1,15
 1360 480 1360 480 1024 0 c 1,16,-1
 672 0 l 1,17,18
 1136 640 1136 640 1344 1184 c 1,0,1
1008 1392 m 256,19,20
 1200 1392 1200 1392 1328 1592 c 128,-1,21
 1456 1792 1456 1792 1456 2112 c 256,22,23
 1456 2432 1456 2432 1344 2624 c 128,-1,24
 1232 2816 1232 2816 1008 2816 c 0,25,26
 816 2816 816 2816 696 2624 c 128,-1,27
 576 2432 576 2432 576 2112 c 256,28,29
 576 1792 576 1792 696 1592 c 128,-1,30
 816 1392 816 1392 1008 1392 c 256,19,20
EndSplineSet
EndChar

StartChar: colon
Encoding: 58 58 29
Width: 832
GlyphClass: 2
Flags: W
LayerCount: 2
Fore
SplineSet
640 1808 m 1,0,-1
 192 1808 l 1,1,-1
 192 2480 l 1,2,-1
 640 2480 l 1,3,-1
 640 1808 l 1,0,-1
640 352 m 1,4,-1
 192 352 l 1,5,-1
 192 1040 l 1,6,-1
 640 1040 l 1,7,-1
 640 352 l 1,4,-1
EndSplineSet
EndChar

StartChar: semicolon
Encoding: 59 59 30
Width: 832
GlyphClass: 2
Flags: W
LayerCount: 2
Fore
SplineSet
640 832 m 1,0,-1
 640 176 l 2,1,2
 640 -560 640 -560 192 -576 c 1,3,-1
 192 -288 l 1,4,5
 416 -288 416 -288 416 176 c 1,6,-1
 192 176 l 1,7,-1
 192 832 l 1,8,-1
 640 832 l 1,0,-1
640 1808 m 1,9,-1
 192 1808 l 1,10,-1
 192 2480 l 1,11,-1
 640 2480 l 1,12,-1
 640 1808 l 1,9,-1
EndSplineSet
EndChar

StartChar: less
Encoding: 60 60 31
Width: 2048
GlyphClass: 2
Flags: W
LayerCount: 2
Fore
SplineSet
1856 576 m 1,0,-1
 1648 320 l 1,1,-1
 192 1376 l 1,2,-1
 192 1616 l 1,3,-1
 1648 2640 l 1,4,-1
 1856 2400 l 1,5,-1
 544 1504 l 1,6,-1
 1856 576 l 1,0,-1
EndSplineSet
EndChar

StartChar: equal
Encoding: 61 61 32
Width: 2048
GlyphClass: 2
Flags: W
LayerCount: 2
Fore
SplineSet
1904 1536 m 1,0,-1
 144 1536 l 1,1,-1
 144 1760 l 1,2,-1
 1904 1760 l 1,3,-1
 1904 1536 l 1,0,-1
1904 768 m 1,4,-1
 144 768 l 1,5,-1
 144 992 l 1,6,-1
 1904 992 l 1,7,-1
 1904 768 l 1,4,-1
EndSplineSet
EndChar

StartChar: greater
Encoding: 62 62 33
Width: 2048
GlyphClass: 2
Flags: W
LayerCount: 2
Fore
SplineSet
176 2384 m 1,0,-1
 384 2640 l 1,1,-1
 1840 1584 l 1,2,-1
 1840 1344 l 1,3,-1
 384 320 l 1,4,-1
 176 560 l 1,5,-1
 1488 1456 l 1,6,-1
 176 2384 l 1,0,-1
EndSplineSet
EndChar

StartChar: question
Encoding: 63 63 34
Width: 1856
GlyphClass: 2
Flags: W
LayerCount: 2
Fore
SplineSet
208 2928 m 1,0,1
 416 3040 416 3040 560 3072 c 128,-1,2
 704 3104 704 3104 928 3104 c 0,3,4
 1648 3104 1648 3104 1648 2336 c 0,5,6
 1648 1840 1648 1840 1280 1536 c 1,7,8
 1024 1264 1024 1264 1040 1072 c 1,9,-1
 1040 976 l 1,10,-1
 752 976 l 1,11,-1
 752 1072 l 1,12,13
 736 1392 736 1392 1024 1696 c 1,14,15
 1328 1984 1328 1984 1328 2336 c 0,16,17
 1328 2816 1328 2816 928 2816 c 0,18,19
 736 2816 736 2816 592 2784 c 128,-1,20
 448 2752 448 2752 208 2608 c 1,21,-1
 208 2928 l 1,0,1
1088 0 m 1,22,-1
 720 0 l 1,23,-1
 720 528 l 1,24,-1
 1088 528 l 1,25,-1
 1088 0 l 1,22,-1
EndSplineSet
EndChar

StartChar: at
Encoding: 64 64 35
Width: 2736
GlyphClass: 2
Flags: W
LayerCount: 2
Fore
SplineSet
2336 96 m 1,0,1
 1920 0 1920 0 1408 0 c 0,2,3
 768 0 768 0 432 360 c 128,-1,4
 96 720 96 720 96 1488 c 0,5,6
 96 2224 96 2224 440 2664 c 128,-1,7
 784 3104 784 3104 1424 3104 c 0,8,9
 1936 3104 1936 3104 2280 2752 c 128,-1,10
 2624 2400 2624 2400 2624 1728 c 0,11,12
 2624 896 2624 896 2256 576 c 1,13,-1
 1616 576 l 1,14,-1
 1616 720 l 1,15,16
 1456 592 1456 592 1280 592 c 0,17,18
 992 592 992 592 832 840 c 128,-1,19
 672 1088 672 1088 672 1552 c 0,20,21
 672 2000 672 2000 832 2280 c 128,-1,22
 992 2560 992 2560 1280 2560 c 0,23,24
 1472 2560 1472 2560 1616 2416 c 1,25,-1
 1616 2560 l 1,26,-1
 1904 2560 l 1,27,-1
 1904 832 l 1,28,-1
 2144 832 l 1,29,30
 2336 1184 2336 1184 2336 1728 c 0,31,32
 2336 2288 2336 2288 2080 2560 c 128,-1,33
 1824 2832 1824 2832 1424 2832 c 0,34,35
 912 2832 912 2832 648 2464 c 128,-1,36
 384 2096 384 2096 384 1488 c 0,37,38
 384 848 384 848 624 568 c 128,-1,39
 864 288 864 288 1408 272 c 1,40,41
 1888 272 1888 272 2336 384 c 1,42,-1
 2336 96 l 1,0,1
1280 2272 m 0,43,44
 1136 2272 1136 2272 1064 2096 c 128,-1,45
 992 1920 992 1920 976 1552 c 1,46,47
 976 1200 976 1200 1048 1032 c 128,-1,48
 1120 864 1120 864 1280 864 c 0,49,50
 1456 864 1456 864 1600 1024 c 1,51,-1
 1600 2128 l 1,52,53
 1456 2272 1456 2272 1280 2272 c 0,43,44
EndSplineSet
EndChar

StartChar: A
Encoding: 65 65 36
Width: 2592
GlyphClass: 2
Flags: W
LayerCount: 2
Fore
SplineSet
160 0 m 1,0,-1
 1120 3104 l 1,1,-1
 1488 3104 l 1,2,-1
 2432 0 l 1,3,-1
 2096 0 l 1,4,-1
 1788 1072 l 1,5,-1
 794 1072 l 1,6,-1
 480 0 l 1,7,-1
 160 0 l 1,0,-1
1296 2784 m 1,8,-1
 874 1344 l 1,9,-1
 1710 1344 l 1,10,-1
 1296 2784 l 1,8,-1
EndSplineSet
EndChar

StartChar: B
Encoding: 66 66 37
Width: 2608
GlyphClass: 2
Flags: W
LayerCount: 2
Fore
SplineSet
608 288 m 1,0,-1
 1632 288 l 2,1,2
 1840 288 1840 288 1992 416 c 128,-1,3
 2144 544 2144 544 2144 816 c 0,4,5
 2144 1184 2144 1184 1944 1360 c 128,-1,6
 1744 1536 1744 1536 1520 1536 c 2,7,-1
 608 1536 l 1,8,-1
 608 288 l 1,0,-1
1920 1696 m 1,9,10
 2432 1392 2432 1392 2432 816 c 0,11,12
 2432 416 2432 416 2208 208 c 128,-1,13
 1984 0 1984 0 1632 0 c 2,14,-1
 320 0 l 1,15,-1
 320 3104 l 1,16,-1
 1520 3104 l 2,17,18
 1824 3104 1824 3104 2056 2904 c 128,-1,19
 2288 2704 2288 2704 2288 2352 c 0,20,21
 2288 1920 2288 1920 1920 1696 c 1,9,10
608 1808 m 1,22,-1
 1520 1808 l 2,23,24
 1712 1808 1712 1808 1848 1944 c 128,-1,25
 1984 2080 1984 2080 1984 2352 c 0,26,27
 1984 2592 1984 2592 1848 2712 c 128,-1,28
 1712 2832 1712 2832 1520 2832 c 2,29,-1
 608 2832 l 1,30,-1
 608 1808 l 1,22,-1
EndSplineSet
EndChar

StartChar: C
Encoding: 67 67 38
Width: 2720
GlyphClass: 2
Flags: W
LayerCount: 2
Fore
SplineSet
2496 1152 m 1,0,1
 2496 672 2496 672 2200 336 c 128,-1,2
 1904 0 1904 0 1392 0 c 0,3,4
 832 0 832 0 536 424 c 128,-1,5
 240 848 240 848 240 1600 c 0,6,7
 240 2288 240 2288 544 2696 c 128,-1,8
 848 3104 848 3104 1296 3104 c 2,9,-1
 1504 3104 l 2,10,11
 1856 3104 1856 3104 2176 2832 c 128,-1,12
 2496 2560 2496 2560 2496 2080 c 1,13,-1
 2208 2080 l 1,14,15
 2160 2480 2160 2480 1928 2656 c 128,-1,16
 1696 2832 1696 2832 1392 2832 c 0,17,18
 976 2832 976 2832 752 2488 c 128,-1,19
 528 2144 528 2144 528 1600 c 0,20,21
 528 992 528 992 760 640 c 128,-1,22
 992 288 992 288 1392 288 c 0,23,24
 1712 288 1712 288 1936 504 c 128,-1,25
 2160 720 2160 720 2208 1152 c 1,26,-1
 2496 1152 l 1,0,1
EndSplineSet
EndChar

StartChar: D
Encoding: 68 68 39
Width: 2656
GlyphClass: 2
Flags: W
LayerCount: 2
Fore
SplineSet
320 3104 m 1,0,-1
 1024 3104 l 2,1,2
 1680 3104 1680 3104 2040 2688 c 128,-1,3
 2400 2272 2400 2272 2416 1568 c 1,4,5
 2416 848 2416 848 2048 424 c 128,-1,6
 1680 0 1680 0 1024 0 c 2,7,-1
 320 0 l 1,8,-1
 320 3104 l 1,0,-1
624 288 m 1,9,-1
 1024 288 l 2,10,11
 1552 288 1552 288 1840 640 c 128,-1,12
 2128 992 2128 992 2128 1568 c 0,13,14
 2128 2160 2128 2160 1840 2496 c 128,-1,15
 1552 2832 1552 2832 1024 2832 c 2,16,-1
 624 2832 l 1,17,-1
 624 288 l 1,9,-1
EndSplineSet
EndChar

StartChar: E
Encoding: 69 69 40
Width: 2320
GlyphClass: 2
Flags: W
LayerCount: 2
Fore
SplineSet
2000 0 m 1,0,-1
 320 0 l 1,1,-1
 320 3104 l 1,2,-1
 2000 3104 l 1,3,-1
 2000 2816 l 1,4,-1
 608 2816 l 1,5,-1
 608 1808 l 1,6,-1
 1840 1808 l 1,7,-1
 1840 1536 l 1,8,-1
 608 1536 l 1,9,-1
 608 304 l 1,10,-1
 2000 304 l 1,11,-1
 2000 0 l 1,0,-1
EndSplineSet
EndChar

StartChar: F
Encoding: 70 70 41
Width: 2256
GlyphClass: 2
Flags: W
LayerCount: 2
Fore
SplineSet
2000 2816 m 1,0,-1
 608 2816 l 1,1,-1
 608 1808 l 1,2,-1
 1696 1808 l 1,3,-1
 1696 1536 l 1,4,-1
 608 1536 l 1,5,-1
 608 0 l 1,6,-1
 320 0 l 1,7,-1
 320 3104 l 1,8,-1
 2000 3104 l 1,9,-1
 2000 2816 l 1,0,-1
EndSplineSet
EndChar

StartChar: G
Encoding: 71 71 42
Width: 2784
GlyphClass: 2
Flags: W
LayerCount: 2
Fore
SplineSet
2464 0 m 1,0,-1
 2176 0 l 1,1,-1
 2176 192 l 1,2,3
 1824 0 1824 0 1424 0 c 0,4,5
 896 0 896 0 568 376 c 128,-1,6
 240 752 240 752 240 1520 c 0,7,8
 240 2272 240 2272 576 2688 c 128,-1,9
 912 3104 912 3104 1328 3104 c 2,10,-1
 1520 3104 l 2,11,12
 1872 3104 1872 3104 2168 2864 c 128,-1,13
 2464 2624 2464 2624 2464 2256 c 1,14,-1
 2160 2256 l 1,15,16
 2096 2544 2096 2544 1896 2688 c 128,-1,17
 1696 2832 1696 2832 1408 2832 c 0,18,19
 1024 2832 1024 2832 776 2448 c 128,-1,20
 528 2064 528 2064 544 1520 c 1,21,22
 544 880 544 880 776 600 c 128,-1,23
 1008 320 1008 320 1424 304 c 1,24,25
 1808 304 1808 304 2176 512 c 1,26,-1
 2176 1392 l 1,27,-1
 1568 1392 l 1,28,-1
 1568 1664 l 1,29,-1
 2464 1664 l 1,30,-1
 2464 0 l 1,0,-1
EndSplineSet
EndChar

StartChar: H
Encoding: 72 72 43
Width: 2624
GlyphClass: 2
Flags: W
LayerCount: 2
Fore
SplineSet
2304 0 m 1,0,-1
 2000 0 l 1,1,-1
 2000 1536 l 1,2,-1
 608 1536 l 1,3,-1
 608 0 l 1,4,-1
 320 0 l 1,5,-1
 320 3104 l 1,6,-1
 608 3104 l 1,7,-1
 608 1808 l 1,8,-1
 2000 1808 l 1,9,-1
 2000 3104 l 1,10,-1
 2304 3104 l 1,11,-1
 2304 0 l 1,0,-1
EndSplineSet
EndChar

StartChar: I
Encoding: 73 73 44
Width: 1008
GlyphClass: 2
Flags: W
LayerCount: 2
Fore
SplineSet
912 0 m 1,0,-1
 80 0 l 1,1,-1
 80 272 l 1,2,-1
 352 272 l 1,3,-1
 352 2848 l 1,4,-1
 80 2848 l 1,5,-1
 80 3104 l 1,6,-1
 912 3104 l 1,7,-1
 912 2848 l 1,8,-1
 640 2848 l 1,9,-1
 640 272 l 1,10,-1
 912 272 l 1,11,-1
 912 0 l 1,0,-1
EndSplineSet
EndChar

StartChar: J
Encoding: 74 74 45
Width: 2224
GlyphClass: 2
Flags: W
LayerCount: 2
Fore
SplineSet
1904 3104 m 1,0,-1
 1904 1024 l 2,1,2
 1904 0 1904 0 800 0 c 0,3,4
 512 0 512 0 240 96 c 1,5,-1
 240 416 l 1,6,7
 528 304 528 304 800 304 c 0,8,9
 1584 304 1584 304 1600 1024 c 1,10,-1
 1600 3104 l 1,11,-1
 1904 3104 l 1,0,-1
EndSplineSet
EndChar

StartChar: K
Encoding: 75 75 46
Width: 2448
GlyphClass: 2
Flags: W
LayerCount: 2
Fore
SplineSet
608 0 m 1,0,-1
 320 0 l 1,1,-1
 320 3104 l 1,2,-1
 608 3104 l 1,3,-1
 608 1801 l 1,4,-1
 1872 3104 l 1,5,-1
 2272 3104 l 1,6,-1
 1129 1942 l 1,7,-1
 2272 0 l 1,8,-1
 1888 0 l 1,9,-1
 928 1737 l 1,10,-1
 608 1412 l 1,11,-1
 608 0 l 1,0,-1
EndSplineSet
EndChar

StartChar: L
Encoding: 76 76 47
Width: 2208
GlyphClass: 2
Flags: W
LayerCount: 2
Fore
SplineSet
1888 0 m 1,0,-1
 320 0 l 1,1,-1
 320 3104 l 1,2,-1
 608 3104 l 1,3,-1
 608 272 l 1,4,-1
 1888 272 l 1,5,-1
 1888 0 l 1,0,-1
EndSplineSet
EndChar

StartChar: M
Encoding: 77 77 48
Width: 3040
GlyphClass: 2
Flags: W
LayerCount: 2
Fore
SplineSet
2704 0 m 1,0,-1
 2416 0 l 1,1,-1
 2416 2720 l 1,2,-1
 1664 848 l 1,3,-1
 1312 848 l 1,4,-1
 624 2720 l 1,5,-1
 624 0 l 1,6,-1
 320 0 l 1,7,-1
 320 3104 l 1,8,-1
 800 3104 l 1,9,-1
 1488 1200 l 1,10,-1
 2240 3104 l 1,11,-1
 2704 3104 l 1,12,-1
 2704 0 l 1,0,-1
EndSplineSet
EndChar

StartChar: N
Encoding: 78 78 49
Width: 2624
GlyphClass: 2
Flags: W
LayerCount: 2
Fore
SplineSet
2288 0 m 1,0,-1
 1840 0 l 1,1,-1
 608 2688 l 1,2,-1
 608 0 l 1,3,-1
 320 0 l 1,4,-1
 320 3104 l 1,5,-1
 720 3104 l 1,6,-1
 2000 368 l 1,7,-1
 2000 3104 l 1,8,-1
 2288 3104 l 1,9,-1
 2288 0 l 1,0,-1
EndSplineSet
EndChar

StartChar: O
Encoding: 79 79 50
Width: 2896
GlyphClass: 2
Flags: W
LayerCount: 2
Fore
SplineSet
1568 3104 m 2,0,1
 1968 3104 1968 3104 2304 2688 c 128,-1,2
 2640 2272 2640 2272 2640 1536 c 256,3,4
 2640 800 2640 800 2312 400 c 128,-1,5
 1984 0 1984 0 1440 0 c 0,6,7
 880 0 880 0 560 432 c 128,-1,8
 240 864 240 864 240 1536 c 0,9,10
 240 2256 240 2256 576 2680 c 128,-1,11
 912 3104 912 3104 1344 3104 c 2,12,-1
 1568 3104 l 2,0,1
1456 2832 m 256,13,14
 1072 2832 1072 2832 808 2496 c 128,-1,15
 544 2160 544 2160 544 1536 c 256,16,17
 544 912 544 912 792 608 c 128,-1,18
 1040 304 1040 304 1456 288 c 1,19,20
 1840 288 1840 288 2088 584 c 128,-1,21
 2336 880 2336 880 2336 1536 c 0,22,23
 2336 2160 2336 2160 2088 2496 c 128,-1,24
 1840 2832 1840 2832 1456 2832 c 256,13,14
EndSplineSet
EndChar

StartChar: P
Encoding: 80 80 51
Width: 2528
GlyphClass: 2
Flags: W
LayerCount: 2
Fore
SplineSet
320 3104 m 1,0,-1
 1264 3104 l 2,1,2
 1760 3104 1760 3104 2024 2912 c 128,-1,3
 2288 2720 2288 2720 2288 2336 c 256,4,5
 2288 1952 2288 1952 2024 1744 c 128,-1,6
 1760 1536 1760 1536 1264 1536 c 2,7,-1
 624 1536 l 1,8,-1
 624 0 l 1,9,-1
 320 0 l 1,10,-1
 320 3104 l 1,0,-1
624 1808 m 1,11,-1
 1264 1808 l 2,12,13
 1648 1808 1648 1808 1824 1944 c 128,-1,14
 2000 2080 2000 2080 2000 2336 c 256,15,16
 2000 2592 2000 2592 1824 2712 c 128,-1,17
 1648 2832 1648 2832 1264 2832 c 2,18,-1
 624 2832 l 1,19,-1
 624 1808 l 1,11,-1
EndSplineSet
EndChar

StartChar: Q
Encoding: 81 81 52
Width: 2896
GlyphClass: 2
Flags: W
LayerCount: 2
Fore
SplineSet
1696 1024 m 1,0,1
 1696 624 1696 624 1720 384 c 0,2,3
 1723 357 1723 357 1727 330 c 1,4,5
 1934 400 1934 400 2088 584 c 0,6,7
 2336 880 2336 880 2352 1536 c 1,8,9
 2352 2160 2352 2160 2096 2496 c 128,-1,10
 1840 2832 1840 2832 1456 2832 c 256,11,12
 1072 2832 1072 2832 808 2496 c 128,-1,13
 544 2160 544 2160 544 1536 c 1,14,15
 528 912 528 912 784 608 c 0,16,17
 1039 305 1039 305 1452 288 c 1,18,19
 1392 629 1392 629 1392 1024 c 1,20,-1
 1696 1024 l 1,0,1
1568 3104 m 2,21,22
 1968 3104 1968 3104 2304 2688 c 128,-1,23
 2640 2272 2640 2272 2640 1536 c 256,24,25
 2640 800 2640 800 2312 400 c 0,26,27
 2106 149 2106 149 1815 55 c 1,28,29
 1846 -9 1846 -9 1888 -72 c 0,30,31
 2032 -288 2032 -288 2336 -288 c 0,32,33
 2528 -288 2528 -288 2608 -272 c 128,-1,34
 2688 -256 2688 -256 2896 -192 c 1,35,-1
 2896 -496 l 1,36,37
 2720 -560 2720 -560 2616 -568 c 128,-1,38
 2512 -576 2512 -576 2336 -576 c 0,39,40
 1968 -576 1968 -576 1752 -360 c 0,41,42
 1606 -214 1606 -214 1525 3 c 1,43,44
 1483 0 1483 0 1440 0 c 0,45,46
 880 0 880 0 560 432 c 128,-1,47
 240 864 240 864 240 1536 c 0,48,49
 240 2256 240 2256 576 2680 c 128,-1,50
 912 3104 912 3104 1344 3104 c 2,51,-1
 1568 3104 l 2,21,22
EndSplineSet
EndChar

StartChar: R
Encoding: 82 82 53
Width: 2560
GlyphClass: 2
Flags: W
LayerCount: 2
Fore
SplineSet
2368 0 m 1,0,-1
 2000 0 l 1,1,-1
 1163 1536 l 1,2,-1
 624 1536 l 1,3,-1
 624 0 l 1,4,-1
 320 0 l 1,5,-1
 320 3104 l 1,6,-1
 1264 3104 l 2,7,8
 1760 3104 1760 3104 2024 2912 c 128,-1,9
 2288 2720 2288 2720 2288 2336 c 256,10,11
 2288 1952 2288 1952 2024 1744 c 0,12,13
 1818 1582 1818 1582 1471 1546 c 1,14,-1
 2368 0 l 1,0,-1
624 1808 m 1,15,-1
 1264 1808 l 2,16,17
 1648 1808 1648 1808 1824 1944 c 128,-1,18
 2000 2080 2000 2080 2000 2336 c 256,19,20
 2000 2592 2000 2592 1824 2712 c 128,-1,21
 1648 2832 1648 2832 1264 2832 c 2,22,-1
 624 2832 l 1,23,-1
 624 1808 l 1,15,-1
EndSplineSet
EndChar

StartChar: S
Encoding: 83 83 54
Width: 2464
GlyphClass: 2
Flags: W
LayerCount: 2
Fore
SplineSet
1872 2192 m 1,0,1
 1824 2544 1824 2544 1624 2688 c 128,-1,2
 1424 2832 1424 2832 1184 2832 c 0,3,4
 928 2832 928 2832 736 2696 c 128,-1,5
 544 2560 544 2560 544 2272 c 0,6,7
 544 2000 544 2000 768 1880 c 128,-1,8
 992 1760 992 1760 1120 1728 c 1,9,-1
 1360 1648 l 1,10,11
 1504 1616 1504 1616 1736 1504 c 128,-1,12
 1968 1392 1968 1392 2088 1224 c 128,-1,13
 2208 1056 2208 1056 2208 768 c 0,14,15
 2208 368 2208 368 1928 184 c 128,-1,16
 1648 0 1648 0 1232 0 c 0,17,18
 784 0 784 0 520 264 c 128,-1,19
 256 528 256 528 240 880 c 1,20,-1
 544 880 l 1,21,22
 592 640 592 640 768 464 c 128,-1,23
 944 288 944 288 1232 288 c 0,24,25
 1504 288 1504 288 1712 408 c 128,-1,26
 1920 528 1920 528 1920 768 c 0,27,28
 1920 1088 1920 1088 1672 1224 c 128,-1,29
 1424 1360 1424 1360 1296 1392 c 1,30,-1
 1072 1456 l 1,31,32
 896 1520 896 1520 712 1592 c 128,-1,33
 528 1664 528 1664 384 1824 c 128,-1,34
 240 1984 240 1984 240 2272 c 0,35,36
 240 2672 240 2672 520 2888 c 128,-1,37
 800 3104 800 3104 1056 3104 c 2,38,-1
 1296 3104 l 2,39,40
 1648 3104 1648 3104 1912 2848 c 128,-1,41
 2176 2592 2176 2592 2192 2192 c 1,42,-1
 1872 2192 l 1,0,1
EndSplineSet
EndChar

StartChar: T
Encoding: 84 84 55
Width: 2416
GlyphClass: 2
Flags: W
LayerCount: 2
Fore
SplineSet
2240 2832 m 1,0,-1
 1344 2832 l 1,1,-1
 1344 0 l 1,2,-1
 1056 0 l 1,3,-1
 1056 2832 l 1,4,-1
 160 2832 l 1,5,-1
 160 3104 l 1,6,-1
 2240 3104 l 1,7,-1
 2240 2832 l 1,0,-1
EndSplineSet
EndChar

StartChar: U
Encoding: 85 85 56
Width: 2624
GlyphClass: 2
Flags: W
LayerCount: 2
Fore
SplineSet
2304 3104 m 1,0,-1
 2304 976 l 2,1,2
 2304 512 2304 512 2048 256 c 128,-1,3
 1792 0 1792 0 1328 0 c 0,4,5
 816 0 816 0 568 264 c 128,-1,6
 320 528 320 528 320 992 c 2,7,-1
 320 3104 l 1,8,-1
 608 3104 l 1,9,-1
 608 992 l 2,10,11
 608 656 608 656 784 472 c 128,-1,12
 960 288 960 288 1328 288 c 0,13,14
 1680 288 1680 288 1848 472 c 128,-1,15
 2016 656 2016 656 2016 976 c 2,16,-1
 2016 3104 l 1,17,-1
 2304 3104 l 1,0,-1
EndSplineSet
EndChar

StartChar: V
Encoding: 86 86 57
Width: 2592
GlyphClass: 2
Flags: W
LayerCount: 2
Fore
SplineSet
2448 3104 m 1,0,-1
 1520 0 l 1,1,-1
 1088 0 l 1,2,-1
 160 3104 l 1,3,-1
 480 3104 l 1,4,-1
 1296 288 l 1,5,-1
 2128 3104 l 1,6,-1
 2448 3104 l 1,0,-1
EndSplineSet
EndChar

StartChar: W
Encoding: 87 87 58
Width: 3040
GlyphClass: 2
Flags: W
LayerCount: 2
Fore
SplineSet
2880 3104 m 1,0,-1
 2400 0 l 1,1,-1
 1936 0 l 1,2,-1
 1536 2688 l 1,3,-1
 1088 0 l 1,4,-1
 592 0 l 1,5,-1
 160 3104 l 1,6,-1
 496 3104 l 1,7,-1
 848 352 l 1,8,-1
 1312 3104 l 1,9,-1
 1744 3104 l 1,10,-1
 2160 336 l 1,11,-1
 2544 3104 l 1,12,-1
 2880 3104 l 1,0,-1
EndSplineSet
EndChar

StartChar: X
Encoding: 88 88 59
Width: 2464
GlyphClass: 2
Flags: W
LayerCount: 2
Fore
SplineSet
528 0 m 1,0,-1
 160 0 l 1,1,-1
 1052 1559 l 1,2,-1
 176 3104 l 1,3,-1
 528 3104 l 1,4,-1
 1232 1874 l 1,5,-1
 1936 3104 l 1,6,-1
 2288 3104 l 1,7,-1
 1412 1559 l 1,8,-1
 2304 0 l 1,9,-1
 1936 0 l 1,10,-1
 1232 1242 l 1,11,-1
 528 0 l 1,0,-1
EndSplineSet
EndChar

StartChar: Y
Encoding: 89 89 60
Width: 2416
GlyphClass: 2
Flags: W
LayerCount: 2
Fore
SplineSet
2256 3104 m 1,0,-1
 1360 1280 l 1,1,-1
 1360 0 l 1,2,-1
 1056 0 l 1,3,-1
 1056 1280 l 1,4,-1
 160 3104 l 1,5,-1
 528 3104 l 1,6,-1
 1200 1632 l 1,7,-1
 1904 3104 l 1,8,-1
 2256 3104 l 1,0,-1
EndSplineSet
EndChar

StartChar: Z
Encoding: 90 90 61
Width: 2320
GlyphClass: 2
Flags: W
LayerCount: 2
Fore
SplineSet
2000 0 m 1,0,-1
 320 0 l 1,1,-1
 320 288 l 1,2,-1
 1680 2832 l 1,3,-1
 320 2832 l 1,4,-1
 320 3104 l 1,5,-1
 2000 3104 l 1,6,-1
 2000 2832 l 1,7,-1
 640 288 l 1,8,-1
 2000 288 l 1,9,-1
 2000 0 l 1,0,-1
EndSplineSet
EndChar

StartChar: bracketleft
Encoding: 91 91 62
Width: 1376
GlyphClass: 2
Flags: W
LayerCount: 2
Fore
SplineSet
1152 -384 m 1,0,-1
 208 -384 l 1,1,-1
 208 3328 l 1,2,-1
 1184 3328 l 1,3,-1
 1184 3072 l 1,4,-1
 480 3072 l 1,5,-1
 480 -128 l 1,6,-1
 1152 -128 l 1,7,-1
 1152 -384 l 1,0,-1
EndSplineSet
EndChar

StartChar: backslash
Encoding: 92 92 63
Width: 2064
GlyphClass: 2
Flags: W
LayerCount: 2
Fore
SplineSet
1840 -272 m 1,0,-1
 1568 -400 l 1,1,-1
 208 3216 l 1,2,-1
 496 3344 l 1,3,-1
 1840 -272 l 1,0,-1
EndSplineSet
EndChar

StartChar: bracketright
Encoding: 93 93 64
Width: 1376
GlyphClass: 2
Flags: W
LayerCount: 2
Fore
SplineSet
1088 -384 m 1,0,-1
 240 -384 l 1,1,-1
 240 -112 l 1,2,-1
 800 -112 l 1,3,-1
 800 3088 l 1,4,-1
 240 3088 l 1,5,-1
 240 3328 l 1,6,-1
 1088 3328 l 1,7,-1
 1088 -384 l 1,0,-1
EndSplineSet
EndChar

StartChar: asciicircum
Encoding: 94 94 65
Width: 1696
GlyphClass: 2
Flags: W
LayerCount: 2
Fore
SplineSet
1504 2784 m 1,0,-1
 1504 2400 l 1,1,-1
 848 3024 l 1,2,-1
 208 2432 l 1,3,-1
 208 2816 l 1,4,-1
 848 3408 l 1,5,-1
 1504 2784 l 1,0,-1
EndSplineSet
EndChar

StartChar: underscore
Encoding: 95 95 66
Width: 1248
GlyphClass: 2
Flags: W
LayerCount: 2
Fore
SplineSet
1248 -576 m 1,0,-1
 0 -576 l 1,1,-1
 0 -288 l 1,2,-1
 1248 -288 l 1,3,-1
 1248 -576 l 1,0,-1
EndSplineSet
EndChar

StartChar: grave
Encoding: 96 96 67
Width: 1696
GlyphClass: 2
Flags: W
LayerCount: 2
Fore
SplineSet
1168 2528 m 1,0,-1
 864 2528 l 1,1,-1
 464 3200 l 1,2,-1
 864 3200 l 1,3,-1
 1168 2528 l 1,0,-1
EndSplineSet
EndChar

StartChar: a
Encoding: 97 97 68
Width: 1952
GlyphClass: 2
Flags: W
LayerCount: 2
Fore
SplineSet
1648 0 m 1,0,-1
 1344 0 l 1,1,-1
 1344 208 l 1,2,3
 1104 0 1104 0 832 0 c 0,4,5
 240 0 240 0 240 672 c 0,6,7
 240 1440 240 1440 1344 1520 c 1,8,-1
 1344 1712 l 2,9,10
 1344 1904 1344 1904 1232 1992 c 128,-1,11
 1120 2080 1120 2080 944 2080 c 256,12,13
 768 2080 768 2080 672 1976 c 128,-1,14
 576 1872 576 1872 544 1680 c 1,15,-1
 240 1680 l 1,16,17
 256 1952 256 1952 424 2152 c 128,-1,18
 592 2352 592 2352 912 2352 c 2,19,-1
 1088 2352 l 2,20,21
 1280 2352 1280 2352 1464 2208 c 128,-1,22
 1648 2064 1648 2064 1648 1712 c 2,23,-1
 1648 0 l 1,0,-1
1344 1232 m 1,24,25
 544 1152 544 1152 528 672 c 1,26,27
 528 288 528 288 880 288 c 0,28,29
 1072 288 1072 288 1344 528 c 1,30,-1
 1344 1232 l 1,24,25
EndSplineSet
EndChar

StartChar: b
Encoding: 98 98 69
Width: 2032
GlyphClass: 2
Flags: HWO
LayerCount: 2
Fore
SplineSet
624 2160 m 1,0,1
 848 2352 848 2352 1008 2352 c 2,2,-1
 1200 2352 l 2,3,4
 1408 2352 1408 2352 1592 2136 c 128,-1,5
 1776 1920 1776 1920 1776 1264 c 2,6,-1
 1776 1088 l 2,7,8
 1776 0 1776 0 1072 0 c 0,9,10
 832 0 832 0 624 144 c 1,11,-1
 624 0 l 1,12,-1
 320 0 l 1,13,-1
 320 3248 l 1,14,-1
 624 3248 l 1,15,-1
 624 2160 l 1,0,1
624 1856 m 1,16,-1
 624 464 l 1,17,18
 832 288 832 288 1072 288 c 0,19,20
 1504 288 1504 288 1504 1104 c 2,21,-1
 1504 1264 l 2,22,23
 1504 2064 1504 2064 1104 2064 c 0,24,25
 880 2064 880 2064 624 1856 c 1,16,-1
555.359 447.422 m 1,26,27
 539.591 441.857 539.591 441.857 531.2 428.096 c 128,-1,28
 522.808 414.334 522.808 414.334 522.808 396.316 c 128,-1,29
 522.808 378.227 522.808 378.227 531.191 364.503 c 128,-1,30
 539.574 350.78 539.574 350.78 555.359 345.21 c 1,31,-1
 555.359 357.164 l 1,32,33
 546.397 360.978 546.397 360.978 540.722 370.067 c 128,-1,34
 535.045 379.158 535.045 379.158 533.996 391.365 c 1,35,-1
 533.996 401.916 l 1,36,37
 534.852 413.805 534.852 413.805 540.613 422.826 c 128,-1,38
 546.372 431.847 546.372 431.847 555.359 435.479 c 1,39,-1
 555.359 447.422 l 1,26,27
573.381 438.275 m 1,40,41
 559.375 434.725 559.375 434.725 550.271 423.037 c 128,-1,42
 541.168 411.35 541.168 411.35 541.168 396.562 c 2,43,-1
 541.168 392.872 l 1,44,-1
 551.812 392.872 l 1,45,-1
 551.812 396.562 l 2,46,47
 551.812 407.014 551.812 407.014 557.812 415.352 c 128,-1,48
 563.812 423.69 563.812 423.69 573.381 427.074 c 1,49,-1
 573.381 438.275 l 1,40,41
482.551 415.301 m 1,50,-1
 482.551 411.078 l 1,51,-1
 492.492 411.078 l 2,52,53
 497.021 411.078 497.021 411.078 501.613 407.152 c 0,54,55
 507.372 402.236 507.372 402.236 507.372 394.237 c 2,56,-1
 507.372 394.003 l 2,57,58
 507.372 385.634 507.372 385.634 501.952 381.074 c 0,59,60
 499.777 379.217 499.777 379.217 497.08 378.189 c 128,-1,61
 494.383 377.163 494.383 377.163 492.492 377.163 c 2,62,-1
 482.551 377.163 l 1,63,-1
 482.551 372.887 l 1,64,-1
 492.492 372.887 l 2,65,66
 498.953 372.887 498.953 372.887 504.551 377.668 c 0,67,68
 511.724 383.796 511.724 383.796 511.724 394.003 c 2,69,-1
 511.724 394.094 l 1,70,-1
 511.724 394.237 l 2,71,72
 511.724 404.507 511.724 404.507 504.551 410.558 c 0,73,74
 498.998 415.301 498.998 415.301 492.492 415.301 c 2,75,-1
 482.551 415.301 l 1,50,-1
436.123 412.883 m 128,-1,77
 436.051 412.891 436.051 412.891 435.941 412.859 c 0,78,79
 435.595 412.769 435.595 412.769 435.253 412.339 c 128,-1,80
 434.902 411.894 434.902 411.894 434.902 407.44 c 0,81,82
 434.864 404.266 434.864 404.266 434.864 402.697 c 0,83,84
 434.864 402.325 434.864 402.325 434.955 400.695 c 128,-1,85
 435.049 398.951 435.049 398.951 434.918 398.734 c 128,-1,86
 434.771 398.535 434.771 398.535 434.918 396.851 c 128,-1,87
 435.063 395.164 435.063 395.164 434.865 394.927 c 128,-1,88
 434.646 394.68 434.646 394.68 434.865 394.68 c 128,-1,89
 435.092 394.68 435.092 394.68 434.97 394.277 c 128,-1,90
 434.832 393.778 434.832 393.778 434.879 392.848 c 0,91,92
 434.904 392.146 434.904 392.146 434.97 387.793 c 0,93,94
 434.984 386.834 434.984 386.834 435.004 385.785 c 128,-1,95
 435.023 384.735 435.023 384.735 435.035 384.151 c 128,-1,96
 435.048 383.565 435.048 383.565 435.048 383.518 c 128,-1,97
 435.053 383.351 435.053 383.351 435.243 381.854 c 128,-1,98
 435.425 380.434 435.425 380.434 435.775 379.242 c 128,-1,99
 436.129 378.051 436.129 378.051 436.412 377.41 c 128,-1,100
 436.691 376.787 436.691 376.787 436.75 376.397 c 128,-1,101
 436.812 375.99 436.812 375.99 437.361 375.098 c 128,-1,102
 437.928 374.178 437.928 374.178 438.349 373.693 c 128,-1,103
 438.807 373.168 438.807 373.168 439.946 372.031 c 128,-1,104
 441.104 370.88 441.104 370.88 441.87 370.419 c 128,-1,105
 442.655 369.945 442.655 369.945 443.026 369.835 c 128,-1,106
 443.417 369.716 443.417 369.716 443.417 369.549 c 128,-1,107
 443.417 369.38 443.417 369.38 443.807 369.38 c 128,-1,108
 444.185 369.38 444.185 369.38 444.533 369.12 c 128,-1,109
 444.881 368.859 444.881 368.859 445.235 368.859 c 128,-1,110
 445.601 368.859 445.601 368.859 446.066 368.613 c 128,-1,111
 446.538 368.367 446.538 368.367 446.86 368.367 c 128,-1,112
 447.207 368.367 447.207 368.367 448.134 368.106 c 128,-1,113
 449.133 367.826 449.133 367.826 450.355 367.781 c 128,-1,114
 451.615 367.736 451.615 367.736 451.615 367.6 c 128,-1,115
 451.615 367.461 451.615 367.461 451.98 367.521 c 128,-1,116
 452.359 367.578 452.359 367.578 452.979 367.47 c 128,-1,117
 453.683 367.349 453.683 367.349 454.903 367.379 c 128,-1,118
 456.104 367.401 456.104 367.401 456.515 367.535 c 128,-1,119
 456.913 367.654 456.913 367.654 457.1 367.535 c 128,-1,120
 457.276 367.427 457.276 367.427 457.983 367.379 c 128,-1,121
 458.672 367.349 458.672 367.349 458.762 367.496 c 128,-1,122
 458.855 367.662 458.855 367.662 459.062 367.496 c 128,-1,123
 459.268 367.326 459.268 367.326 460.217 367.459 c 128,-1,124
 461.176 367.586 461.176 367.586 461.582 367.434 c 128,-1,125
 461.99 367.276 461.99 367.276 462.153 367.382 c 128,-1,126
 462.372 367.504 462.372 367.504 467.066 367.46 c 0,127,128
 468.633 367.46 468.633 367.46 470.699 367.447 c 128,-1,129
 472.768 367.436 472.768 367.436 472.77 367.436 c 2,130,-1
 476.876 367.436 l 1,131,-1
 480.268 367.436 l 2,132,133
 480.292 367.436 480.292 367.436 480.723 367.441 c 128,-1,134
 481.152 367.447 481.152 367.447 481.836 367.453 c 128,-1,135
 482.519 367.46 482.519 367.46 483.153 367.46 c 0,136,137
 485.387 367.486 485.387 367.486 487.648 367.422 c 0,138,139
 489.507 367.371 489.507 367.371 489.611 367.46 c 128,-1,140
 489.689 367.545 489.689 367.545 492.431 367.498 c 0,141,142
 495.453 367.472 495.453 367.472 495.874 367.472 c 2,143,-1
 498.408 367.472 l 2,144,145
 500.277 367.472 500.277 367.472 501.553 367.654 c 128,-1,146
 502.773 367.826 502.773 367.826 503.385 367.889 c 128,-1,147
 503.8 367.924 503.8 367.924 505.035 368.188 c 128,-1,148
 506.184 368.43 506.184 368.43 506.256 368.512 c 128,-1,149
 506.356 368.618 506.356 368.618 507.296 368.941 c 128,-1,150
 508.305 369.286 508.305 369.286 508.868 369.565 c 128,-1,151
 509.52 369.883 509.52 369.883 510.246 370.278 c 128,-1,152
 510.989 370.68 510.989 370.68 511.311 370.968 c 2,153,-1
 512.416 371.955 l 2,154,155
 513.234 372.686 513.234 372.686 513.234 372.865 c 128,-1,156
 513.234 373.061 513.234 373.061 513.534 373.061 c 128,-1,157
 513.855 373.061 513.855 373.061 514.066 373.54 c 128,-1,158
 514.295 374.058 514.295 374.058 514.599 374.385 c 128,-1,159
 514.923 374.731 514.923 374.731 515.47 375.88 c 128,-1,160
 516.015 377.02 516.015 377.02 516.015 377.14 c 128,-1,161
 516.015 377.23 516.015 377.23 516.301 377.895 c 128,-1,162
 516.584 378.555 516.584 378.555 516.651 379.154 c 128,-1,163
 516.734 379.894 516.734 379.894 516.795 380.206 c 128,-1,164
 516.852 380.492 516.852 380.492 517.172 381.856 c 128,-1,165
 517.455 383.065 517.455 383.065 517.521 392.851 c 0,166,167
 517.538 395.199 517.538 395.199 517.558 397.726 c 128,-1,168
 517.576 400.254 517.576 400.254 517.589 401.654 c 128,-1,169
 517.602 403.055 517.602 403.055 517.602 403.141 c 0,170,171
 517.611 403.485 517.611 403.485 517.549 405.493 c 128,-1,172
 517.485 407.326 517.485 407.326 517.146 407.846 c 128,-1,173
 516.808 408.364 516.808 408.364 516.548 408.573 c 128,-1,174
 516.278 408.794 516.278 408.794 516.186 408.794 c 128,-1,175
 516.08 408.794 516.08 408.794 516.133 404.403 c 128,-1,176
 516.17 399.92 516.17 399.92 516.197 399.828 c 128,-1,177
 516.252 399.646 516.252 399.646 516.197 399.555 c 128,-1,178
 516.173 399.498 516.173 399.498 516.121 391.953 c 128,-1,179
 516.074 384.433 516.074 384.433 515.965 384.262 c 128,-1,180
 515.85 384.081 515.85 384.081 515.754 382.609 c 128,-1,181
 515.664 381.195 515.664 381.195 515.301 379.947 c 128,-1,182
 514.928 378.652 514.928 378.652 514.768 378.283 c 2,183,-1
 514.43 377.504 l 2,184,185
 513.989 376.488 513.989 376.488 513.858 376.191 c 0,186,187
 513.41 375.177 513.41 375.177 512.467 374.189 c 2,188,-1
 511.104 372.762 l 2,189,190
 510.732 372.372 510.732 372.372 510.232 372.164 c 128,-1,191
 509.74 371.962 509.74 371.962 509.74 371.812 c 128,-1,192
 509.74 371.656 509.74 371.656 509.559 371.656 c 128,-1,193
 509.36 371.656 509.36 371.656 508.361 371.072 c 128,-1,194
 507.359 370.484 507.359 370.484 506.621 370.357 c 128,-1,195
 505.918 370.239 505.918 370.239 505.633 369.953 c 128,-1,196
 505.346 369.663 505.346 369.663 504.594 369.707 c 128,-1,197
 503.827 369.737 503.827 369.737 503.722 369.564 c 128,-1,198
 503.608 369.37 503.608 369.37 503.293 369.474 c 128,-1,199
 502.959 369.574 502.959 369.574 502.853 369.395 c 128,-1,200
 502.742 369.203 502.742 369.203 502.618 369.278 c 128,-1,201
 502.482 369.363 502.482 369.363 501.111 369.2 c 128,-1,202
 499.781 369.045 499.781 369.045 495.966 369.045 c 2,203,-1
 491.912 369.045 l 2,204,205
 491.743 369.02 491.743 369.02 491.222 369.02 c 2,206,-1
 490.04 369.02 l 1,207,-1
 488.988 369.02 l 2,208,209
 488.569 369.02 488.569 369.02 488.377 369.045 c 128,-1,210
 488.184 369.07 488.184 369.07 485.154 369.07 c 128,-1,211
 482.041 369.062 482.041 369.062 481.581 369.032 c 128,-1,212
 481.197 369.008 481.197 369.008 480.359 369.008 c 0,213,214
 480.312 369.008 480.312 369.008 479.467 369.014 c 128,-1,215
 478.622 369.02 478.622 369.02 477.28 369.025 c 128,-1,216
 475.939 369.032 475.939 369.032 474.693 369.032 c 0,217,218
 468.309 369.07 468.309 369.07 467.807 369.07 c 2,219,-1
 465.805 369.07 l 2,220,221
 465.678 369.062 465.678 369.062 463.7 369.018 c 128,-1,222
 461.86 368.979 461.86 368.979 461.646 369.109 c 128,-1,223
 461.444 369.249 461.444 369.249 461.258 369.133 c 128,-1,224
 461.075 369.029 461.075 369.029 458.789 369.029 c 128,-1,225
 456.482 369.029 456.482 369.029 456.19 368.873 c 128,-1,226
 455.881 368.71 455.881 368.71 455.825 368.873 c 128,-1,227
 455.763 369.043 455.763 369.043 454.201 369.043 c 2,228,-1
 452.291 369.043 l 2,229,230
 451.983 369.043 451.983 369.043 451.07 369.146 c 128,-1,231
 450.182 369.247 450.182 369.247 449.927 369.341 c 128,-1,232
 449.689 369.43 449.689 369.43 448.926 369.511 c 128,-1,233
 448.145 369.589 448.145 369.589 446.378 370.172 c 128,-1,234
 444.601 370.762 444.601 370.762 444.117 370.979 c 128,-1,235
 443.65 371.189 443.65 371.189 443.65 371.343 c 128,-1,236
 443.65 371.484 443.65 371.484 443.312 371.484 c 128,-1,237
 442.968 371.484 442.968 371.484 442.831 371.707 c 128,-1,238
 442.803 371.75 442.803 371.75 442.052 372.266 c 2,239,-1
 441.467 372.667 l 2,240,241
 441.524 372.725 441.524 372.725 441.104 373.148 c 128,-1,242
 440.673 373.578 440.673 373.578 440.506 373.578 c 128,-1,243
 440.337 373.578 440.337 373.578 440.337 373.707 c 128,-1,244
 440.337 373.847 440.337 373.847 439.921 374.292 c 128,-1,245
 439.513 374.73 439.513 374.73 439.18 375.318 c 128,-1,246
 438.81 375.977 438.81 375.977 438.673 376.202 c 128,-1,247
 438.497 376.503 438.497 376.503 438.31 376.734 c 128,-1,248
 438.117 376.975 438.117 376.975 437.816 378.203 c 128,-1,249
 437.512 379.43 437.512 379.43 437.388 379.594 c 128,-1,250
 437.25 379.775 437.25 379.775 437.114 380.295 c 128,-1,251
 436.972 380.855 436.972 380.855 437.011 380.972 c 128,-1,252
 437.046 381.117 437.046 381.117 436.789 382.192 c 128,-1,253
 436.516 383.344 436.516 383.344 436.516 383.518 c 128,-1,254
 436.514 383.554 436.514 383.554 436.398 385.351 c 0,255,256
 436.309 386.821 436.309 386.821 436.309 388.055 c 2,257,-1
 436.309 393.55 l 1,258,-1
 436.309 398.253 l 2,259,260
 436.309 398.305 436.309 398.305 436.303 398.692 c 128,-1,261
 436.297 399.08 436.297 399.08 436.29 399.664 c 128,-1,262
 436.284 400.246 436.284 400.246 436.284 400.773 c 0,263,264
 436.246 402.32 436.246 402.32 436.246 403.478 c 0,265,266
 436.246 405.122 436.246 405.122 436.284 407.844 c 0,267,268
 436.309 409.652 436.309 409.652 436.309 412.313 c 0,269,76
 436.304 412.867 436.304 412.867 436.123 412.883 c 128,-1,77
478.394 405.165 m 1,270,-1
 498.106 405.165 l 1,271,-1
 498.106 400.917 l 1,272,-1
 478.394 400.917 l 1,273,-1
 478.394 405.165 l 1,270,-1
398.712 397.266 m 1,274,275
 398.712 351.848 l 2,276,277
 398.712 337.34 398.712 337.34 407.437 326.465 c 128,-1,278
 416.162 315.59 416.162 315.59 430.068 312.827 c 1,279,-1
 430.068 323.197 l 1,280,281
 424.518 324.438 424.518 324.438 419.569 328.303 c 0,282,283
 418.185 329.384 418.185 329.384 416.736 330.85 c 0,284,285
 416.018 331.571 416.018 331.571 415.176 332.553 c 0,286,287
 415.16 332.569 415.16 332.569 415.107 332.618 c 128,-1,288
 415.057 332.667 415.057 332.667 415.034 332.696 c 0,289,290
 414.428 333.413 414.428 333.413 413.188 335.256 c 0,291,292
 411.141 338.305 411.141 338.305 410.342 340.506 c 0,293,294
 408.766 344.859 408.766 344.859 408.926 350.147 c 1,295,-1
 408.926 382.931 l 1,296,-1
 408.926 393.717 l 1,297,298
 403.906 396.234 403.906 396.234 398.712 397.266 c 1,274,275
478.394 396.16 m 1,299,-1
 478.394 391.912 l 1,300,-1
 498.106 391.912 l 1,301,-1
 498.106 396.16 l 1,302,-1
 478.394 396.16 l 1,299,-1
541.728 388.988 m 1,303,-1
 541.728 378.448 l 1,304,-1
 542.961 378.019 l 2,305,306
 544.197 377.588 544.197 377.588 546.896 376.187 c 128,-1,307
 549.601 374.783 549.601 374.783 552.539 372.834 c 1,308,309
 557.342 369.302 557.342 369.302 559.708 362.912 c 128,-1,310
 562.076 356.522 562.076 356.522 562.076 349.068 c 2,311,-1
 562.076 288.035 l 1,312,-1
 573.006 288.035 l 1,313,-1
 573.006 349.068 l 2,314,315
 573.006 364.629 573.006 364.629 564.409 375.409 c 128,-1,316
 555.814 386.189 555.814 386.189 541.728 388.988 c 1,303,-1
479.928 387.141 m 1,317,-1
 477.951 382.919 l 1,318,-1
 498.547 382.919 l 1,319,-1
 496.572 387.141 l 1,320,-1
 479.928 387.141 l 1,317,-1
462.944 387.078 m 1,321,-1
 452.301 373.458 l 1,322,-1
 464.932 373.458 l 1,323,-1
 475.717 387.078 l 1,324,-1
 462.944 387.078 l 1,321,-1
594.303 363.96 m 1,325,-1
 575.812 324.458 l 1,326,-1
 581.113 324.458 l 1,327,-1
 596.928 358.334 l 1,328,-1
 594.303 363.96 l 1,325,-1
459.214 362.986 m 1,329,-1
 459.214 358.736 l 1,330,-1
 478.939 358.736 l 1,331,-1
 478.939 362.986 l 1,332,-1
 459.214 362.986 l 1,329,-1
482.812 362.986 m 1,333,-1
 482.812 352.499 l 1,334,-1
 494.74 352.499 l 1,335,-1
 494.74 362.986 l 1,336,-1
 482.812 362.986 l 1,333,-1
499.302 362.986 m 1,337,-1
 499.302 352.344 l 1,338,-1
 511.646 352.344 l 1,339,-1
 511.646 362.986 l 1,340,-1
 499.302 362.986 l 1,337,-1
516.427 360.802 m 1,341,-1
 516.427 349.16 l 1,342,-1
 517.998 348.615 l 2,343,344
 519.578 348.067 519.578 348.067 522.335 346.652 c 128,-1,345
 525.103 345.232 525.103 345.232 527.499 343.481 c 0,346,347
 533.846 338.65 533.846 338.65 538.019 331.006 c 128,-1,348
 542.192 323.361 542.192 323.361 543.247 314.815 c 1,349,-1
 543.808 309.566 l 1,350,-1
 554.448 314.815 l 1,351,352
 552.824 331.054 552.824 331.054 542.241 343.882 c 128,-1,353
 531.659 356.709 531.659 356.709 516.427 360.802 c 1,341,-1
442.516 359.568 m 1,354,-1
 442.516 336.295 l 1,355,-1
 453.328 336.295 l 1,356,-1
 453.328 359.568 l 1,357,-1
 442.516 359.568 l 1,354,-1
458.695 352.628 m 1,358,-1
 456.056 347.002 l 1,359,-1
 474.494 307.5 l 1,360,-1
 479.797 307.5 l 1,361,-1
 458.695 352.628 l 1,358,-1
476.613 347.729 m 1,362,-1
 476.613 337.231 l 1,363,-1
 497.755 337.231 l 1,364,-1
 497.755 332.696 l 2,365,366
 497.755 322.32 497.755 322.32 491.816 313.989 c 128,-1,367
 485.877 305.658 485.877 305.658 476.327 302.186 c 1,368,-1
 476.327 290.972 l 1,369,370
 490.373 294.531 490.373 294.531 499.529 306.191 c 128,-1,371
 508.683 317.853 508.683 317.853 508.683 332.696 c 2,372,-1
 508.683 347.729 l 1,373,-1
 476.613 347.729 l 1,362,-1
430.562 347.328 m 1,374,-1
 430.562 332.709 l 1,375,376
 433.706 328.779 433.706 328.779 435.109 321.682 c 128,-1,377
 436.513 314.588 436.513 314.588 436.513 301.211 c 2,378,-1
 436.513 290.712 l 1,379,-1
 436.513 246.297 l 1,380,-1
 447.584 246.297 l 1,381,-1
 447.584 301.496 l 2,382,383
 447.584 314.253 447.584 314.253 445.233 323.459 c 128,-1,384
 442.882 332.666 442.882 332.666 439.438 337.739 c 128,-1,385
 435.995 342.812 435.995 342.812 430.562 347.328 c 1,374,-1
516.389 344.729 m 1,386,-1
 516.389 333.944 l 1,387,388
 520.978 331.103 520.978 331.103 524.004 324.806 c 128,-1,389
 527.031 318.51 527.031 318.51 527.031 308.396 c 2,390,-1
 527.031 301.158 l 1,391,-1
 516.389 301.158 l 1,392,-1
 516.393 299.718 l 2,393,394
 516.396 298.277 516.396 298.277 516.75 295.867 c 128,-1,395
 517.104 293.456 517.104 293.456 517.805 291.516 c 1,396,-1
 537.53 291.516 l 1,397,-1
 537.53 308.396 l 2,398,399
 537.53 320.812 537.53 320.812 531.869 330.311 c 128,-1,400
 526.206 339.807 526.206 339.807 516.389 344.729 c 1,386,-1
594.9 335.256 m 1,401,402
 589.465 330.737 589.465 330.737 586.021 325.668 c 128,-1,403
 582.573 320.596 582.573 320.596 580.22 311.389 c 128,-1,404
 577.865 302.18 577.865 302.18 577.865 289.425 c 2,405,-1
 577.865 234.225 l 1,406,-1
 588.937 234.225 l 1,407,-1
 588.937 278.641 l 1,408,-1
 588.937 289.139 l 2,409,410
 588.937 302.508 588.937 302.508 590.346 309.604 c 128,-1,411
 591.754 316.704 591.754 316.704 594.9 320.637 c 1,412,-1
 594.9 335.256 l 1,401,402
610.701 335.256 m 1,413,414
 605.268 330.738 605.268 330.738 601.824 325.668 c 128,-1,415
 598.381 320.595 598.381 320.595 596.03 311.389 c 128,-1,416
 593.68 302.182 593.68 302.182 593.68 289.425 c 2,417,-1
 593.68 234.225 l 1,418,-1
 604.75 234.225 l 1,419,-1
 604.75 278.641 l 1,420,-1
 604.75 289.139 l 2,421,422
 604.75 302.516 604.75 302.516 606.153 309.611 c 128,-1,423
 607.558 316.707 607.558 316.707 610.701 320.637 c 1,424,-1
 610.701 335.256 l 1,413,414
635.092 335.112 m 1,425,426
 623.627 329.541 623.627 329.541 616.449 319.701 c 128,-1,427
 609.272 309.861 609.272 309.861 609.272 295.246 c 2,428,-1
 609.272 234.225 l 1,429,-1
 620.045 234.225 l 1,430,-1
 620.045 295.246 l 2,431,432
 620.045 308.844 620.045 308.844 627.062 317.324 c 0,433,434
 627.704 318.072 627.704 318.072 628.361 318.713 c 128,-1,435
 629.019 319.355 629.019 319.355 629.721 319.867 c 128,-1,436
 630.42 320.38 630.42 320.38 630.923 320.733 c 128,-1,437
 631.425 321.088 631.425 321.088 632.169 321.46 c 128,-1,438
 632.911 321.832 632.911 321.832 633.215 321.98 c 128,-1,439
 633.518 322.129 633.518 322.129 634.262 322.442 c 0,440,-1
 635.092 322.794 l 2,441,-1
 635.092 335.112 l 1,425,426
476.652 333.749 m 1,442,-1
 476.652 323.106 l 1,443,-1
 488.996 323.106 l 1,444,-1
 488.996 333.749 l 1,445,-1
 476.652 333.749 l 1,442,-1
450.741 331.137 m 1,446,-1
 450.741 320.352 l 1,447,448
 455.33 317.51 455.33 317.51 458.357 311.213 c 128,-1,449
 461.385 304.917 461.385 304.917 461.385 294.805 c 2,450,-1
 461.385 287.566 l 1,451,-1
 450.741 287.566 l 1,452,-1
 450.744 286.127 l 2,453,454
 450.747 284.688 450.747 284.688 451.103 282.275 c 128,-1,455
 451.456 279.863 451.456 279.863 452.158 277.925 c 1,456,-1
 471.884 277.925 l 1,457,-1
 471.884 294.805 l 2,458,459
 471.884 307.222 471.884 307.222 466.221 316.718 c 128,-1,460
 460.559 326.215 460.559 326.215 450.741 331.137 c 1,446,-1
513.687 321.001 m 1,461,-1
 503.901 307.383 l 1,462,-1
 514.83 307.383 l 1,463,-1
 519.649 314.335 l 1,464,-1
 524.186 321.001 l 1,465,-1
 513.687 321.001 l 1,461,-1
655.855 317.375 m 1,466,467
 641.756 314.575 641.756 314.575 633.129 303.813 c 128,-1,468
 624.501 293.055 624.501 293.055 624.501 277.509 c 2,469,-1
 624.501 234.225 l 1,470,-1
 635.43 234.225 l 1,471,-1
 635.43 277.509 l 2,472,473
 635.43 285.547 635.43 285.547 637.877 292.002 c 128,-1,474
 640.326 298.457 640.326 298.457 645.214 302.055 c 0,475,476
 649.537 305.362 649.537 305.362 655.714 306.733 c 1,477,-1
 655.855 306.733 l 1,478,-1
 655.855 317.375 l 1,466,467
411.72 317.102 m 1,479,-1
 411.72 302.485 l 1,480,481
 414.867 298.55 414.867 298.55 416.275 291.453 c 128,-1,482
 417.685 284.355 417.685 284.355 417.685 270.986 c 2,483,-1
 417.685 260.486 l 1,484,-1
 417.685 216.073 l 1,485,-1
 428.756 216.073 l 1,486,-1
 428.756 271.271 l 2,487,488
 428.756 284.025 428.756 284.025 426.401 293.234 c 128,-1,489
 424.047 302.443 424.047 302.443 420.601 307.514 c 128,-1,490
 417.156 312.586 417.156 312.586 411.72 317.102 c 1,479,-1
387.616 316.961 m 1,491,-1
 387.616 304.641 l 2,492,493
 387.616 304.609 387.616 304.609 388.445 304.289 c 128,-1,494
 389.2 303.971 389.2 303.971 389.491 303.828 c 128,-1,495
 389.781 303.684 389.781 303.684 390.532 303.309 c 128,-1,496
 391.283 302.932 391.283 302.932 391.777 302.582 c 128,-1,497
 392.273 302.23 392.273 302.23 392.977 301.715 c 128,-1,498
 393.68 301.201 393.68 301.201 394.335 300.561 c 128,-1,499
 394.991 299.92 394.991 299.92 395.633 299.171 c 0,500,501
 402.65 290.691 402.65 290.691 402.65 277.094 c 2,502,-1
 402.65 216.073 l 1,503,-1
 413.436 216.073 l 1,504,-1
 413.436 277.094 l 2,505,506
 413.436 291.705 413.436 291.705 406.256 301.547 c 128,-1,507
 399.078 311.388 399.078 311.388 387.616 316.961 c 1,491,-1
503.006 305.136 m 1,508,-1
 498.471 298.469 l 1,509,-1
 503.291 291.516 l 1,510,-1
 514.219 291.516 l 1,511,-1
 504.564 305.136 l 1,512,-1
 503.006 305.136 l 1,508,-1
542.715 301.809 m 1,513,-1
 542.715 291.516 l 1,514,-1
 557.75 291.516 l 1,515,-1
 557.75 301.809 l 1,516,-1
 542.715 301.809 l 1,513,-1
351.271 300.288 m 1,517,-1
 351.271 289.932 l 1,518,519
 356.821 288.69 356.821 288.69 361.77 284.825 c 0,520,521
 363.158 283.74 363.158 283.74 364.602 282.277 c 0,522,523
 365.234 281.645 365.234 281.645 366.162 280.562 c 0,524,525
 366.182 280.541 366.182 280.541 366.231 280.502 c 128,-1,526
 366.281 280.46 366.281 280.46 366.305 280.432 c 0,527,528
 366.909 279.718 366.909 279.718 368.15 277.872 c 0,529,530
 370.197 274.825 370.197 274.825 370.996 272.623 c 0,531,532
 372.572 268.27 372.572 268.27 372.412 262.969 c 1,533,-1
 372.412 230.197 l 1,534,-1
 372.412 219.412 l 1,535,536
 377.431 216.896 377.431 216.896 382.626 215.864 c 1,537,-1
 382.626 261.266 l 2,538,539
 382.626 275.776 382.626 275.776 373.901 286.65 c 128,-1,540
 365.177 297.524 365.177 297.524 351.271 300.288 c 1,517,-1
377.909 298.794 m 1,541,-1
 377.909 287.164 l 1,542,543
 382.882 283.7 382.882 283.7 385.146 277.115 c 128,-1,544
 387.407 270.531 387.407 270.531 387.407 262.76 c 2,545,-1
 387.407 216.073 l 1,546,-1
 398.336 216.073 l 1,547,-1
 398.336 262.76 l 2,548,549
 398.336 275.043 398.336 275.043 392.881 284.441 c 128,-1,550
 387.427 293.84 387.427 293.84 377.909 298.794 c 1,541,-1
524.601 288.645 m 128,-1,552
 522.289 288.645 522.289 288.645 522.289 288.541 c 128,-1,553
 522.289 288.439 522.289 288.439 521.171 288.516 c 128,-1,554
 520.047 288.592 520.047 288.592 519.508 288.398 c 128,-1,555
 518.975 288.227 518.975 288.227 518.975 288.398 c 128,-1,556
 518.975 288.583 518.975 288.583 518.807 288.478 c 128,-1,557
 518.624 288.363 518.624 288.363 516.323 288.282 c 0,558,559
 513.153 288.178 513.153 288.178 511.398 288.114 c 0,560,561
 508.8 288.021 508.8 288.021 507.955 287.879 c 128,-1,562
 507.129 287.754 507.129 287.754 506.929 287.879 c 128,-1,563
 506.691 288.022 506.691 288.022 502.693 288.022 c 128,-1,564
 498.633 288.022 498.633 288.022 498.404 288.101 c 128,-1,565
 498.146 288.188 498.146 288.188 496.312 288.31 c 128,-1,566
 494.347 288.438 494.347 288.438 490.725 288.438 c 2,567,-1
 483.668 288.438 l 1,568,-1
 479.135 288.438 l 2,569,570
 477.836 288.438 477.836 288.438 477.314 288.321 c 128,-1,571
 476.689 288.188 476.689 288.188 476.457 287.997 c 128,-1,572
 476.226 287.803 476.226 287.803 476.041 287.346 c 128,-1,573
 475.875 286.929 475.875 286.929 475.821 285.332 c 128,-1,574
 475.776 283.785 475.776 283.785 475.938 281.668 c 128,-1,575
 476.094 279.615 476.094 279.615 476.094 279.316 c 2,576,-1
 476.094 278.368 l 2,577,578
 476.094 277.573 476.094 277.573 476.171 277.146 c 128,-1,579
 476.203 276.896 476.203 276.896 476.418 275.482 c 0,580,581
 476.591 274.339 476.591 274.339 476.652 273.651 c 2,582,-1
 476.847 271.467 l 2,583,584
 476.975 270.025 476.975 270.025 477.158 269.674 c 128,-1,585
 477.315 269.383 477.315 269.383 477.381 268.804 c 128,-1,586
 477.443 268.219 477.443 268.219 477.484 268.154 c 128,-1,587
 477.52 268.072 477.52 268.072 477.588 266.672 c 128,-1,588
 477.654 265.328 477.654 265.328 477.717 264.32 c 0,589,590
 477.742 263.947 477.742 263.947 477.822 262.229 c 0,591,592
 477.86 261.098 477.86 261.098 478.017 260.8 c 128,-1,593
 478.154 260.503 478.154 260.503 478.017 260.422 c 128,-1,594
 477.889 260.343 477.889 260.343 477.834 258.447 c 0,595,596
 477.828 258.14 477.828 258.14 477.805 257.075 c 128,-1,597
 477.779 256.01 477.779 256.01 477.756 254.864 c 128,-1,598
 477.732 253.719 477.732 253.719 477.717 252.808 c 0,599,600
 477.69 251.1 477.69 251.1 477.549 237.735 c 0,601,602
 477.523 235.265 477.523 235.265 477.481 231.863 c 128,-1,603
 477.44 228.458 477.44 228.458 477.416 226.396 c 128,-1,604
 477.393 224.332 477.393 224.332 477.393 223.688 c 0,605,606
 477.371 221.049 477.371 221.049 477.521 220.037 c 2,607,-1
 477.717 218.723 l 2,608,609
 477.768 218.376 477.768 218.376 478.446 218.257 c 128,-1,610
 479.171 218.126 479.171 218.126 480.083 218.126 c 128,-1,611
 481.053 218.126 481.053 218.126 481.747 218.282 c 128,-1,612
 482.442 218.445 482.442 218.445 484.268 218.541 c 128,-1,613
 486.062 218.634 486.062 218.634 486.71 218.697 c 128,-1,614
 487.338 218.76 487.338 218.76 489.062 218.621 c 128,-1,615
 490.766 218.491 490.766 218.491 491.232 218.387 c 128,-1,616
 491.686 218.287 491.686 218.287 492.545 218.191 c 128,-1,617
 493.512 218.084 493.512 218.084 493.779 218.021 c 128,-1,618
 494.179 217.932 494.179 217.932 494.728 217.853 c 128,-1,619
 495.273 217.778 495.273 217.778 496.3 217.606 c 128,-1,620
 497.395 217.426 497.395 217.426 498.482 217.32 c 128,-1,621
 499.513 217.217 499.513 217.217 500.536 217.15 c 128,-1,622
 501.368 217.105 501.368 217.105 501.445 217.035 c 128,-1,623
 501.532 216.958 501.532 216.958 502.912 217.022 c 128,-1,624
 504.271 217.099 504.271 217.099 504.562 217.256 c 128,-1,625
 504.879 217.414 504.879 217.414 505.225 217.231 c 128,-1,626
 505.572 217.037 505.572 217.037 505.76 217.153 c 128,-1,627
 505.947 217.271 505.947 217.271 506.928 217.323 c 0,628,629
 508.582 217.423 508.582 217.423 509.5 217.491 c 0,630,631
 511.06 217.608 511.06 217.608 511.646 217.765 c 128,-1,632
 512.208 217.912 512.208 217.912 512.424 217.843 c 128,-1,633
 512.592 217.785 512.592 217.785 514.906 217.674 c 0,634,635
 515.366 217.65 515.366 217.65 516.072 217.611 c 128,-1,636
 516.775 217.57 516.775 217.57 517.174 217.551 c 128,-1,637
 517.572 217.53 517.572 217.53 517.7 217.53 c 0,638,639
 518.231 217.515 518.231 217.515 518.505 217.621 c 128,-1,640
 518.805 217.736 518.805 217.736 518.856 217.568 c 128,-1,641
 518.907 217.408 518.907 217.408 520.39 217.31 c 0,642,643
 522.092 217.196 522.092 217.196 522.664 217.14 c 128,-1,644
 523.277 217.079 523.277 217.079 527.107 217.023 c 128,-1,645
 530.782 216.983 530.782 216.983 533.293 217.296 c 128,-1,646
 535.832 217.612 535.832 217.612 536.528 217.674 c 128,-1,647
 537.324 217.743 537.324 217.743 539.556 217.843 c 128,-1,648
 541.929 217.953 541.929 217.953 542.609 218.076 c 0,649,650
 543.604 218.214 543.604 218.214 545.508 218.166 c 0,651,652
 547.689 218.121 547.689 218.121 548.472 218.037 c 128,-1,653
 549.275 217.954 549.275 217.954 549.951 218.127 c 128,-1,654
 550.643 218.303 550.643 218.303 551.005 218.635 c 128,-1,655
 551.376 218.979 551.376 218.979 551.343 220.376 c 128,-1,656
 551.326 221.788 551.326 221.788 551.459 221.87 c 128,-1,657
 551.582 221.948 551.582 221.948 551.355 222.715 c 128,-1,658
 551.131 223.467 551.131 223.467 551.278 223.702 c 128,-1,659
 551.434 223.927 551.434 223.927 551.343 224.223 c 128,-1,660
 551.249 224.517 551.249 224.517 551.174 225.704 c 128,-1,661
 551.089 227.055 551.089 227.055 551.03 227.521 c 128,-1,662
 550.956 228.125 550.956 228.125 550.835 231.968 c 128,-1,663
 550.718 235.764 550.718 235.764 550.627 236.671 c 128,-1,664
 550.562 237.604 550.562 237.604 550.562 237.802 c 128,-1,665
 550.57 237.88 550.57 237.88 550.627 239.243 c 128,-1,666
 550.665 240.412 550.665 240.412 550.771 240.518 c 128,-1,667
 550.864 240.637 550.864 240.637 550.744 241.089 c 128,-1,668
 550.613 241.695 550.613 241.695 550.655 242.258 c 128,-1,669
 550.686 242.843 550.686 242.843 550.953 244.793 c 128,-1,670
 551.213 246.646 551.213 246.646 551.447 247.027 c 128,-1,671
 551.68 247.416 551.68 247.416 552.201 247.313 c 128,-1,672
 552.725 247.211 552.725 247.211 552.89 246.923 c 128,-1,673
 553.057 246.626 553.057 246.626 553.448 246.235 c 128,-1,674
 553.853 245.831 553.853 245.831 554.164 245.273 c 128,-1,675
 554.486 244.691 554.486 244.691 554.696 244.56 c 128,-1,676
 554.917 244.419 554.917 244.419 554.917 244.169 c 128,-1,677
 554.917 243.928 554.917 243.928 555.242 243.752 c 128,-1,678
 555.576 243.573 555.576 243.573 555.748 243.09 c 128,-1,679
 555.92 242.604 555.92 242.604 556.84 241.686 c 128,-1,680
 557.755 240.777 557.755 240.777 558.075 240.777 c 128,-1,681
 558.381 240.777 558.381 240.777 558.478 241.337 c 128,-1,682
 558.582 241.973 558.582 241.973 558.529 246.312 c 128,-1,683
 558.484 250.718 558.484 250.718 558.399 250.718 c 128,-1,684
 558.31 250.718 558.31 250.718 558.31 253.888 c 128,-1,685
 558.293 256.945 558.293 256.945 558.165 260.828 c 128,-1,686
 558.036 264.68 558.036 264.68 558.036 265.922 c 128,-1,687
 558.029 267.273 558.029 267.273 557.841 267.273 c 128,-1,688
 557.635 267.273 557.635 267.273 557.841 267.52 c 128,-1,689
 558.049 267.775 558.049 267.775 558.049 269.481 c 0,690,691
 558.049 270.562 558.049 270.562 558.126 273.471 c 0,692,693
 558.188 275.81 558.188 275.81 558.295 277.486 c 128,-1,694
 558.398 279.096 558.398 279.096 558.465 280.969 c 128,-1,695
 558.527 282.778 558.527 282.778 558.374 284.789 c 128,-1,696
 558.215 286.852 558.215 286.852 557.763 287.271 c 128,-1,697
 557.311 287.687 557.311 287.687 557.021 287.687 c 128,-1,698
 556.709 287.687 556.709 287.687 556.503 287.479 c 1,699,-1
 556.294 287.441 l 1,700,701
 556.294 287.609 556.294 287.609 555.995 287.662 c 128,-1,702
 555.851 287.688 555.851 287.688 554.111 287.688 c 0,703,704
 552.791 287.681 552.791 287.681 550.629 287.597 c 0,705,706
 546.383 287.43 546.383 287.43 546.354 287.428 c 0,707,708
 544.117 287.335 544.117 287.335 543.378 287.232 c 128,-1,709
 542.766 287.145 542.766 287.145 542.26 287.336 c 128,-1,710
 541.768 287.533 541.768 287.533 541.598 287.361 c 128,-1,711
 541.445 287.195 541.445 287.195 540.792 287.296 c 128,-1,712
 540.161 287.394 540.161 287.394 539.986 287.53 c 128,-1,713
 539.812 287.665 539.812 287.665 539.077 287.53 c 128,-1,714
 538.352 287.389 538.352 287.389 538.297 287.53 c 128,-1,715
 538.242 287.677 538.242 287.677 536.672 287.775 c 128,-1,716
 535.01 287.893 535.01 287.893 534.502 287.984 c 0,717,718
 533.759 288.088 533.759 288.088 533.633 288.062 c 128,-1,719
 533.348 288.029 533.348 288.029 532.528 288.18 c 128,-1,720
 531.691 288.314 531.691 288.314 531.593 288.155 c 128,-1,721
 531.485 287.999 531.485 287.999 531.371 288.18 c 128,-1,722
 531.264 288.354 531.264 288.354 529.254 288.399 c 128,-1,723
 527.271 288.43 527.271 288.43 527.082 288.544 c 128,-1,551
 526.899 288.647 526.899 288.647 524.601 288.645 c 128,-1,552
515.584 284.942 m 1,724,-1
 515.791 284.942 l 1,725,-1
 518.662 284.942 l 1,726,-1
 518.857 284.942 l 1,727,-1
 518.857 284.734 l 1,728,-1
 518.857 259.941 l 2,729,730
 518.857 259.787 518.857 259.787 518.949 259.668 c 128,-1,731
 519 259.602 519 259.602 519.066 259.602 c 2,732,-1
 520.301 259.602 l 1,733,-1
 520.521 259.602 l 1,734,-1
 520.521 259.422 l 1,735,-1
 520.521 257.003 l 1,736,-1
 520.521 256.602 l 1,737,-1
 520.301 256.602 l 1,738,-1
 520.118 256.602 l 1,739,-1
 519.066 256.602 l 2,740,741
 517.361 256.602 517.361 256.602 516.479 257.446 c 128,-1,742
 515.584 258.305 515.584 258.305 515.584 259.941 c 2,743,-1
 515.584 284.734 l 1,744,-1
 515.584 284.942 l 1,724,-1
481.708 284.931 m 1,745,-1
 481.903 284.931 l 1,746,-1
 484.774 284.931 l 1,747,-1
 484.969 284.931 l 1,748,-1
 484.969 284.735 l 1,749,-1
 484.969 275.938 l 1,750,751
 486.659 277.262 486.659 277.262 487.919 277.262 c 2,752,-1
 489.569 277.262 l 2,753,754
 491.45 277.262 491.45 277.262 493.143 275.288 c 128,-1,755
 494.832 273.316 494.832 273.316 494.832 267.621 c 2,756,-1
 494.832 266.113 l 2,757,758
 494.832 261.391 494.832 261.391 493.26 259.019 c 128,-1,759
 491.668 256.615 491.668 256.615 488.478 256.615 c 0,760,761
 486.604 256.615 486.604 256.615 484.969 257.472 c 1,762,-1
 484.969 256.811 l 1,763,-1
 484.969 256.615 l 1,764,-1
 484.774 256.615 l 1,765,-1
 481.903 256.615 l 1,766,-1
 481.708 256.615 l 1,767,-1
 481.708 256.811 l 1,768,-1
 481.708 284.735 l 1,769,-1
 481.708 284.931 l 1,745,-1
568.224 284.695 m 1,770,-1
 568.224 242.23 l 1,771,-1
 573.006 242.23 l 1,772,-1
 573.006 284.695 l 1,773,-1
 568.224 284.695 l 1,770,-1
504.525 277.262 m 2,774,-1
 506.045 277.262 l 2,775,776
 507.763 277.262 507.763 277.262 509.438 275.938 c 128,-1,777
 511.164 274.569 511.164 274.569 511.164 271.454 c 2,778,-1
 511.164 257.003 l 1,779,-1
 511.164 256.602 l 1,780,-1
 510.943 256.602 l 1,781,-1
 510.763 256.602 l 1,782,-1
 508.086 256.602 l 1,783,-1
 507.89 256.602 l 1,784,-1
 507.89 256.796 l 1,785,-1
 507.89 257.967 l 1,786,787
 505.979 256.602 505.979 256.602 503.849 256.602 c 0,788,789
 501.187 256.602 501.187 256.602 499.807 258.123 c 128,-1,790
 498.443 259.63 498.443 259.63 498.443 262.566 c 0,791,792
 498.443 265.995 498.443 265.995 500.887 267.906 c 128,-1,793
 503.248 269.756 503.248 269.756 507.89 270.128 c 1,794,-1
 507.89 271.454 l 2,795,796
 507.89 273.002 507.89 273.002 507.099 273.611 c 128,-1,797
 506.254 274.262 506.254 274.262 504.811 274.262 c 128,-1,798
 503.358 274.262 503.358 274.262 502.68 273.521 c 128,-1,799
 501.947 272.72 501.947 272.72 501.719 271.025 c 2,800,-1
 501.694 270.844 l 1,801,-1
 501.512 270.844 l 1,802,-1
 498.641 270.844 l 1,803,-1
 498.419 270.844 l 1,804,-1
 498.443 271.051 l 1,805,806
 498.583 273.557 498.583 273.557 500.146 275.404 c 128,-1,807
 501.717 277.262 501.717 277.262 504.525 277.262 c 2,774,-1
527.862 277.262 m 2,808,-1
 529.384 277.262 l 2,809,810
 531.521 277.262 531.521 277.262 533.295 275.561 c 128,-1,811
 535.077 273.847 535.077 273.847 535.217 270.779 c 1,812,-1
 535.217 270.558 l 1,813,-1
 534.998 270.558 l 1,814,-1
 532.125 270.558 l 1,815,-1
 531.943 270.558 l 1,816,-1
 531.943 270.74 l 1,817,818
 531.812 272.459 531.812 272.459 530.89 273.312 c 128,-1,819
 529.995 274.145 529.995 274.145 528.693 274.145 c 0,820,821
 527.16 274.145 527.16 274.145 526.446 273.495 c 128,-1,822
 525.771 272.88 525.771 272.88 525.771 271.739 c 0,823,824
 525.771 270.284 525.771 270.284 526.512 269.543 c 128,-1,825
 527.228 268.826 527.228 268.826 528.604 268.491 c 2,826,-1
 529.722 268.219 l 2,827,828
 531.579 267.766 531.579 267.766 532.71 267.036 c 128,-1,829
 533.931 266.244 533.931 266.244 534.568 264.97 c 128,-1,830
 535.217 263.67 535.217 263.67 535.217 261.89 c 0,831,832
 535.217 259.352 535.217 259.352 533.541 257.967 c 128,-1,833
 531.889 256.602 531.889 256.602 529.254 256.602 c 128,-1,834
 526.572 256.602 526.572 256.602 524.744 258.146 c 128,-1,835
 522.974 259.648 522.974 259.648 522.612 263.086 c 2,836,-1
 522.589 263.309 l 1,837,-1
 522.809 263.309 l 1,838,-1
 525.707 263.309 l 1,839,-1
 525.863 263.309 l 1,840,-1
 525.888 263.125 l 2,841,842
 526.149 261.161 526.149 261.161 527.004 260.37 c 128,-1,843
 527.836 259.604 527.836 259.604 529.254 259.604 c 128,-1,844
 530.828 259.604 530.828 259.604 531.449 260.162 c 128,-1,845
 532.061 260.713 532.061 260.713 532.061 261.89 c 0,846,847
 532.061 262.821 532.061 262.821 531.879 263.309 c 128,-1,848
 531.688 263.808 531.688 263.808 531.111 264.385 c 128,-1,849
 530.527 264.972 530.527 264.972 529.475 265.1 c 1,850,-1
 528.396 265.372 l 1,851,852
 526.562 265.655 526.562 265.655 524.629 267.036 c 128,-1,853
 522.627 268.466 522.627 268.466 522.627 271.739 c 0,854,855
 522.627 274.164 522.627 274.164 524.252 275.717 c 128,-1,856
 525.867 277.262 525.867 277.262 527.862 277.262 c 2,808,-1
544.911 277.262 m 2,857,-1
 546.393 277.262 l 2,858,859
 548.136 277.262 548.136 277.262 549.81 275.938 c 128,-1,860
 551.552 274.561 551.552 274.561 551.552 271.454 c 2,861,-1
 551.552 257.003 l 1,862,-1
 551.552 256.602 l 1,863,-1
 551.332 256.602 l 1,864,-1
 551.148 256.602 l 1,865,-1
 548.458 256.602 l 1,866,-1
 548.276 256.602 l 1,867,-1
 548.276 256.796 l 1,868,-1
 548.276 257.967 l 1,869,870
 546.365 256.602 546.365 256.602 544.223 256.602 c 0,871,872
 541.531 256.602 541.531 256.602 540.155 258.123 c 128,-1,873
 538.83 259.586 538.83 259.586 538.83 262.566 c 0,874,875
 538.83 266.005 538.83 266.005 541.26 267.906 c 128,-1,876
 543.622 269.755 543.622 269.755 548.276 270.128 c 1,877,-1
 548.276 271.454 l 2,878,879
 548.276 272.971 548.276 272.971 547.445 273.611 c 128,-1,880
 546.601 274.262 546.601 274.262 545.186 274.262 c 128,-1,881
 543.734 274.262 543.734 274.262 543.053 273.521 c 128,-1,882
 542.328 272.729 542.328 272.729 542.066 271.025 c 1,883,-1
 542.066 270.844 l 1,884,-1
 541.884 270.844 l 1,885,-1
 539.013 270.844 l 1,886,-1
 538.791 270.844 l 1,887,-1
 538.829 271.051 l 1,888,889
 538.97 273.605 538.97 273.605 540.49 275.404 c 128,-1,890
 542.062 277.262 542.062 277.262 544.911 277.262 c 2,857,-1
563.961 276.145 m 128,-1,892
 563.893 276.127 563.893 276.127 563.648 275.898 c 128,-1,893
 563.247 275.521 563.247 275.521 563.052 275.521 c 128,-1,894
 562.842 275.521 562.842 275.521 562.675 275.21 c 128,-1,895
 562.53 274.94 562.53 274.94 562.48 268.622 c 128,-1,896
 562.472 262.195 562.472 262.195 562.505 261.825 c 128,-1,897
 562.543 261.454 562.543 261.454 562.543 260.604 c 0,898,899
 562.543 260.44 562.543 260.44 562.523 259.787 c 128,-1,900
 562.505 259.135 562.505 259.135 562.505 258.798 c 0,901,902
 562.498 257.68 562.498 257.68 562.687 257.459 c 128,-1,903
 562.86 257.24 562.86 257.24 562.687 257.135 c 128,-1,904
 562.518 257.03 562.518 257.03 562.518 253.976 c 128,-1,905
 562.518 250.938 562.518 250.938 562.687 250.832 c 128,-1,906
 562.851 250.727 562.851 250.727 562.648 250.48 c 128,-1,907
 562.437 250.227 562.437 250.227 562.558 248.623 c 128,-1,908
 562.674 247.078 562.674 247.078 562.948 245.35 c 128,-1,909
 563.217 243.639 563.217 243.639 563.48 242.555 c 128,-1,910
 563.751 241.445 563.751 241.445 564.169 240.645 c 128,-1,911
 564.585 239.849 564.585 239.849 564.585 239.644 c 128,-1,912
 564.585 239.423 564.585 239.423 564.754 239.423 c 128,-1,913
 564.923 239.423 564.923 239.423 564.923 239.15 c 128,-1,914
 564.923 238.898 564.923 238.898 565.235 238.409 c 128,-1,915
 565.541 237.926 565.541 237.926 565.637 237.852 c 128,-1,916
 565.771 237.748 565.771 237.748 566.053 237.188 c 128,-1,917
 566.357 236.596 566.357 236.596 567.69 235.265 c 128,-1,918
 569.029 233.926 569.029 233.926 569.703 233.406 c 128,-1,919
 570.396 232.875 570.396 232.875 570.927 232.589 c 128,-1,920
 571.411 232.328 571.411 232.328 572.603 231.757 c 128,-1,921
 573.617 231.271 573.617 231.271 574.201 230.951 c 128,-1,922
 574.65 230.701 574.65 230.701 575.474 230.587 c 128,-1,923
 576.28 230.479 576.28 230.479 576.371 230.327 c 128,-1,924
 576.461 230.185 576.461 230.185 577.149 230.185 c 128,-1,925
 577.826 230.185 577.826 230.185 577.826 230.029 c 128,-1,926
 577.826 229.871 577.826 229.871 578.657 229.781 c 128,-1,927
 579.575 229.683 579.575 229.683 580.1 229.586 c 128,-1,928
 580.694 229.483 580.694 229.483 583.935 229.379 c 0,929,930
 584.717 229.354 584.717 229.354 585.526 229.32 c 128,-1,931
 586.337 229.287 586.337 229.287 586.766 229.268 c 0,932,-1
 587.195 229.249 l 0,933,934
 587.226 229.204 587.226 229.204 588.247 229.211 c 0,935,936
 589.999 229.263 589.999 229.263 594.497 229.263 c 0,937,938
 597.375 229.287 597.375 229.287 599.981 229.287 c 0,939,940
 603.291 229.287 603.291 229.287 610.714 229.325 c 0,941,942
 621.187 229.371 621.187 229.371 622.616 229.287 c 128,-1,943
 624.052 229.199 624.052 229.199 625.762 229.312 c 128,-1,944
 627.447 229.433 627.447 229.433 627.606 229.287 c 128,-1,945
 627.759 229.142 627.759 229.142 628.14 229.287 c 128,-1,946
 628.524 229.435 628.524 229.435 628.764 229.287 c 128,-1,947
 629.013 229.135 629.013 229.135 629.113 229.198 c 128,-1,948
 629.238 229.276 629.238 229.276 632.117 229.354 c 128,-1,949
 635.023 229.432 635.023 229.432 635.234 229.562 c 128,-1,950
 635.489 229.716 635.489 229.716 636.196 229.666 c 128,-1,951
 636.932 229.628 636.932 229.628 637.041 229.807 c 128,-1,952
 637.15 229.991 637.15 229.991 637.326 229.887 c 128,-1,953
 637.51 229.776 637.51 229.776 638.404 229.977 c 128,-1,954
 639.257 230.166 639.257 230.166 639.652 230.342 c 128,-1,955
 639.982 230.486 639.982 230.486 640.796 230.691 c 128,-1,956
 641.581 230.887 641.581 230.887 642.159 231.223 c 128,-1,957
 642.736 231.559 642.736 231.559 642.862 231.485 c 128,-1,958
 642.99 231.404 642.99 231.404 643.681 231.822 c 128,-1,959
 644.359 232.234 644.359 232.234 645.07 232.574 c 128,-1,960
 645.771 232.912 645.771 232.912 646.072 233.277 c 128,-1,961
 646.372 233.642 646.372 233.642 646.617 233.642 c 128,-1,962
 646.846 233.642 646.846 233.642 647.748 234.525 c 128,-1,963
 648.637 235.396 648.637 235.396 648.735 235.396 c 128,-1,964
 648.84 235.396 648.84 235.396 649.086 235.643 c 128,-1,965
 649.332 235.888 649.332 235.888 649.332 235.992 c 128,-1,966
 649.332 236.076 649.332 236.076 649.865 236.812 c 128,-1,967
 650.386 237.529 650.386 237.529 650.386 237.735 c 128,-1,968
 650.386 237.938 650.386 237.938 650.906 238.437 c 128,-1,969
 651.425 238.935 651.425 238.935 651.425 239.256 c 128,-1,970
 651.425 239.543 651.425 239.543 651.607 239.657 c 128,-1,971
 651.776 239.764 651.776 239.764 651.776 240.229 c 128,-1,972
 651.776 240.683 651.776 240.683 652.049 240.982 c 128,-1,973
 652.329 241.294 652.329 241.294 652.427 242.049 c 128,-1,974
 652.521 242.804 652.521 242.804 652.699 243.023 c 128,-1,975
 652.877 243.247 652.877 243.247 652.764 243.361 c 128,-1,976
 652.651 243.472 652.651 243.472 652.802 243.66 c 128,-1,977
 652.954 243.846 652.954 243.846 653.257 245.855 c 128,-1,978
 653.58 248.048 653.58 248.048 653.58 253.094 c 2,979,-1
 653.58 259.981 l 2,980,981
 653.58 260.326 653.58 260.326 653.562 262.105 c 128,-1,982
 653.544 263.888 653.544 263.888 653.544 264.893 c 0,983,984
 653.527 268.164 653.527 268.164 653.258 268.687 c 128,-1,985
 652.982 269.22 652.982 269.22 652.828 269.22 c 128,-1,986
 652.675 269.22 652.675 269.22 652.582 269.57 c 128,-1,987
 652.491 269.921 652.491 269.921 652.309 269.921 c 128,-1,988
 652.088 269.921 652.088 269.921 652.088 269.181 c 2,989,-1
 652.088 268.18 l 2,990,991
 652.088 267.55 652.088 267.55 652.125 267.479 c 0,992,993
 652.125 266.319 652.125 266.319 652.088 264.516 c 0,994,995
 652.05 261.972 652.05 261.972 652.167 261.617 c 128,-1,996
 652.28 261.235 652.28 261.235 652.141 260.865 c 128,-1,997
 652.001 260.493 652.001 260.493 652.104 259.447 c 128,-1,998
 652.189 258.408 652.189 258.408 652.104 258.408 c 128,-1,999
 651.998 258.408 651.998 258.408 652.052 256.446 c 0,1000,1001
 652.062 255.977 652.062 255.977 652.079 255.46 c 128,-1,1002
 652.095 254.943 652.095 254.943 652.105 254.645 c 128,-1,1003
 652.117 254.347 652.117 254.347 652.117 254.315 c 128,-1,1004
 652.135 254.115 652.135 254.115 652.039 252.119 c 128,-1,1005
 651.944 250.082 651.944 250.082 652.076 249.493 c 128,-1,1006
 652.207 248.889 652.207 248.889 652.051 248.468 c 128,-1,1007
 651.885 248.032 651.885 248.032 651.817 246.844 c 128,-1,1008
 651.749 245.653 651.749 245.653 651.544 245.283 c 128,-1,1009
 651.298 244.846 651.298 244.846 651.298 244.375 c 128,-1,1010
 651.273 243.842 651.273 243.842 650.894 242.75 c 128,-1,1011
 650.525 241.684 650.525 241.684 650.361 241.347 c 2,1012,-1
 649.737 240.06 l 2,1013,1014
 649.248 239.051 649.248 239.051 648.934 238.683 c 128,-1,1015
 648.607 238.312 648.607 238.312 648.607 238.111 c 128,-1,1016
 648.607 237.935 648.607 237.935 648.271 237.527 c 128,-1,1017
 647.947 237.137 647.947 237.137 647.775 237.137 c 128,-1,1018
 647.599 237.137 647.599 237.137 647.322 236.708 c 128,-1,1019
 647.029 236.259 647.029 236.259 646.438 235.669 c 128,-1,1020
 645.852 235.084 645.852 235.084 645.503 234.966 c 128,-1,1021
 645.168 234.862 645.168 234.862 644.657 234.422 c 128,-1,1022
 644.159 233.993 644.159 233.993 643.969 233.993 c 128,-1,1023
 643.762 233.993 643.762 233.993 643.553 233.745 c 128,-1,1024
 643.336 233.482 643.336 233.482 642.707 233.29 c 128,-1,1025
 642.017 233.076 642.017 233.076 641.72 232.939 c 128,-1,1026
 641.361 232.773 641.361 232.773 640.33 232.42 c 128,-1,1027
 639.291 232.062 639.291 232.062 638.316 231.886 c 128,-1,1028
 637.47 231.734 637.47 231.734 636.835 231.64 c 0,1029,1030
 636.408 231.578 636.408 231.578 635.873 231.471 c 0,1031,1032
 635.547 231.407 635.547 231.407 634.65 231.289 c 128,-1,1033
 633.853 231.184 633.853 231.184 633.273 231.03 c 128,-1,1034
 632.666 230.871 632.666 230.871 632.572 231.005 c 128,-1,1035
 632.496 231.108 632.496 231.108 630.391 231.108 c 128,-1,1036
 628.287 231.086 628.287 231.086 627.984 230.952 c 128,-1,1037
 627.687 230.822 627.687 230.822 627.687 231.005 c 128,-1,1038
 627.687 231.16 627.687 231.16 623.086 231.16 c 128,-1,1039
 618.521 231.145 618.521 231.145 618.305 231.278 c 128,-1,1040
 618.114 231.379 618.114 231.379 618.031 231.252 c 128,-1,1041
 617.95 231.123 617.95 231.123 609.897 231.123 c 128,-1,1042
 601.848 231.131 601.848 231.131 601.763 230.992 c 128,-1,1043
 601.669 230.869 601.669 230.869 601.464 230.992 c 128,-1,1044
 601.27 231.115 601.27 231.115 592.277 231.161 c 0,1045,1046
 591.473 231.187 591.473 231.187 589.898 231.187 c 0,1047,1048
 583.037 231.236 583.037 231.236 581.816 231.304 c 128,-1,1049
 580.42 231.389 580.42 231.389 578.945 231.668 c 2,1050,-1
 576.684 232.096 l 2,1051,1052
 575.867 232.25 575.867 232.25 575.294 232.511 c 2,1053,-1
 573.748 233.214 l 2,1054,1055
 572.728 233.678 572.728 233.678 572.564 233.578 c 128,-1,1056
 572.408 233.477 572.408 233.477 572.408 233.668 c 128,-1,1057
 572.408 233.862 572.408 233.862 571.837 234.11 c 128,-1,1058
 571.271 234.356 571.271 234.356 570.863 234.799 c 128,-1,1059
 570.451 235.242 570.451 235.242 570.252 235.242 c 128,-1,1060
 570.06 235.242 570.06 235.242 569.277 236.06 c 128,-1,1061
 568.495 236.877 568.495 236.877 567.691 237.957 c 128,-1,1062
 566.916 239 566.916 239 566.562 239.697 c 128,-1,1063
 566.216 240.377 566.216 240.377 566.082 240.438 c 128,-1,1064
 565.951 240.5 565.951 240.5 565.951 240.698 c 128,-1,1065
 565.951 240.891 565.951 240.891 565.665 241.426 c 128,-1,1066
 565.399 241.924 565.399 241.924 565.054 243.088 c 128,-1,1067
 564.73 244.188 564.73 244.188 564.664 244.57 c 128,-1,1068
 564.604 244.912 564.604 244.912 564.469 245.792 c 128,-1,1069
 564.337 246.651 564.337 246.651 564.234 246.831 c 128,-1,1070
 564.132 247.008 564.132 247.008 564.08 249.625 c 0,1071,1072
 564.027 252.632 564.027 252.632 564.027 254.148 c 0,1073,1074
 564.027 256.041 564.027 256.041 564.093 256.109 c 128,-1,1075
 564.162 256.18 564.162 256.18 564.027 256.798 c 128,-1,1076
 563.906 257.433 563.906 257.433 564.053 257.94 c 128,-1,1077
 564.204 258.477 564.204 258.477 564.091 258.656 c 128,-1,1078
 563.961 258.898 563.961 258.898 564.013 260.775 c 0,1079,1080
 564.038 261.686 564.038 261.686 564.038 263.31 c 0,1081,1082
 564.038 263.446 564.038 263.446 564.024 264.051 c 128,-1,1083
 564.013 264.653 564.013 264.653 564.013 264.971 c 2,1084,-1
 564.013 268.453 l 1,1085,-1
 564.013 272.639 l 2,1086,1087
 564.013 274.438 564.013 274.438 564.051 274.562 c 128,-1,1088
 564.074 274.644 564.074 274.644 564.074 275.51 c 0,1089,1090
 564.063 275.918 564.063 275.918 564.047 276.041 c 128,-1,891
 564.027 276.163 564.027 276.163 563.961 276.145 c 128,-1,892
456.382 274.286 m 1,1091,-1
 471.884 274.286 l 1,1092,-1
 471.884 270.038 l 1,1093,-1
 456.382 270.038 l 1,1094,-1
 456.382 274.286 l 1,1091,-1
488.75 274.131 m 0,1095,1096
 490.255 274.131 490.255 274.131 491.024 272.559 c 128,-1,1097
 491.83 270.907 491.83 270.907 491.83 267.621 c 2,1098,-1
 491.83 266.256 l 2,1099,1100
 491.83 262.898 491.83 262.898 490.958 261.215 c 128,-1,1101
 490.127 259.604 490.127 259.604 488.478 259.604 c 0,1102,1103
 486.552 259.604 486.552 259.604 484.969 260.89 c 1,1104,-1
 484.969 272.57 l 1,1105,1106
 486.948 274.131 486.948 274.131 488.75 274.131 c 0,1095,1096
458.928 267.218 m 1,1107,-1
 458.357 261.969 l 2,1108,1109
 457.461 253.72 457.461 253.72 453.126 245.777 c 0,1110,1111
 448.953 238.133 448.953 238.133 442.607 233.302 c 1,1112,1113
 437.227 229.369 437.227 229.369 431.535 227.638 c 1,1114,-1
 431.535 215.995 l 1,1115,1116
 446.77 220.089 446.77 220.089 457.358 232.911 c 128,-1,1117
 467.947 245.733 467.947 245.733 469.57 261.969 c 1,1118,-1
 458.928 267.218 l 1,1107,-1
507.89 266.983 m 0,1119,-1
 507.89 261.45 l 1,1120,1121
 505.76 259.604 505.76 259.604 504.253 259.604 c 128,-1,1122
 502.928 259.604 502.928 259.604 502.251 260.346 c 128,-1,1123
 501.562 261.09 501.562 261.09 501.562 262.541 c 2,1124,-1
 501.562 262.566 l 2,1125,1126
 501.562 264.366 501.562 264.366 503.238 265.528 c 128,-1,1127
 504.824 266.63 504.824 266.63 507.89 266.983 c 0,1119,-1
548.276 266.983 m 0,1128,-1
 548.276 261.45 l 1,1129,1130
 546.145 259.604 546.145 259.604 544.625 259.604 c 128,-1,1131
 543.301 259.604 543.301 259.604 542.623 260.346 c 128,-1,1132
 541.948 261.079 541.948 261.079 541.948 262.541 c 2,1133,-1
 541.948 262.566 l 2,1134,1135
 541.948 264.374 541.948 264.374 543.611 265.528 c 128,-1,1136
 545.195 266.629 545.195 266.629 548.276 266.983 c 0,1128,-1
358.195 259.175 m 128,-1,1138
 358.068 259.175 358.068 259.175 357.572 258.759 c 128,-1,1139
 357.068 258.334 357.068 258.334 356.936 258.277 c 128,-1,1140
 356.792 258.218 356.792 258.218 356.441 257.694 c 128,-1,1141
 356.086 257.178 356.086 257.178 356.117 250.508 c 128,-1,1142
 356.147 243.866 356.147 243.866 356.26 243.686 c 128,-1,1143
 356.376 243.498 356.376 243.498 356.209 243.399 c 128,-1,1144
 356.041 243.3 356.041 243.3 356.131 240.385 c 128,-1,1145
 356.222 237.476 356.222 237.476 356.222 237.201 c 2,1146,-1
 356.222 236.24 l 2,1147,1148
 356.222 236.06 356.222 236.06 356.209 235.497 c 128,-1,1149
 356.196 234.933 356.196 234.933 356.196 234.68 c 128,-1,1150
 356.172 234.269 356.172 234.269 356.172 227.442 c 2,1151,-1
 356.172 220.815 l 2,1152,1153
 356.172 220.551 356.172 220.551 356.134 218.32 c 128,-1,1154
 356.089 216.104 356.089 216.104 356.212 216.06 c 128,-1,1155
 356.337 216.015 356.337 216.015 356.16 215.383 c 128,-1,1156
 355.998 214.728 355.998 214.728 356.16 213.291 c 128,-1,1157
 356.342 211.845 356.342 211.845 356.238 211.68 c 128,-1,1158
 356.141 211.521 356.141 211.521 356.056 210.42 c 128,-1,1159
 355.975 209.288 355.975 209.288 356.16 208.783 c 128,-1,1160
 356.348 208.264 356.348 208.264 356.226 208.185 c 128,-1,1161
 356.108 208.111 356.108 208.111 356.108 205.262 c 0,1162,1163
 356.108 203.125 356.108 203.125 356.484 202.766 c 128,-1,1164
 356.861 202.408 356.861 202.408 359.122 202.391 c 0,1165,1166
 362.131 202.367 362.131 202.367 362.241 202.26 c 128,-1,1167
 362.411 202.1 362.411 202.1 362.54 202.297 c 2,1168,-1
 362.564 202.334 l 2,1169,1170
 362.658 202.476 362.658 202.476 364.15 202.412 c 128,-1,1171
 365.646 202.348 365.646 202.348 365.814 202.348 c 128,-1,1172
 366.147 202.328 366.147 202.328 369.387 202.373 c 128,-1,1173
 372.707 202.417 372.707 202.417 372.948 202.606 c 1,1174,-1
 373.065 202.582 l 1,1175,1176
 373.074 202.45 373.074 202.45 373.779 202.346 c 0,1177,1178
 374.698 202.346 374.698 202.346 374.793 202.372 c 128,-1,1179
 374.901 202.408 374.901 202.408 377.066 202.408 c 128,-1,1180
 379.182 202.394 379.182 202.394 379.327 202.357 c 128,-1,1181
 379.496 202.305 379.496 202.305 379.666 202.357 c 2,1182,-1
 386.553 202.357 l 2,1183,1184
 387.115 202.357 387.115 202.357 389.936 202.348 c 0,1185,1186
 391.698 202.342 391.698 202.342 392.736 202.336 c 128,-1,1187
 393.775 202.333 393.775 202.333 393.882 202.333 c 2,1188,-1
 395.714 202.333 l 1,1189,-1
 397.896 202.333 l 2,1190,1191
 397.986 202.333 397.986 202.333 399.557 202.339 c 128,-1,1192
 401.129 202.345 401.129 202.345 403.623 202.352 c 128,-1,1193
 406.118 202.357 406.118 202.357 408.448 202.357 c 0,1194,1195
 411.596 202.357 411.596 202.357 415.863 202.363 c 128,-1,1196
 420.131 202.371 420.131 202.371 420.221 202.371 c 2,1197,-1
 422.651 202.371 l 2,1198,1199
 422.681 202.371 422.681 202.371 423.049 202.365 c 128,-1,1200
 423.418 202.363 423.418 202.363 423.992 202.359 c 128,-1,1201
 424.566 202.357 424.566 202.357 425.094 202.357 c 2,1202,-1
 446.105 202.357 l 2,1203,1204
 450.665 202.357 450.665 202.357 455.624 202.359 c 128,-1,1205
 460.581 202.363 460.581 202.363 463.765 202.365 c 128,-1,1206
 466.947 202.371 466.947 202.371 467.208 202.371 c 0,1207,1208
 469.562 202.387 469.562 202.387 470.171 202.421 c 128,-1,1209
 470.875 202.451 470.875 202.451 471.094 202.59 c 128,-1,1210
 471.314 202.726 471.314 202.726 471.314 202.539 c 128,-1,1211
 471.314 202.355 471.314 202.355 471.705 202.355 c 128,-1,1212
 472.099 202.355 472.099 202.355 472.342 202.512 c 128,-1,1213
 472.566 202.654 472.566 202.654 472.602 210.361 c 128,-1,1214
 472.616 218.055 472.616 218.055 472.471 218.055 c 128,-1,1215
 472.322 218.055 472.322 218.055 472.446 218.248 c 128,-1,1216
 472.603 218.496 472.603 218.496 472.55 222.042 c 0,1217,1218
 472.524 223.739 472.524 223.739 472.524 225.98 c 2,1219,-1
 472.524 229.553 l 1,1220,-1
 472.524 233.087 l 1,1221,-1
 472.524 233.79 l 2,1222,1223
 472.524 233.816 472.524 233.816 472.538 234.527 c 128,-1,1224
 472.55 235.24 472.55 235.24 472.55 235.752 c 2,1225,-1
 472.55 237.753 l 2,1226,1227
 472.55 237.778 472.55 237.778 472.538 238.593 c 128,-1,1228
 472.524 239.408 472.524 239.408 472.524 240.001 c 0,1229,1230
 472.509 241.828 472.509 241.828 472.603 242.133 c 128,-1,1231
 472.696 242.427 472.696 242.427 472.524 242.535 c 128,-1,1232
 472.362 242.625 472.362 242.625 472.46 243.341 c 128,-1,1233
 472.551 244.028 472.551 244.028 472.265 244.028 c 128,-1,1234
 471.979 244.028 471.979 244.028 471.979 244.367 c 128,-1,1235
 471.979 244.705 471.979 244.705 471.719 244.965 c 128,-1,1236
 471.459 245.22 471.459 245.22 471.459 245.42 c 128,-1,1237
 471.459 245.602 471.459 245.602 471.212 245.602 c 128,-1,1238
 470.961 245.602 470.961 245.602 470.849 245.952 c 128,-1,1239
 470.74 246.304 470.74 246.304 470.602 246.304 c 128,-1,1240
 470.451 246.304 470.451 246.304 470.355 246.668 c 0,1241,1242
 470.313 246.82 470.313 246.82 470.239 246.895 c 128,-1,1243
 470.165 246.971 470.165 246.971 470.096 246.928 c 128,-1,1244
 469.917 246.818 469.917 246.818 469.965 240.326 c 128,-1,1245
 469.995 233.849 469.995 233.849 469.771 232.179 c 128,-1,1246
 469.536 230.421 469.536 230.421 469.38 229.904 c 128,-1,1247
 469.199 229.295 469.199 229.295 469.199 228.904 c 128,-1,1248
 469.199 228.497 469.199 228.497 468.848 227.773 c 128,-1,1249
 468.496 227.042 468.496 227.042 468.496 226.89 c 128,-1,1250
 468.496 226.727 468.496 226.727 467.509 224.693 c 128,-1,1251
 466.509 222.637 466.509 222.637 466.509 222.589 c 128,-1,1252
 466.493 222.511 466.493 222.511 466.08 222.069 c 2,1253,-1
 465.34 221.277 l 2,1254,1255
 465.014 220.928 465.014 220.928 465.014 220.757 c 128,-1,1256
 465.014 220.606 465.014 220.606 463.869 219.496 c 128,-1,1257
 462.74 218.398 462.74 218.398 462.74 218.223 c 128,-1,1258
 462.74 218.055 462.74 218.055 462.389 218.055 c 128,-1,1259
 462.039 218.055 462.039 218.055 462.039 217.859 c 128,-1,1260
 462.039 217.661 462.039 217.661 461.558 217.248 c 128,-1,1261
 461.073 216.832 461.073 216.832 460.869 216.832 c 128,-1,1262
 460.673 216.832 460.673 216.832 460.531 216.611 c 128,-1,1263
 460.387 216.385 460.387 216.385 459.946 216.144 c 2,1264,-1
 458.998 215.624 l 2,1265,1266
 458.466 215.333 458.466 215.333 458.388 215.233 c 128,-1,1267
 458.3 215.127 458.3 215.127 456.775 214.403 c 128,-1,1268
 455.256 213.681 455.256 213.681 454.723 213.572 c 128,-1,1269
 454.186 213.466 454.186 213.466 454.1 213.324 c 128,-1,1270
 454.003 213.168 454.003 213.168 453.501 213.168 c 128,-1,1271
 453.02 213.168 453.02 213.168 452.941 212.96 c 128,-1,1272
 452.875 212.759 452.875 212.759 452.449 212.713 c 128,-1,1273
 451.997 212.656 451.997 212.656 451.148 212.466 c 128,-1,1274
 450.426 212.304 450.426 212.304 448.615 212.023 c 128,-1,1275
 446.994 211.775 446.994 211.775 445.913 211.713 c 128,-1,1276
 444.887 211.66 444.887 211.66 444.561 211.518 c 128,-1,1277
 444.263 211.387 444.263 211.387 444.263 211.596 c 128,-1,1278
 444.263 211.807 444.263 211.807 443.859 211.674 c 128,-1,1279
 443.524 211.551 443.524 211.551 437.895 211.596 c 0,1280,1281
 436.625 211.606 436.625 211.606 435.093 211.62 c 128,-1,1282
 433.561 211.632 433.561 211.632 432.735 211.64 c 128,-1,1283
 431.91 211.648 431.91 211.648 431.788 211.648 c 0,1284,1285
 431.25 211.655 431.25 211.655 430.138 211.61 c 0,1286,1287
 428.67 211.562 428.67 211.562 418.832 211.675 c 0,1288,1289
 408.621 211.785 408.621 211.785 408.086 211.637 c 128,-1,1290
 407.529 211.463 407.529 211.463 407.216 211.637 c 128,-1,1291
 406.91 211.812 406.91 211.812 406.229 211.637 c 128,-1,1292
 405.539 211.45 405.539 211.45 405.539 211.572 c 128,-1,1293
 405.539 211.695 405.539 211.695 404.11 211.65 c 128,-1,1294
 402.696 211.6 402.696 211.6 401.811 211.6 c 128,-1,1295
 400.947 211.6 400.947 211.6 400.81 211.689 c 128,-1,1296
 400.662 211.775 400.662 211.775 400.342 211.6 c 128,-1,1297
 400.021 211.42 400.021 211.42 399.912 211.533 c 128,-1,1298
 399.843 211.604 399.843 211.604 398.664 211.65 c 128,-1,1299
 397.521 211.68 397.521 211.68 397.521 211.533 c 128,-1,1300
 397.521 211.372 397.521 211.372 397.274 211.469 c 128,-1,1301
 396.954 211.584 396.954 211.584 395.664 211.584 c 2,1302,-1
 388.595 211.584 l 2,1303,1304
 382.85 211.584 382.85 211.584 382.41 211.754 c 128,-1,1305
 381.935 211.919 381.935 211.919 381.461 211.754 c 128,-1,1306
 380.987 211.587 380.987 211.587 380.889 211.689 c 128,-1,1307
 380.787 211.789 380.787 211.789 379.953 211.859 c 128,-1,1308
 379.151 211.932 379.151 211.932 378.057 212.287 c 128,-1,1309
 376.987 212.632 376.987 212.632 376.835 212.587 c 128,-1,1310
 376.698 212.553 376.698 212.553 375.64 212.859 c 128,-1,1311
 374.55 213.178 374.55 213.178 374.041 213.404 c 128,-1,1312
 373.501 213.651 373.501 213.651 373.3 213.651 c 128,-1,1313
 373.129 213.651 373.129 213.651 372.807 213.834 c 128,-1,1314
 372.567 213.969 372.567 213.969 371.884 214.263 c 128,-1,1315
 371.285 214.522 371.285 214.522 371.014 214.678 c 2,1316,-1
 370.402 215.029 l 2,1317,1318
 370.006 215.257 370.006 215.257 369.752 215.342 c 128,-1,1319
 369.441 215.448 369.441 215.448 369.441 215.575 c 128,-1,1320
 369.441 215.719 369.441 215.719 368.974 215.834 c 128,-1,1321
 368.494 215.955 368.494 215.955 367.921 216.457 c 128,-1,1322
 367.329 216.978 367.329 216.978 367.089 216.978 c 128,-1,1323
 366.828 216.978 366.828 216.978 366.828 217.159 c 128,-1,1324
 366.828 217.354 366.828 217.354 366.439 217.68 c 128,-1,1325
 366.034 218.018 366.034 218.018 365.919 218.018 c 128,-1,1326
 365.779 218.025 365.779 218.025 364.867 218.953 c 128,-1,1327
 363.974 219.862 363.974 219.862 363.387 220.565 c 128,-1,1328
 362.827 221.231 362.827 221.231 362.15 222.293 c 128,-1,1329
 361.467 223.365 361.467 223.365 361.124 224.033 c 128,-1,1330
 360.835 224.595 360.835 224.595 360.189 225.957 c 128,-1,1331
 359.594 227.211 359.594 227.211 359.565 227.348 c 2,1332,-1
 359.423 228.023 l 2,1333,1334
 359.312 228.547 359.312 228.547 359.149 228.855 c 128,-1,1335
 358.97 229.191 358.97 229.191 358.877 229.738 c 0,1336,1337
 358.832 229.982 358.832 229.982 358.746 230.83 c 0,1338,1339
 358.723 231.355 358.723 231.355 358.564 231.466 c 128,-1,1340
 358.423 231.566 358.423 231.566 358.369 233.481 c 0,1341,1342
 358.305 236.184 358.305 236.184 358.305 240.252 c 2,1343,-1
 358.305 247.099 l 2,1344,1345
 358.305 249.081 358.305 249.081 358.214 249.229 c 128,-1,1346
 358.116 249.381 358.116 249.381 358.292 249.49 c 128,-1,1347
 358.467 249.601 358.467 249.601 358.383 250.244 c 128,-1,1348
 358.305 250.818 358.305 250.818 358.305 252.115 c 2,1349,-1
 358.305 254.024 l 1,1350,-1
 358.305 256.117 l 2,1351,1352
 358.305 257.521 358.305 257.521 358.369 257.91 c 128,-1,1353
 358.442 258.273 358.442 258.273 358.292 258.378 c 128,-1,1354
 358.144 258.466 358.144 258.466 358.24 258.819 c 128,-1,1137
 358.335 259.17 358.335 259.17 358.195 259.175 c 128,-1,1138
507.865 251.637 m 1,1355,-1
 507.865 251.456 l 1,1356,-1
 507.865 246.635 l 1,1357,-1
 507.865 246.454 l 1,1358,-1
 508.046 246.454 l 1,1359,-1
 510.736 246.454 l 1,1360,-1
 510.919 246.454 l 1,1361,-1
 511.139 246.454 l 1,1362,-1
 511.139 246.856 l 1,1363,-1
 511.139 251.456 l 1,1364,-1
 511.139 251.637 l 1,1365,-1
 510.919 251.637 l 1,1366,-1
 508.046 251.637 l 1,1367,-1
 507.865 251.637 l 1,1355,-1
482.332 243.983 m 1,1368,-1
 482.332 243.764 l 1,1369,-1
 482.332 223.518 l 1,1370,-1
 482.332 223.297 l 1,1371,-1
 482.551 223.297 l 1,1372,-1
 485.294 223.297 l 1,1373,-1
 485.488 223.297 l 1,1374,-1
 485.488 223.518 l 1,1375,-1
 485.488 239.723 l 1,1376,1377
 486.502 240.956 486.502 240.956 488.451 240.956 c 0,1378,1379
 489.65 240.956 489.65 240.956 490.387 240.527 c 128,-1,1380
 491.103 240.108 491.103 240.108 491.103 238.852 c 2,1381,-1
 491.103 223.518 l 1,1382,-1
 491.103 223.297 l 1,1383,-1
 491.322 223.297 l 1,1384,-1
 494.039 223.297 l 1,1385,-1
 494.247 223.297 l 1,1386,-1
 494.247 223.518 l 1,1387,-1
 494.247 239.696 l 1,1388,1389
 495.543 240.956 495.543 240.956 497.456 240.956 c 0,1390,1391
 498.918 240.956 498.918 240.956 499.471 240.527 c 128,-1,1392
 499.99 240.121 499.99 240.121 499.99 238.852 c 2,1393,-1
 499.99 223.518 l 1,1394,-1
 499.99 223.297 l 1,1395,-1
 500.211 223.297 l 1,1396,-1
 502.887 223.297 l 1,1397,-1
 503.082 223.297 l 1,1398,-1
 503.291 223.297 l 1,1399,-1
 503.291 223.7 l 1,1400,-1
 503.291 238.852 l 2,1401,1402
 503.291 241.523 503.291 241.523 501.848 242.75 c 128,-1,1403
 500.396 243.983 500.396 243.983 498.976 243.983 c 2,1404,-1
 497.456 243.983 l 2,1405,1406
 495.096 243.983 495.096 243.983 493.232 242.218 c 1,1407,1408
 492.609 243.056 492.609 243.056 491.816 243.451 c 0,1409,1410
 490.751 243.983 490.751 243.983 489.646 243.983 c 2,1411,-1
 488.451 243.983 l 2,1412,1413
 486.701 243.983 486.701 243.983 485.488 243.022 c 1,1414,-1
 485.488 243.764 l 1,1415,-1
 485.488 243.983 l 1,1416,-1
 485.294 243.983 l 1,1417,-1
 482.551 243.983 l 1,1418,-1
 482.332 243.983 l 1,1368,-1
507.865 243.983 m 1,1419,-1
 507.865 243.764 l 1,1420,-1
 507.865 223.518 l 1,1421,-1
 507.865 223.297 l 1,1422,-1
 508.046 223.297 l 1,1423,-1
 510.736 223.297 l 1,1424,-1
 510.919 223.297 l 1,1425,-1
 511.139 223.297 l 1,1426,-1
 511.139 223.7 l 1,1427,-1
 511.139 243.764 l 1,1428,-1
 511.139 243.983 l 1,1429,-1
 510.919 243.983 l 1,1430,-1
 508.046 243.983 l 1,1431,-1
 507.865 243.983 l 1,1419,-1
515.543 243.983 m 1,1432,-1
 515.543 243.764 l 1,1433,-1
 515.543 223.518 l 1,1434,-1
 515.543 223.297 l 1,1435,-1
 515.766 223.297 l 1,1436,-1
 518.481 223.297 l 1,1437,-1
 518.702 223.297 l 1,1438,-1
 518.702 223.518 l 1,1439,-1
 518.702 238.514 l 1,1440,1441
 519.465 239.514 519.465 239.514 520.392 240.242 c 128,-1,1442
 521.303 240.956 521.303 240.956 522.744 240.956 c 0,1443,1444
 523.937 240.956 523.937 240.956 524.562 240.58 c 128,-1,1445
 525.147 240.229 525.147 240.229 525.147 238.852 c 2,1446,-1
 525.147 223.518 l 1,1447,-1
 525.147 223.297 l 1,1448,-1
 525.343 223.297 l 1,1449,-1
 527.862 223.297 l 1,1450,-1
 528.084 223.297 l 1,1451,-1
 528.266 223.297 l 1,1452,-1
 528.266 223.7 l 1,1453,-1
 528.266 239.385 l 2,1454,1455
 528.266 241.522 528.266 241.522 526.967 242.75 c 128,-1,1456
 525.66 243.983 525.66 243.983 524.107 243.983 c 2,1457,-1
 522.588 243.983 l 2,1458,1459
 521.392 243.983 521.392 243.983 520.613 243.673 c 128,-1,1460
 519.859 243.371 519.859 243.371 519.262 242.906 c 0,1461,1462
 519.145 242.813 519.145 242.813 518.702 242.256 c 1,1463,-1
 518.702 243.764 l 1,1464,-1
 518.702 243.983 l 1,1465,-1
 518.481 243.983 l 1,1466,-1
 515.766 243.983 l 1,1467,-1
 515.543 243.983 l 1,1432,-1
538.674 243.983 m 2,1468,1469
 536.252 243.983 536.252 243.983 534.32 241.698 c 128,-1,1470
 532.437 239.464 532.437 239.464 532.437 234.875 c 2,1471,-1
 532.437 232.562 l 2,1472,1473
 532.437 228.504 532.437 228.504 534.527 225.923 c 128,-1,1474
 536.658 223.297 536.658 223.297 540.155 223.297 c 0,1475,1476
 542.241 223.297 542.241 223.297 544.041 224.376 c 128,-1,1477
 545.769 225.414 545.769 225.414 546.393 227.832 c 2,1478,-1
 546.456 228.078 l 1,1479,-1
 546.21 228.078 l 1,1480,-1
 543.183 228.078 l 1,1481,-1
 543.053 228.078 l 1,1482,-1
 542.987 227.988 l 1,1483,1484
 542.584 227.183 542.584 227.183 541.974 226.754 c 128,-1,1485
 541.368 226.33 541.368 226.33 540.18 226.324 c 0,1486,1487
 537.953 226.465 537.953 226.465 536.855 228.078 c 128,-1,1488
 535.789 229.647 535.789 229.647 535.62 232.226 c 1,1489,-1
 546.327 232.226 l 1,1490,-1
 546.51 232.226 l 1,1491,-1
 546.51 232.406 l 1,1492,-1
 546.51 234.875 l 2,1493,1494
 546.51 239.484 546.51 239.484 544.574 241.698 c 128,-1,1495
 542.572 243.983 542.572 243.983 540.312 243.983 c 2,1496,-1
 538.674 243.983 l 2,1468,1469
539.48 240.956 m 128,-1,1498
 541.311 240.956 541.311 240.956 542.352 239.592 c 128,-1,1499
 543.325 238.312 543.325 238.312 543.234 235.213 c 1,1500,-1
 535.62 235.213 l 1,1501,1502
 535.668 238.08 535.668 238.08 536.699 239.475 c 128,-1,1497
 537.794 240.956 537.794 240.956 539.48 240.956 c 128,-1,1498
554.41 235.044 m 1,1503,-1
 554.41 163.237 l 2,1504,1505
 554.41 153.28 554.41 153.28 560.044 145.438 c 128,-1,1506
 565.678 137.599 565.678 137.599 574.98 134.014 c 1,1507,-1
 574.98 145.786 l 1,1508,1509
 570.104 148.834 570.104 148.834 567.648 152.901 c 128,-1,1510
 565.195 156.968 565.195 156.968 565.195 163.237 c 2,1511,-1
 565.195 193.462 l 1,1512,-1
 565.195 206.521 l 1,1513,-1
 565.195 217.164 l 1,1514,-1
 565.195 235.044 l 1,1515,-1
 554.41 235.044 l 1,1503,-1
569.614 228.819 m 1,1516,-1
 569.614 183.418 l 2,1517,1518
 569.614 168.908 569.614 168.908 578.338 158.033 c 128,-1,1519
 587.062 147.158 587.062 147.158 600.969 144.396 c 1,1520,-1
 600.969 154.752 l 1,1521,1522
 595.419 155.992 595.419 155.992 590.47 159.859 c 0,1523,1524
 589.146 160.891 589.146 160.891 587.637 162.418 c 0,1525,1526
 586.926 163.131 586.926 163.131 586.078 164.121 c 0,1527,1528
 586.062 164.137 586.062 164.137 586.01 164.186 c 128,-1,1529
 585.958 164.234 585.958 164.234 585.936 164.264 c 0,1530,1531
 585.285 165.031 585.285 165.031 584.09 166.812 c 0,1532,1533
 582.072 169.811 582.072 169.811 581.256 172.062 c 0,1534,1535
 579.682 176.415 579.682 176.415 579.828 181.715 c 1,1536,-1
 579.828 214.487 l 1,1537,-1
 579.828 225.272 l 1,1538,1539
 574.81 227.788 574.81 227.788 569.614 228.819 c 1,1516,-1
585.271 225.559 m 128,-1,1541
 585.015 225.507 585.015 225.507 584.66 225.051 c 128,-1,1542
 584.376 224.688 584.376 224.688 583.778 224.013 c 0,1543,1544
 583.383 223.565 583.383 223.565 583.324 222.99 c 128,-1,1545
 583.266 222.414 583.266 222.414 583.296 219.36 c 0,1546,1547
 583.309 218.39 583.309 218.39 583.321 217.342 c 128,-1,1548
 583.334 216.294 583.334 216.294 583.341 215.732 c 128,-1,1549
 583.349 215.17 583.349 215.17 583.349 215.137 c 0,1550,1551
 583.361 214.825 583.361 214.825 583.312 212.434 c 128,-1,1552
 583.267 209.893 583.267 209.893 583.402 209.601 c 128,-1,1553
 583.541 209.303 583.541 209.303 583.365 209.303 c 128,-1,1554
 583.191 209.303 583.191 209.303 583.273 204.365 c 0,1555,1556
 583.348 199.643 583.348 199.643 583.442 197.218 c 128,-1,1557
 583.533 194.972 583.533 194.972 583.69 194.684 c 128,-1,1558
 583.84 194.399 583.84 194.399 583.963 193.515 c 128,-1,1559
 584.077 192.662 584.077 192.662 584.197 192.566 c 128,-1,1560
 584.318 192.472 584.318 192.472 584.742 191.162 c 128,-1,1561
 585.165 189.854 585.165 189.854 585.834 188.551 c 128,-1,1562
 586.496 187.252 586.496 187.252 586.496 187.03 c 128,-1,1563
 586.496 186.796 586.496 186.796 586.665 186.796 c 128,-1,1564
 586.845 186.796 586.845 186.796 587.445 185.887 c 128,-1,1565
 588.033 184.994 588.033 184.994 588.276 184.691 c 128,-1,1566
 588.496 184.42 588.496 184.42 588.979 184.106 c 128,-1,1567
 589.459 183.793 589.459 183.793 589.459 183.471 c 128,-1,1568
 589.459 183.131 589.459 183.131 589.68 183.131 c 128,-1,1569
 589.901 183.131 589.901 183.131 590.512 182.508 c 128,-1,1570
 591.143 181.866 591.143 181.866 591.812 181.443 c 128,-1,1571
 592.532 180.984 592.532 180.984 593.032 180.585 c 2,1572,-1
 593.748 180.014 l 2,1573,1574
 593.914 179.881 593.914 179.881 594.359 179.74 c 128,-1,1575
 594.779 179.611 594.779 179.611 594.878 179.454 c 128,-1,1576
 594.971 179.307 594.971 179.307 595.527 179.26 c 128,-1,1577
 596.069 179.221 596.069 179.221 596.151 178.908 c 128,-1,1578
 596.23 178.609 596.23 178.609 596.606 178.609 c 128,-1,1579
 596.961 178.609 596.961 178.609 597.619 178.285 c 128,-1,1580
 598.254 177.969 598.254 177.969 599.141 177.74 c 128,-1,1581
 600.005 177.515 600.005 177.515 600.166 177.375 c 128,-1,1582
 600.316 177.238 600.316 177.238 600.557 177.338 c 128,-1,1583
 600.796 177.428 600.796 177.428 601.011 177.246 c 128,-1,1584
 601.229 177.066 601.229 177.066 603.324 176.767 c 128,-1,1585
 605.461 176.464 605.461 176.464 607.157 176.389 c 128,-1,1586
 608.895 176.311 608.895 176.311 608.925 176.285 c 128,-1,1587
 608.955 176.24 608.955 176.24 611.278 176.31 c 0,1588,1589
 611.817 176.317 611.817 176.317 613.322 176.323 c 128,-1,1590
 614.826 176.332 614.826 176.332 617.053 176.342 c 128,-1,1591
 619.279 176.352 619.279 176.352 620.933 176.362 c 0,1592,1593
 628.247 176.392 628.247 176.392 628.378 176.597 c 1,1594,-1
 628.507 176.621 l 1,1595,1596
 628.507 176.438 628.507 176.438 630.041 176.479 c 0,1597,1598
 632.67 176.529 632.67 176.529 633.276 176.529 c 0,1599,1600
 635.001 176.547 635.001 176.547 635.108 176.479 c 128,-1,1601
 635.236 176.41 635.236 176.41 636.591 176.516 c 128,-1,1602
 637.938 176.648 637.938 176.648 638.02 176.567 c 128,-1,1603
 638.065 176.522 638.065 176.522 640.318 176.476 c 128,-1,1604
 642.606 176.446 642.606 176.446 643.126 176.555 c 128,-1,1605
 643.688 176.671 643.688 176.671 643.762 176.555 c 128,-1,1606
 643.823 176.457 643.823 176.457 656.238 176.411 c 128,-1,1607
 668.612 176.382 668.612 176.382 668.764 176.308 c 128,-1,1608
 668.869 176.248 668.869 176.248 670.362 176.398 c 128,-1,1609
 671.803 176.555 671.803 176.555 672.533 176.555 c 128,-1,1610
 673.227 176.555 673.227 176.555 673.416 176.711 c 128,-1,1611
 673.629 176.893 673.629 176.893 674.053 176.893 c 2,1612,-1
 674.884 176.893 l 2,1613,1614
 675.288 176.893 675.288 176.893 675.82 177.166 c 128,-1,1615
 676.35 177.432 676.35 177.432 676.664 177.348 c 128,-1,1616
 676.986 177.264 676.986 177.264 677.729 177.619 c 128,-1,1617
 678.514 177.997 678.514 177.997 679.132 177.997 c 128,-1,1618
 679.783 178.019 679.783 178.019 679.783 178.127 c 128,-1,1619
 679.783 178.254 679.783 178.254 680.38 178.451 c 128,-1,1620
 680.984 178.651 680.984 178.651 681.187 178.895 c 128,-1,1621
 681.402 179.154 681.402 179.154 681.783 179.154 c 128,-1,1622
 682.158 179.154 682.158 179.154 682.979 179.674 c 128,-1,1623
 683.799 180.193 683.799 180.193 683.967 180.193 c 128,-1,1624
 684.12 180.193 684.12 180.193 684.435 180.582 c 128,-1,1625
 684.755 180.977 684.755 180.977 684.967 181.025 c 128,-1,1626
 685.161 181.061 685.161 181.061 685.812 181.505 c 128,-1,1627
 686.479 181.959 686.479 181.959 686.709 182.285 c 128,-1,1628
 686.953 182.637 686.953 182.637 687.202 182.637 c 128,-1,1629
 687.462 182.637 687.462 182.637 687.462 182.793 c 128,-1,1630
 687.462 182.957 687.462 182.957 688.113 183.624 c 128,-1,1631
 688.729 184.258 688.729 184.258 689.425 185.066 c 128,-1,1632
 690.073 185.82 690.073 185.82 690.073 186.027 c 128,-1,1633
 690.073 186.23 690.073 186.23 690.581 186.717 c 128,-1,1634
 691.078 187.191 691.078 187.191 691.191 187.795 c 128,-1,1635
 691.301 188.379 691.301 188.379 691.543 188.523 c 128,-1,1636
 691.77 188.654 691.77 188.654 692.062 189.224 c 128,-1,1637
 692.349 189.795 692.349 189.795 692.245 189.965 c 128,-1,1638
 692.138 190.135 692.138 190.135 692.309 190.135 c 128,-1,1639
 692.491 190.135 692.491 190.135 692.608 190.679 c 128,-1,1640
 692.734 191.249 692.734 191.249 693.232 192.784 c 128,-1,1641
 693.735 194.341 693.735 194.341 693.647 194.487 c 128,-1,1642
 693.555 194.637 693.555 194.637 693.79 195.307 c 128,-1,1643
 694.009 195.929 694.009 195.929 694.063 197.397 c 128,-1,1644
 694.094 198.823 694.094 198.823 693.921 198.931 c 128,-1,1645
 693.756 199.033 693.756 199.033 693.973 199.449 c 128,-1,1646
 694.19 199.896 694.19 199.896 694.141 201.764 c 0,1647,1648
 694.131 202.199 694.131 202.199 694.117 202.714 c 128,-1,1649
 694.104 203.229 694.104 203.229 694.097 203.508 c 128,-1,1650
 694.09 203.79 694.09 203.79 694.09 203.83 c 128,-1,1651
 694.09 204.02 694.09 204.02 694.155 207.481 c 128,-1,1652
 694.225 210.968 694.225 210.968 693.96 211.757 c 128,-1,1653
 693.699 212.533 693.699 212.533 693.127 213.329 c 128,-1,1654
 692.592 214.076 692.592 214.076 692.465 214.42 c 128,-1,1655
 692.358 214.719 692.358 214.719 692.114 214.719 c 128,-1,1656
 691.871 214.719 691.871 214.719 691.906 211.366 c 128,-1,1657
 691.944 208.004 691.944 208.004 691.997 207.831 c 128,-1,1658
 692.049 207.664 692.049 207.664 691.906 207.339 c 128,-1,1659
 691.762 207.012 691.762 207.012 691.932 206.064 c 128,-1,1660
 692.101 205.121 692.101 205.121 691.969 205.039 c 128,-1,1661
 691.812 204.933 691.812 204.933 691.865 201.453 c 128,-1,1662
 691.903 197.958 691.903 197.958 691.827 197.879 c 128,-1,1663
 691.743 197.795 691.743 197.795 691.684 197.501 c 128,-1,1664
 691.632 197.324 691.632 197.324 691.632 196.709 c 128,-1,1665
 691.649 196.199 691.649 196.199 691.203 194.435 c 128,-1,1666
 690.757 192.662 690.757 192.662 690.488 192.252 c 128,-1,1667
 690.227 191.838 690.227 191.838 690.308 191.758 c 128,-1,1668
 690.404 191.658 690.404 191.658 690.06 191.174 c 128,-1,1669
 689.723 190.701 689.723 190.701 689.723 190.523 c 128,-1,1670
 689.723 190.369 689.723 190.369 689.371 189.965 c 128,-1,1671
 689.021 189.56 689.021 189.56 689.021 189.315 c 128,-1,1672
 689.021 189.062 689.021 189.062 688.409 188.315 c 128,-1,1673
 687.799 187.568 687.799 187.568 687.799 187.379 c 128,-1,1674
 687.799 187.182 687.799 187.182 687.188 186.625 c 128,-1,1675
 686.577 186.07 686.577 186.07 686.577 185.858 c 128,-1,1676
 686.577 185.63 686.577 185.63 685.721 184.976 c 128,-1,1677
 684.838 184.305 684.838 184.305 684.758 184.092 c 128,-1,1678
 684.669 183.857 684.669 183.857 684.355 183.857 c 128,-1,1679
 684.025 183.857 684.025 183.857 683.433 183.261 c 128,-1,1680
 682.823 182.648 682.823 182.648 682.445 182.648 c 128,-1,1681
 682.042 182.648 682.042 182.648 682.042 182.48 c 128,-1,1682
 682.042 182.335 682.042 182.335 681.743 182.234 c 128,-1,1683
 681.489 182.147 681.489 182.147 681.172 181.961 c 128,-1,1684
 680.949 181.825 680.949 181.825 680.483 181.635 c 2,1685,-1
 679.34 181.167 l 2,1686,1687
 678.621 180.873 678.621 180.873 678.158 180.635 c 128,-1,1688
 677.656 180.375 677.656 180.375 677.339 180.375 c 128,-1,1689
 677.01 180.375 677.01 180.375 676.611 180.219 c 128,-1,1690
 676.195 180.058 676.195 180.058 675.337 179.867 c 128,-1,1691
 674.492 179.686 674.492 179.686 673.414 179.582 c 0,1692,1693
 672.567 179.491 672.567 179.491 671.816 179.491 c 128,-1,1694
 671.261 179.507 671.261 179.507 671.181 179.375 c 128,-1,1695
 671.083 179.218 671.083 179.218 659.692 179.27 c 0,1696,1697
 648.032 179.302 648.032 179.302 646.698 179.375 c 0,1698,1699
 645.097 179.463 645.097 179.463 645.009 179.375 c 128,-1,1700
 644.95 179.317 644.95 179.317 643.865 179.27 c 128,-1,1701
 642.812 179.248 642.812 179.248 642.812 179.361 c 128,-1,1702
 642.812 179.488 642.812 179.488 641.812 179.398 c 128,-1,1703
 640.81 179.295 640.81 179.295 640.201 179.346 c 0,1704,1705
 639.864 179.371 639.864 179.371 639.317 179.371 c 0,1706,1707
 639.258 179.371 639.258 179.371 639.009 179.359 c 128,-1,1708
 638.761 179.346 638.761 179.346 638.629 179.346 c 0,1709,1710
 637.915 179.309 637.915 179.309 634.444 179.309 c 0,1711,1712
 632.383 179.283 632.383 179.283 630.168 179.283 c 2,1713,-1
 628.169 179.283 l 2,1714,1715
 627.82 179.283 627.82 179.283 626.425 179.271 c 128,-1,1716
 625.029 179.259 625.029 179.259 624.322 179.259 c 0,1717,1718
 621.909 179.243 621.909 179.243 621.358 179.283 c 128,-1,1719
 620.748 179.33 620.748 179.33 616.953 179.283 c 128,-1,1720
 613.16 179.238 613.16 179.238 613.16 179.091 c 128,-1,1721
 613.16 178.928 613.16 178.928 612.99 179.038 c 128,-1,1722
 612.826 179.142 612.826 179.142 609.639 179.22 c 128,-1,1723
 606.459 179.301 606.459 179.301 605.753 179.389 c 128,-1,1724
 605.058 179.48 605.058 179.48 604.103 179.584 c 0,1725,1726
 602.863 179.717 602.863 179.717 602.791 179.727 c 0,1727,1728
 602.387 179.771 602.387 179.771 601.348 179.999 c 128,-1,1729
 600.256 180.244 600.256 180.244 600.256 180.389 c 128,-1,1730
 600.256 180.519 600.256 180.519 599.84 180.519 c 128,-1,1731
 599.424 180.519 599.424 180.519 599.308 180.699 c 128,-1,1732
 599.201 180.87 599.201 180.87 598.774 180.87 c 128,-1,1733
 598.365 180.87 598.365 180.87 598.27 181.026 c 128,-1,1734
 598.182 181.166 598.182 181.166 597.385 181.391 c 128,-1,1735
 596.605 181.609 596.605 181.609 596.605 181.739 c 128,-1,1736
 596.605 181.874 596.605 181.874 596.202 181.974 c 128,-1,1737
 595.809 182.075 595.809 182.075 593.979 183.286 c 128,-1,1738
 592.192 184.47 592.192 184.47 591.459 185.302 c 2,1739,-1
 590.107 186.834 l 2,1740,1741
 589.444 187.586 589.444 187.586 589.444 187.77 c 128,-1,1742
 589.444 187.982 589.444 187.982 589.016 188.264 c 128,-1,1743
 588.575 188.555 588.575 188.555 588.575 188.744 c 128,-1,1744
 588.575 188.963 588.575 188.963 588.289 189.615 c 128,-1,1745
 587.989 190.291 587.989 190.291 587.86 190.291 c 128,-1,1746
 587.729 190.291 587.729 190.291 587.612 190.811 c 128,-1,1747
 587.496 191.343 587.496 191.343 587.223 191.616 c 128,-1,1748
 586.951 191.887 586.951 191.887 586.898 192.316 c 128,-1,1749
 586.854 192.752 586.854 192.752 586.625 193.267 c 128,-1,1750
 586.401 193.771 586.401 193.771 586.288 193.771 c 128,-1,1751
 586.181 193.771 586.181 193.771 586.262 194.188 c 128,-1,1752
 586.343 194.618 586.343 194.618 586.133 195.008 c 128,-1,1753
 585.92 195.401 585.92 195.401 585.86 196.515 c 128,-1,1754
 585.799 197.648 585.799 197.648 585.691 197.997 c 128,-1,1755
 585.586 198.329 585.586 198.329 585.586 208.314 c 2,1756,-1
 585.586 219.84 l 2,1757,1758
 585.586 220.106 585.586 220.106 585.574 220.854 c 128,-1,1759
 585.564 221.603 585.564 221.603 585.557 222.297 c 128,-1,1760
 585.549 222.993 585.549 222.993 585.549 223.504 c 128,-1,1761
 585.545 224.2 585.545 224.2 585.532 224.579 c 128,-1,1762
 585.521 224.959 585.521 224.959 585.489 225.2 c 128,-1,1763
 585.459 225.441 585.459 225.441 585.41 225.508 c 128,-1,1540
 585.362 225.574 585.362 225.574 585.271 225.559 c 128,-1,1541
545.224 215.475 m 1,1764,1765
 541.728 213.944 541.728 213.944 540.116 212.784 c 1,1766,-1
 540.116 126.944 l 1,1767,-1
 550.473 126.944 l 1,1768,-1
 550.473 212.643 l 1,1769,1770
 548.844 213.891 548.844 213.891 545.224 215.475 c 1,1764,1765
477.225 214.708 m 1,1771,-1
 477.225 197.828 l 2,1772,1773
 477.225 185.412 477.225 185.412 482.886 175.916 c 128,-1,1774
 488.549 166.418 488.549 166.418 498.367 161.496 c 1,1775,-1
 498.367 172.281 l 1,1776,1777
 493.778 175.122 493.778 175.122 490.75 181.418 c 128,-1,1778
 487.724 187.715 487.724 187.715 487.724 197.828 c 2,1779,-1
 487.724 205.066 l 1,1780,-1
 498.367 205.066 l 1,1781,-1
 498.363 206.508 l 2,1782,1783
 498.359 207.938 498.359 207.938 498.006 210.359 c 128,-1,1784
 497.651 212.769 497.651 212.769 496.949 214.708 c 1,1785,-1
 477.225 214.708 l 1,1771,-1
501.082 214.708 m 1,1786,-1
 501.082 172.242 l 1,1787,-1
 505.877 172.242 l 1,1788,-1
 505.877 214.708 l 1,1789,-1
 501.082 214.708 l 1,1786,-1
509.463 214.708 m 1,1790,-1
 509.463 142.915 l 2,1791,1792
 509.463 132.957 509.463 132.957 515.103 125.109 c 128,-1,1793
 520.742 117.264 520.742 117.264 530.047 113.678 c 1,1794,-1
 530.047 125.464 l 1,1795,1796
 525.165 128.514 525.165 128.514 522.707 132.579 c 128,-1,1797
 520.249 136.646 520.249 136.646 520.249 142.915 c 2,1798,-1
 520.249 173.139 l 1,1799,-1
 520.249 186.186 l 1,1800,-1
 520.249 196.827 l 1,1801,-1
 520.249 214.708 l 1,1802,-1
 509.463 214.708 l 1,1790,-1
524.823 214.656 m 1,1803,-1
 524.823 135.469 l 1,1804,-1
 526.393 136.014 l 2,1805,1806
 527.974 136.563 527.974 136.563 530.729 137.977 c 128,-1,1807
 533.497 139.396 533.497 139.396 535.894 141.147 c 1,1808,-1
 535.894 208.977 l 1,1809,1810
 530.513 212.914 530.513 212.914 524.823 214.656 c 1,1803,-1
494.025 201.767 m 1,1811,-1
 494.025 193.176 l 1,1812,-1
 498.287 193.176 l 1,1813,-1
 498.287 201.767 l 1,1814,-1
 494.025 201.767 l 1,1811,-1
416.645 198.205 m 1,1815,-1
 416.645 98.5391 l 1,1816,-1
 427.442 98.5391 l 1,1817,-1
 427.442 198.205 l 1,1818,-1
 416.645 198.205 l 1,1815,-1
431.471 198.205 m 1,1819,-1
 431.471 98.5391 l 1,1820,-1
 442.529 98.5391 l 1,1821,-1
 442.529 198.205 l 1,1822,-1
 431.471 198.205 l 1,1819,-1
446.57 198.14 m 1,1823,-1
 446.57 98.5391 l 1,1824,-1
 457.213 98.5391 l 1,1825,-1
 457.213 197.152 l 1,1826,-1
 457.355 197.152 l 1,1827,-1
 457.355 198.14 l 1,1828,-1
 446.57 198.14 l 1,1823,-1
461.527 188.927 m 1,1829,-1
 461.527 98.5391 l 1,1830,-1
 472.312 98.5391 l 1,1831,-1
 472.312 183.391 l 1,1832,1833
 465.714 187.764 465.714 187.764 461.527 188.927 c 1,1829,-1
501.082 169.162 m 1,1834,-1
 501.082 126.698 l 1,1835,-1
 505.877 126.698 l 1,1836,-1
 505.877 169.162 l 1,1837,-1
 501.082 169.162 l 1,1834,-1
486.827 165.721 m 1,1838,1839
 480.649 164.348 480.649 164.348 476.327 161.041 c 1,1840,-1
 476.327 137.626 l 1,1841,-1
 486.971 137.626 l 1,1842,-1
 486.971 165.721 l 1,1843,-1
 486.827 165.721 l 1,1838,1839
497.3 148.515 m 128,-1,1845
 497.089 148.515 497.089 148.515 496.416 147.802 c 128,-1,1846
 495.903 147.262 495.903 147.262 495.816 146.894 c 128,-1,1847
 495.728 146.524 495.728 146.524 495.728 144.877 c 0,1848,1849
 495.728 142.466 495.728 142.466 495.752 142.226 c 0,1850,1851
 495.79 139.849 495.79 139.849 495.79 138.574 c 0,1852,1853
 495.79 137.525 495.79 137.525 495.777 136.035 c 128,-1,1854
 495.766 134.546 495.766 134.546 495.766 134.468 c 0,1855,1856
 495.713 133.596 495.713 133.596 495.766 130.545 c 128,-1,1857
 495.819 127.491 495.819 127.491 495.766 126.88 c 0,1858,1859
 495.728 126.503 495.728 126.503 495.728 125.398 c 2,1860,-1
 495.728 124.178 l 2,1861,1862
 495.728 122.623 495.728 122.623 495.752 121.137 c 0,1863,1864
 495.775 118.477 495.775 118.477 495.975 117.732 c 128,-1,1865
 496.151 117.062 496.151 117.062 496.207 116.602 c 128,-1,1866
 496.258 116.117 496.258 116.117 496.352 115.419 c 128,-1,1867
 496.453 114.668 496.453 114.668 496.703 114.185 c 128,-1,1868
 496.967 113.668 496.967 113.668 497.052 113.17 c 128,-1,1869
 497.141 112.675 497.141 112.675 497.442 111.975 c 128,-1,1870
 497.723 111.323 497.723 111.323 497.975 111.014 c 128,-1,1871
 498.18 110.768 498.18 110.768 498.69 109.754 c 0,1872,1873
 498.824 109.486 498.824 109.486 498.959 109.27 c 128,-1,1874
 499.093 109.055 499.093 109.055 499.188 108.946 c 128,-1,1875
 499.283 108.839 499.283 108.839 499.314 108.869 c 2,1876,-1
 499.43 108.727 l 1,1877,1878
 499.43 108.455 499.43 108.455 500.691 107.168 c 128,-1,1879
 501.919 105.912 501.919 105.912 502.693 105.219 c 128,-1,1880
 503.42 104.564 503.42 104.564 503.822 104.386 c 128,-1,1881
 504.195 104.223 504.195 104.223 504.745 103.867 c 128,-1,1882
 505.273 103.523 505.273 103.523 506.057 103.165 c 128,-1,1883
 506.894 102.781 506.894 102.781 507.137 102.646 c 128,-1,1884
 507.441 102.477 507.441 102.477 507.89 102.477 c 128,-1,1885
 508.345 102.477 508.345 102.477 508.721 102.23 c 128,-1,1886
 509.129 101.968 509.129 101.968 510.06 101.801 c 128,-1,1887
 511.029 101.639 511.029 101.639 511.151 101.71 c 128,-1,1888
 511.281 101.793 511.281 101.793 511.281 101.632 c 128,-1,1889
 511.281 101.471 511.281 101.471 512.555 101.269 c 128,-1,1890
 513.779 101.073 513.779 101.073 515.127 100.943 c 0,1891,1892
 516.174 100.839 516.174 100.839 517.402 100.852 c 0,1893,1894
 518.41 100.874 518.41 100.874 518.663 100.968 c 128,-1,1895
 518.927 101.066 518.927 101.066 519.002 100.943 c 128,-1,1896
 519.07 100.82 519.07 100.82 520.535 100.865 c 0,1897,1898
 522.296 100.929 522.296 100.929 522.744 100.956 c 0,1899,1900
 523.504 101.002 523.504 101.002 523.562 100.904 c 128,-1,1901
 523.641 100.792 523.641 100.792 528.824 100.852 c 0,1902,1903
 535.253 100.918 535.253 100.918 545.002 100.918 c 0,1904,1905
 556.017 100.924 556.017 100.924 556.555 100.84 c 128,-1,1906
 557.127 100.754 557.127 100.754 557.127 100.93 c 128,-1,1907
 557.127 101.111 557.127 101.111 557.309 100.996 c 128,-1,1908
 557.491 100.885 557.491 100.885 560.752 100.84 c 128,-1,1909
 564.045 100.793 564.045 100.793 564.312 100.93 c 128,-1,1910
 564.601 101.098 564.601 101.098 564.688 100.956 c 128,-1,1911
 564.758 100.832 564.758 100.832 566.665 100.878 c 0,1912,1913
 567.573 100.916 567.573 100.916 568.9 100.916 c 0,1914,1915
 568.994 100.909 568.994 100.909 571.952 100.863 c 0,1916,1917
 574.654 100.825 574.654 100.825 576.721 101.033 c 128,-1,1918
 578.8 101.24 578.8 101.24 580.204 101.525 c 128,-1,1919
 581.611 101.811 581.611 101.811 581.906 101.968 c 128,-1,1920
 582.228 102.137 582.228 102.137 582.53 102.137 c 128,-1,1921
 582.856 102.137 582.856 102.137 583.283 102.357 c 128,-1,1922
 583.744 102.594 583.744 102.594 584.855 102.994 c 128,-1,1923
 585.994 103.402 585.994 103.402 586.728 103.826 c 128,-1,1924
 587.469 104.257 587.469 104.257 587.469 104.424 c 128,-1,1925
 587.469 104.601 587.469 104.601 587.623 104.502 c 128,-1,1926
 587.777 104.408 587.777 104.408 588.534 104.956 c 128,-1,1927
 589.281 105.498 589.281 105.498 589.613 105.918 c 128,-1,1928
 589.93 106.32 589.93 106.32 590.146 106.32 c 128,-1,1929
 590.361 106.32 590.361 106.32 590.652 106.802 c 128,-1,1930
 590.959 107.311 590.959 107.311 591.626 108.01 c 128,-1,1931
 592.326 108.744 592.326 108.744 592.77 109.491 c 128,-1,1932
 593.261 110.316 593.261 110.316 593.822 111.479 c 128,-1,1933
 594.412 112.7 594.412 112.7 594.55 113.39 c 0,1934,1935
 594.581 113.55 594.581 113.55 594.643 113.839 c 128,-1,1936
 594.706 114.142 594.706 114.142 594.706 114.169 c 128,-1,1937
 594.725 114.273 594.725 114.273 594.94 114.663 c 128,-1,1938
 595.18 115.061 595.18 115.061 595.083 115.157 c 128,-1,1939
 594.984 115.258 594.984 115.258 595.136 115.65 c 128,-1,1940
 595.289 116.054 595.289 116.054 595.499 117.509 c 128,-1,1941
 595.725 119.081 595.725 119.081 595.771 119.483 c 0,1942,1943
 595.849 120.156 595.849 120.156 595.849 120.836 c 128,-1,1944
 595.855 121.661 595.855 121.661 595.744 121.836 c 128,-1,1945
 595.639 122.004 595.639 122.004 595.836 122.004 c 128,-1,1946
 596.055 122.004 596.055 122.004 595.939 122.46 c 128,-1,1947
 595.824 122.935 595.824 122.935 595.824 126.605 c 0,1948,1949
 595.824 127.619 595.824 127.619 595.842 130.299 c 128,-1,1950
 595.861 132.979 595.861 132.979 595.861 133.999 c 0,1951,1952
 595.874 137.699 595.874 137.699 595.328 138.443 c 128,-1,1953
 594.796 139.168 594.796 139.168 594.796 139.352 c 128,-1,1954
 594.796 139.523 594.796 139.523 594.459 139.963 c 128,-1,1955
 594.141 140.371 594.141 140.371 594.043 140.041 c 128,-1,1956
 593.94 139.774 593.94 139.774 594.005 137.091 c 128,-1,1957
 594.063 134.514 594.063 134.514 593.94 133.674 c 128,-1,1958
 593.818 132.869 593.818 132.869 593.94 132.544 c 128,-1,1959
 594.062 132.215 594.062 132.215 593.888 131.881 c 128,-1,1960
 593.73 131.557 593.73 131.557 593.888 131.451 c 128,-1,1961
 594.058 131.342 594.058 131.342 594.005 129.334 c 0,1962,1963
 593.996 128.936 593.996 128.936 593.97 127.484 c 128,-1,1964
 593.944 126.033 593.944 126.033 593.926 125.449 c 0,1965,1966
 593.882 123.563 593.882 123.563 593.992 123.461 c 128,-1,1967
 594.109 123.346 594.109 123.346 593.926 123.136 c 128,-1,1968
 593.742 122.916 593.742 122.916 593.891 122.823 c 128,-1,1969
 594.021 122.74 594.021 122.74 593.914 121.368 c 128,-1,1970
 593.813 120.014 593.813 120.014 593.951 119.731 c 128,-1,1971
 594.1 119.474 594.1 119.474 593.951 119.211 c 128,-1,1972
 593.809 118.95 593.809 118.95 593.613 117.911 c 128,-1,1973
 593.418 116.86 593.418 116.86 593.042 115.561 c 128,-1,1974
 592.664 114.243 592.664 114.243 591.821 112.467 c 128,-1,1975
 590.969 110.674 590.969 110.674 590.82 110.674 c 128,-1,1976
 590.672 110.674 590.672 110.674 590.561 110.245 c 128,-1,1977
 590.454 109.823 590.454 109.823 590.105 109.712 c 128,-1,1978
 589.755 109.6 589.755 109.6 589.755 109.348 c 128,-1,1979
 589.755 109.102 589.755 109.102 589.586 109.102 c 128,-1,1980
 589.416 109.102 589.416 109.102 589.416 108.855 c 128,-1,1981
 589.416 108.592 589.416 108.592 589 108.321 c 128,-1,1982
 588.596 108.057 588.596 108.057 588.364 107.619 c 128,-1,1983
 588.123 107.172 588.123 107.172 587.91 107.257 c 128,-1,1984
 587.684 107.343 587.684 107.343 587.169 106.827 c 128,-1,1985
 586.66 106.32 586.66 106.32 586.389 106.32 c 128,-1,1986
 586.143 106.32 586.143 106.32 586.039 106.047 c 128,-1,1987
 585.939 105.789 585.939 105.789 585.596 105.789 c 128,-1,1988
 585.253 105.789 585.253 105.789 585.154 105.633 c 128,-1,1989
 585.059 105.479 585.059 105.479 583.79 104.995 c 128,-1,1990
 582.527 104.513 582.527 104.513 582.361 104.371 c 128,-1,1991
 582.179 104.217 582.179 104.217 581.646 104.217 c 128,-1,1992
 581.102 104.217 581.102 104.217 580.984 104.1 c 128,-1,1993
 580.864 103.979 580.864 103.979 580.386 103.917 c 128,-1,1994
 579.92 103.849 579.92 103.849 579.828 103.722 c 128,-1,1995
 579.758 103.634 579.758 103.634 579.125 103.579 c 128,-1,1996
 578.576 103.559 578.576 103.559 577.202 103.437 c 128,-1,1997
 575.9 103.319 575.9 103.319 566.48 103.241 c 0,1998,1999
 564.2 103.225 564.2 103.225 561.815 103.205 c 128,-1,2000
 559.43 103.186 559.43 103.186 558.17 103.174 c 128,-1,2001
 556.91 103.163 556.91 103.163 556.893 103.163 c 2,2002,-1
 554.188 103.163 l 2,2003,2004
 552.799 103.188 552.799 103.188 549.044 103.188 c 0,2005,2006
 546.369 103.182 546.369 103.182 543.378 103.227 c 128,-1,2007
 540.291 103.271 540.291 103.271 539.688 103.16 c 128,-1,2008
 539.032 103.062 539.032 103.062 538.207 103.186 c 128,-1,2009
 537.357 103.312 537.357 103.312 537.167 103.16 c 128,-1,2010
 536.974 103.002 536.974 103.002 536.855 103.124 c 128,-1,2011
 536.72 103.253 536.72 103.253 534.633 103.253 c 128,-1,2012
 532.533 103.27 532.533 103.27 532.476 103.163 c 128,-1,2013
 532.397 103.058 532.397 103.058 531.046 103.137 c 128,-1,2014
 529.877 103.189 529.877 103.189 528.031 103.189 c 0,2015,2016
 527.121 103.164 527.121 103.164 524.016 103.164 c 0,2017,2018
 521.658 103.172 521.658 103.172 518.091 103.27 c 128,-1,2019
 514.52 103.364 514.52 103.364 513.906 103.424 c 128,-1,2020
 513.303 103.491 513.303 103.491 512.426 103.684 c 128,-1,2021
 511.581 103.876 511.581 103.876 510.684 103.983 c 128,-1,2022
 509.806 104.087 509.806 104.087 509.67 104.321 c 128,-1,2023
 509.523 104.568 509.523 104.568 509.033 104.568 c 128,-1,2024
 508.492 104.568 508.492 104.568 507.941 104.854 c 2,2025,-1
 507.111 105.283 l 2,2026,2027
 506.705 105.494 506.705 105.494 505.708 106.075 c 0,2028,2029
 504.496 106.781 504.496 106.781 504.408 106.816 c 128,-1,2030
 504.201 106.906 504.201 106.906 503.381 107.687 c 2,2031,-1
 502.03 108.973 l 2,2032,2033
 501.523 109.455 501.523 109.455 501.523 109.715 c 128,-1,2034
 501.523 109.961 501.523 109.961 501.277 109.961 c 128,-1,2035
 501.044 109.961 501.044 109.961 500.848 110.441 c 128,-1,2036
 500.666 110.888 500.666 110.888 500.342 111.455 c 128,-1,2037
 500.041 111.969 500.041 111.969 499.911 112.026 c 128,-1,2038
 499.783 112.089 499.783 112.089 499.783 112.3 c 128,-1,2039
 499.783 112.511 499.783 112.511 499.432 113.17 c 128,-1,2040
 499.08 113.824 499.08 113.824 498.663 115.171 c 128,-1,2041
 498.225 116.604 498.225 116.604 498.106 117.211 c 0,2042,2043
 498.064 117.43 498.064 117.43 498.006 117.769 c 128,-1,2044
 497.948 118.109 497.948 118.109 497.936 118.159 c 128,-1,2045
 497.93 118.207 497.93 118.207 497.875 118.618 c 128,-1,2046
 497.82 119.028 497.82 119.028 497.781 119.303 c 0,2047,2048
 497.657 120.176 497.657 120.176 497.572 121.915 c 0,2049,2050
 497.554 122.32 497.554 122.32 497.528 122.799 c 128,-1,2051
 497.5 123.279 497.5 123.279 497.485 123.554 c 128,-1,2052
 497.469 123.828 497.469 123.828 497.469 123.877 c 128,-1,2053
 497.453 124.098 497.453 124.098 497.274 124.098 c 1,2054,-1
 497.339 124.268 l 1,2055,2056
 497.59 124.433 497.59 124.433 497.548 135.987 c 0,2057,2058
 497.521 140.758 497.521 140.758 497.521 148.033 c 0,2059,1844
 497.521 148.514 497.521 148.514 497.3 148.515 c 128,-1,1845
534.736 124.242 m 1,2060,-1
 554.332 124.242 l 1,2061,-1
 554.332 113.43 l 1,2062,-1
 534.736 113.43 l 1,2063,-1
 534.736 124.242 l 1,2060,-1
558.218 123.917 m 1,2064,-1
 570.146 123.917 l 1,2065,-1
 570.146 113.43 l 1,2066,-1
 558.218 113.43 l 1,2067,-1
 558.218 123.917 l 1,2064,-1
EndSplineSet
EndChar

StartChar: c
Encoding: 99 99 70
Width: 2048
GlyphClass: 2
Flags: W
LayerCount: 2
Fore
SplineSet
1840 816 m 1,0,1
 1824 480 1824 480 1624 240 c 128,-1,2
 1424 0 1424 0 1072 0 c 0,3,4
 688 0 688 0 464 304 c 128,-1,5
 240 608 240 608 240 1168 c 0,6,7
 240 1760 240 1760 480 2056 c 128,-1,8
 720 2352 720 2352 992 2352 c 2,9,-1
 1168 2352 l 2,10,11
 1424 2352 1424 2352 1632 2128 c 128,-1,12
 1840 1904 1840 1904 1840 1552 c 1,13,-1
 1536 1552 l 1,14,15
 1504 1840 1504 1840 1376 1952 c 128,-1,16
 1248 2064 1248 2064 1072 2064 c 0,17,18
 832 2064 832 2064 680 1832 c 128,-1,19
 528 1600 528 1600 528 1184 c 0,20,21
 528 720 528 720 688 512 c 128,-1,22
 848 304 848 304 1072 304 c 0,23,24
 1248 304 1248 304 1376 456 c 128,-1,25
 1504 608 1504 608 1520 816 c 1,26,-1
 1840 816 l 1,0,1
EndSplineSet
EndChar

StartChar: d
Encoding: 100 100 71
Width: 2032
GlyphClass: 2
Flags: W
LayerCount: 2
Fore
SplineSet
1712 0 m 1,0,-1
 1440 0 l 1,1,-1
 1440 128 l 1,2,3
 1264 0 1264 0 1008 0 c 0,4,5
 240 0 240 0 240 1088 c 2,6,-1
 240 1248 l 2,7,8
 240 1856 240 1856 416 2104 c 128,-1,9
 592 2352 592 2352 864 2352 c 2,10,-1
 1008 2352 l 2,11,12
 1216 2352 1216 2352 1440 2192 c 1,13,-1
 1440 3248 l 1,14,-1
 1712 3248 l 1,15,-1
 1712 0 l 1,0,-1
1440 464 m 1,16,-1
 1440 1872 l 1,17,18
 1200 2064 1200 2064 992 2064 c 0,19,20
 720 2064 720 2064 624 1840 c 128,-1,21
 528 1616 528 1616 528 1248 c 2,22,-1
 528 1088 l 2,23,24
 528 288 528 288 1008 288 c 0,25,26
 1232 288 1232 288 1440 464 c 1,16,-1
EndSplineSet
EndChar

StartChar: e
Encoding: 101 101 72
Width: 2048
GlyphClass: 2
Flags: W
LayerCount: 2
Fore
SplineSet
528 1056 m 1,0,1
 544 720 544 720 680 512 c 128,-1,2
 816 304 816 304 1104 288 c 1,3,4
 1248 288 1248 288 1336 344 c 128,-1,5
 1424 400 1424 400 1472 496 c 1,6,-1
 1792 496 l 1,7,8
 1728 256 1728 256 1536 128 c 128,-1,9
 1344 0 1344 0 1104 0 c 0,10,11
 704 0 704 0 472 296 c 128,-1,12
 240 592 240 592 240 1056 c 2,13,-1
 240 1328 l 2,14,15
 240 1856 240 1856 448 2104 c 128,-1,16
 656 2352 656 2352 928 2352 c 2,17,-1
 1120 2352 l 2,18,19
 1376 2352 1376 2352 1592 2104 c 128,-1,20
 1808 1856 1808 1856 1808 1328 c 2,21,-1
 1808 1056 l 1,22,-1
 528 1056 l 1,0,1
1504 1328 m 1,23,24
 1520 1728 1520 1728 1392 1904 c 128,-1,25
 1264 2080 1264 2080 1024 2080 c 0,26,27
 816 2080 816 2080 672 1888 c 128,-1,28
 528 1696 528 1696 528 1328 c 1,29,-1
 1504 1328 l 1,23,24
EndSplineSet
EndChar

StartChar: f
Encoding: 102 102 73
Width: 1248
GlyphClass: 2
Flags: W
LayerCount: 2
Fore
SplineSet
1104 3248 m 1,0,-1
 1104 2976 l 1,1,-1
 768 2976 l 2,2,3
 672 2976 672 2976 640 2944 c 128,-1,4
 608 2912 608 2912 608 2832 c 2,5,-1
 608 2352 l 1,6,-1
 1104 2352 l 1,7,-1
 1104 2080 l 1,8,-1
 608 2080 l 1,9,-1
 608 0 l 1,10,-1
 320 0 l 1,11,-1
 320 2080 l 1,12,-1
 48 2080 l 1,13,-1
 48 2352 l 1,14,-1
 320 2352 l 1,15,-1
 320 2832 l 2,16,17
 320 3056 320 3056 424 3152 c 128,-1,18
 528 3248 528 3248 768 3248 c 2,19,-1
 1104 3248 l 1,0,-1
EndSplineSet
EndChar

StartChar: g
Encoding: 103 103 74
Width: 1888
GlyphClass: 2
Flags: W
LayerCount: 2
Fore
SplineSet
288 -160 m 1,0,1
 576 -256 576 -256 808 -256 c 128,-1,2
 1040 -256 1040 -256 1160 -128 c 128,-1,3
 1280 0 1280 0 1280 224 c 1,4,5
 1072 80 1072 80 880 80 c 0,6,7
 240 80 240 80 240 1072 c 2,8,-1
 240 1312 l 2,9,10
 240 1888 240 1888 392 2120 c 128,-1,11
 544 2352 544 2352 752 2352 c 2,12,-1
 928 2352 l 2,13,14
 1088 2352 1088 2352 1280 2208 c 1,15,-1
 1280 2352 l 1,16,-1
 1568 2352 l 1,17,-1
 1568 368 l 2,18,19
 1568 -144 1568 -144 1376 -360 c 128,-1,20
 1184 -576 1184 -576 864 -576 c 0,21,22
 560 -576 560 -576 288 -512 c 1,23,-1
 288 -160 l 1,0,1
528 1072 m 2,24,25
 528 368 528 368 880 368 c 0,26,27
 1072 368 1072 368 1280 528 c 1,28,-1
 1280 1920 l 1,29,30
 1072 2064 1072 2064 880 2064 c 0,31,32
 528 2064 528 2064 528 1312 c 2,33,-1
 528 1072 l 2,24,25
EndSplineSet
EndChar

StartChar: h
Encoding: 104 104 75
Width: 2048
GlyphClass: 2
Flags: W
LayerCount: 2
Fore
SplineSet
1728 0 m 1,0,-1
 1424 0 l 1,1,-1
 1424 1808 l 2,2,3
 1424 1952 1424 1952 1360 2008 c 128,-1,4
 1296 2064 1296 2064 1136 2064 c 0,5,6
 1008 2064 1008 2064 888 2000 c 128,-1,7
 768 1936 768 1936 608 1760 c 1,8,-1
 608 0 l 1,9,-1
 320 0 l 1,10,-1
 320 3248 l 1,11,-1
 608 3248 l 1,12,-1
 608 2080 l 1,13,14
 688 2176 688 2176 832 2264 c 128,-1,15
 976 2352 976 2352 1120 2352 c 2,16,-1
 1264 2352 l 2,17,18
 1472 2352 1472 2352 1600 2216 c 128,-1,19
 1728 2080 1728 2080 1728 1856 c 2,20,-1
 1728 0 l 1,0,-1
EndSplineSet
EndChar

StartChar: i
Encoding: 105 105 76
Width: 864
GlyphClass: 2
Flags: W
LayerCount: 2
Fore
SplineSet
592 0 m 1,0,-1
 288 0 l 1,1,-1
 288 2352 l 1,2,-1
 592 2352 l 1,3,-1
 592 0 l 1,0,-1
592 2720 m 1,4,-1
 288 2720 l 1,5,-1
 288 3248 l 1,6,-1
 592 3248 l 1,7,-1
 592 2720 l 1,4,-1
EndSplineSet
EndChar

StartChar: j
Encoding: 106 106 77
Width: 896
GlyphClass: 2
Flags: W
LayerCount: 2
Fore
SplineSet
592 2720 m 1,0,-1
 304 2720 l 1,1,-1
 304 3248 l 1,2,-1
 592 3248 l 1,3,-1
 592 2720 l 1,0,-1
592 2352 m 1,4,-1
 592 -80 l 2,5,6
 592 -576 592 -576 224 -576 c 2,7,-1
 0 -576 l 1,8,-1
 0 -272 l 1,9,-1
 128 -272 l 2,10,11
 304 -272 304 -272 304 -80 c 2,12,-1
 304 2352 l 1,13,-1
 592 2352 l 1,4,-1
EndSplineSet
EndChar

StartChar: k
Encoding: 107 107 78
Width: 1888
GlyphClass: 2
Flags: W
LayerCount: 2
Fore
SplineSet
608 0 m 1,0,-1
 320 0 l 1,1,-1
 320 3248 l 1,2,-1
 608 3248 l 1,3,-1
 608 1383 l 1,4,-1
 1376 2352 l 1,5,-1
 1744 2352 l 1,6,-1
 1027 1489 l 1,7,-1
 1744 0 l 1,8,-1
 1392 0 l 1,9,-1
 828 1249 l 1,10,-1
 608 984 l 1,11,-1
 608 0 l 1,0,-1
EndSplineSet
EndChar

StartChar: l
Encoding: 108 108 79
Width: 864
GlyphClass: 2
Flags: W
LayerCount: 2
Fore
SplineSet
784 0 m 1,0,-1
 656 0 l 2,1,2
 288 0 288 0 288 368 c 2,3,-1
 288 3248 l 1,4,-1
 592 3248 l 1,5,-1
 592 368 l 2,6,7
 592 288 592 288 656 288 c 2,8,-1
 784 288 l 1,9,-1
 784 0 l 1,0,-1
EndSplineSet
EndChar

StartChar: m
Encoding: 109 109 80
Width: 3008
GlyphClass: 2
Flags: W
LayerCount: 2
Fore
SplineSet
2688 0 m 1,0,-1
 2384 0 l 1,1,-1
 2384 1792 l 2,2,3
 2384 1952 2384 1952 2304 2016 c 128,-1,4
 2224 2080 2224 2080 2048 2080 c 0,5,6
 1808 2080 1808 2080 1632 1904 c 1,7,-1
 1632 0 l 1,8,-1
 1344 0 l 1,9,-1
 1344 1792 l 2,10,11
 1344 1968 1344 1968 1240 2024 c 128,-1,12
 1136 2080 1136 2080 992 2080 c 0,13,14
 736 2080 736 2080 608 1904 c 1,15,-1
 608 0 l 1,16,-1
 320 0 l 1,17,-1
 320 2352 l 1,18,-1
 608 2352 l 1,19,-1
 608 2192 l 1,20,21
 752 2352 752 2352 992 2352 c 2,22,-1
 1136 2352 l 2,23,24
 1264 2352 1264 2352 1368 2296 c 128,-1,25
 1472 2240 1472 2240 1552 2144 c 1,26,27
 1760 2352 1760 2352 2048 2352 c 2,28,-1
 2224 2352 l 2,29,30
 2384 2352 2384 2352 2536 2224 c 128,-1,31
 2688 2096 2688 2096 2688 1792 c 2,32,-1
 2688 0 l 1,0,-1
EndSplineSet
EndChar

StartChar: n
Encoding: 110 110 81
Width: 2048
GlyphClass: 2
Flags: W
LayerCount: 2
Fore
SplineSet
1728 0 m 1,0,-1
 1440 0 l 1,1,-1
 1440 1792 l 2,2,3
 1440 1984 1440 1984 1352 2032 c 128,-1,4
 1264 2080 1264 2080 1120 2080 c 0,5,6
 944 2080 944 2080 824 1992 c 128,-1,7
 704 1904 704 1904 608 1760 c 1,8,-1
 608 0 l 1,9,-1
 320 0 l 1,10,-1
 320 2352 l 1,11,-1
 608 2352 l 1,12,-1
 608 2080 l 1,13,14
 672 2176 672 2176 744 2232 c 128,-1,15
 816 2288 816 2288 888 2320 c 128,-1,16
 960 2352 960 2352 1104 2352 c 2,17,-1
 1280 2352 l 2,18,19
 1456 2352 1456 2352 1592 2224 c 128,-1,20
 1728 2096 1728 2096 1728 1856 c 2,21,-1
 1728 0 l 1,0,-1
EndSplineSet
EndChar

StartChar: o
Encoding: 111 111 82
Width: 2080
GlyphClass: 2
Flags: W
LayerCount: 2
Fore
SplineSet
1152 2352 m 2,0,1
 1408 2352 1408 2352 1624 2056 c 128,-1,2
 1840 1760 1840 1760 1840 1232 c 2,3,-1
 1840 1136 l 2,4,5
 1840 640 1840 640 1624 320 c 128,-1,6
 1408 0 1408 0 1040 0 c 0,7,8
 656 0 656 0 448 328 c 128,-1,9
 240 656 240 656 240 1136 c 2,10,-1
 240 1232 l 2,11,12
 240 1744 240 1744 448 2048 c 128,-1,13
 656 2352 656 2352 944 2352 c 2,14,-1
 1152 2352 l 2,0,1
528 1232 m 2,15,-1
 528 1136 l 2,16,17
 528 784 528 784 672 544 c 128,-1,18
 816 304 816 304 1040 304 c 256,19,20
 1264 304 1264 304 1400 528 c 128,-1,21
 1536 752 1536 752 1536 1136 c 2,22,-1
 1536 1232 l 2,23,24
 1536 1600 1536 1600 1400 1832 c 128,-1,25
 1264 2064 1264 2064 1040 2064 c 0,26,27
 800 2064 800 2064 664 1848 c 128,-1,28
 528 1632 528 1632 528 1232 c 2,15,-1
EndSplineSet
EndChar

StartChar: p
Encoding: 112 112 83
Width: 2032
GlyphClass: 2
Flags: W
LayerCount: 2
Fore
SplineSet
608 2176 m 1,0,1
 832 2352 832 2352 976 2352 c 2,2,-1
 1136 2352 l 2,3,4
 1392 2352 1392 2352 1592 2104 c 128,-1,5
 1792 1856 1792 1856 1792 1232 c 2,6,-1
 1792 1104 l 2,7,8
 1792 0 1792 0 1056 0 c 0,9,10
 800 0 800 0 608 128 c 1,11,-1
 608 -576 l 1,12,-1
 320 -576 l 1,13,-1
 320 2352 l 1,14,-1
 608 2352 l 1,15,-1
 608 2176 l 1,0,1
608 1856 m 1,16,-1
 608 464 l 1,17,18
 816 288 816 288 1056 288 c 1,19,20
 1504 304 1504 304 1504 1104 c 2,21,-1
 1504 1232 l 2,22,23
 1504 1696 1504 1696 1376 1880 c 128,-1,24
 1248 2064 1248 2064 1056 2064 c 0,25,26
 816 2064 816 2064 608 1856 c 1,16,-1
EndSplineSet
EndChar

StartChar: q
Encoding: 113 113 84
Width: 2032
GlyphClass: 2
Flags: W
LayerCount: 2
Fore
SplineSet
1712 -576 m 1,0,-1
 1424 -576 l 1,1,-1
 1424 128 l 1,2,3
 1184 0 1184 0 944 0 c 1,4,5
 240 -16 240 -16 240 1008 c 2,6,-1
 240 1248 l 2,7,8
 240 1856 240 1856 416 2104 c 128,-1,9
 592 2352 592 2352 848 2352 c 2,10,-1
 1040 2352 l 2,11,12
 1200 2352 1200 2352 1424 2224 c 1,13,-1
 1424 2352 l 1,14,-1
 1712 2352 l 1,15,-1
 1712 -576 l 1,0,-1
1424 432 m 1,16,-1
 1424 1920 l 1,17,18
 1200 2064 1200 2064 928 2064 c 1,19,20
 784 2080 784 2080 656 1912 c 128,-1,21
 528 1744 528 1744 528 1248 c 2,22,-1
 528 1008 l 2,23,24
 528 288 528 288 944 288 c 0,25,26
 1184 288 1184 288 1424 432 c 1,16,-1
EndSplineSet
EndChar

StartChar: r
Encoding: 114 114 85
Width: 1424
GlyphClass: 2
Flags: W
LayerCount: 2
Fore
SplineSet
1344 2080 m 1,0,-1
 1120 2080 l 2,1,2
 1024 2080 1024 2080 880 2032 c 128,-1,3
 736 1984 736 1984 608 1824 c 1,4,-1
 608 0 l 1,5,-1
 320 0 l 1,6,-1
 320 2352 l 1,7,-1
 608 2352 l 1,8,-1
 608 2128 l 1,9,10
 720 2240 720 2240 856 2296 c 128,-1,11
 992 2352 992 2352 1120 2352 c 2,12,-1
 1344 2352 l 1,13,-1
 1344 2080 l 1,0,-1
EndSplineSet
EndChar

StartChar: s
Encoding: 115 115 86
Width: 1888
GlyphClass: 2
Flags: W
LayerCount: 2
Fore
SplineSet
912 2064 m 0,0,1
 720 2064 720 2064 624 1976 c 128,-1,2
 528 1888 528 1888 528 1744 c 0,3,4
 528 1568 528 1568 624 1464 c 128,-1,5
 720 1360 720 1360 896 1328 c 1,6,-1
 1024 1296 l 1,7,8
 1232 1248 1232 1248 1360 1160 c 128,-1,9
 1488 1072 1488 1072 1560 936 c 128,-1,10
 1632 800 1632 800 1632 592 c 0,11,12
 1632 304 1632 304 1456 152 c 128,-1,13
 1280 0 1280 0 976 0 c 256,14,15
 672 0 672 0 472 176 c 128,-1,16
 272 352 272 352 240 720 c 1,17,-1
 544 720 l 1,18,19
 576 496 576 496 688 392 c 128,-1,20
 800 288 800 288 976 288 c 0,21,22
 1168 288 1168 288 1256 368 c 128,-1,23
 1344 448 1344 448 1344 592 c 0,24,25
 1344 704 1344 704 1320 776 c 128,-1,26
 1296 848 1296 848 1216 920 c 128,-1,27
 1136 992 1136 992 1008 1008 c 1,28,-1
 880 1040 l 1,29,30
 672 1072 672 1072 456 1232 c 128,-1,31
 240 1392 240 1392 240 1744 c 0,32,33
 240 2016 240 2016 416 2184 c 128,-1,34
 592 2352 592 2352 816 2352 c 2,35,-1
 992 2352 l 2,36,37
 1232 2352 1232 2352 1424 2168 c 128,-1,38
 1616 1984 1616 1984 1632 1648 c 1,39,-1
 1328 1648 l 1,40,41
 1312 1840 1312 1840 1192 1952 c 128,-1,42
 1072 2064 1072 2064 912 2064 c 0,0,1
EndSplineSet
EndChar

StartChar: t
Encoding: 116 116 87
Width: 1440
GlyphClass: 2
Flags: W
LayerCount: 2
Fore
SplineSet
720 0 m 2,0,1
 320 0 320 0 320 416 c 2,2,-1
 320 2080 l 1,3,-1
 80 2080 l 1,4,-1
 80 2352 l 1,5,-1
 320 2352 l 1,6,-1
 320 3104 l 1,7,-1
 608 3104 l 1,8,-1
 608 2352 l 1,9,-1
 1200 2352 l 1,10,-1
 1200 2080 l 1,11,-1
 608 2080 l 1,12,-1
 608 416 l 2,13,14
 608 288 608 288 720 288 c 2,15,-1
 1200 288 l 1,16,-1
 1200 0 l 1,17,-1
 720 0 l 2,0,1
EndSplineSet
EndChar

StartChar: u
Encoding: 117 117 88
Width: 2048
GlyphClass: 2
Flags: W
LayerCount: 2
Fore
SplineSet
1728 0 m 1,0,-1
 1424 0 l 1,1,-1
 1424 208 l 1,2,3
 1200 0 1200 0 880 0 c 0,4,5
 624 0 624 0 472 120 c 128,-1,6
 320 240 320 240 320 528 c 2,7,-1
 320 2352 l 1,8,-1
 624 2352 l 1,9,-1
 624 544 l 2,10,11
 624 288 624 288 896 288 c 0,12,13
 1184 288 1184 288 1424 576 c 1,14,-1
 1424 2352 l 1,15,-1
 1728 2352 l 1,16,-1
 1728 0 l 1,0,-1
EndSplineSet
EndChar

StartChar: v
Encoding: 118 118 89
Width: 1952
GlyphClass: 2
Flags: W
LayerCount: 2
Fore
SplineSet
1760 2352 m 1,0,-1
 1200 0 l 1,1,-1
 784 0 l 1,2,-1
 160 2352 l 1,3,-1
 512 2352 l 1,4,-1
 992 400 l 1,5,-1
 1424 2352 l 1,6,-1
 1760 2352 l 1,0,-1
EndSplineSet
EndChar

StartChar: w
Encoding: 119 119 90
Width: 2656
GlyphClass: 2
Flags: W
LayerCount: 2
Fore
SplineSet
2512 2352 m 1,0,-1
 2096 0 l 1,1,-1
 1632 0 l 1,2,-1
 1344 1984 l 1,3,-1
 1040 0 l 1,4,-1
 576 0 l 1,5,-1
 160 2352 l 1,6,-1
 480 2352 l 1,7,-1
 800 368 l 1,8,-1
 1136 2352 l 1,9,-1
 1568 2352 l 1,10,-1
 1856 368 l 1,11,-1
 2192 2352 l 1,12,-1
 2512 2352 l 1,0,-1
EndSplineSet
EndChar

StartChar: x
Encoding: 120 120 91
Width: 1888
GlyphClass: 2
Flags: W
LayerCount: 2
Fore
SplineSet
512 0 m 1,0,-1
 160 0 l 1,1,-1
 764 1184 l 1,2,-1
 176 2352 l 1,3,-1
 512 2352 l 1,4,-1
 936 1521 l 1,5,-1
 1360 2352 l 1,6,-1
 1696 2352 l 1,7,-1
 1108 1184 l 1,8,-1
 1712 0 l 1,9,-1
 1360 0 l 1,10,-1
 936 842 l 1,11,-1
 512 0 l 1,0,-1
EndSplineSet
EndChar

StartChar: y
Encoding: 121 121 92
Width: 1952
GlyphClass: 2
Flags: W
LayerCount: 2
Fore
SplineSet
1792 2352 m 1,0,-1
 784 -576 l 1,1,-1
 464 -576 l 1,2,-1
 843 526 l 1,3,-1
 160 2352 l 1,4,-1
 480 2352 l 1,5,-1
 995 966 l 1,6,-1
 1472 2352 l 1,7,-1
 1792 2352 l 1,0,-1
EndSplineSet
EndChar

StartChar: z
Encoding: 122 122 93
Width: 1872
GlyphClass: 2
Flags: W
LayerCount: 2
Fore
SplineSet
1696 0 m 1,0,-1
 160 0 l 1,1,-1
 160 288 l 1,2,-1
 1360 2080 l 1,3,-1
 160 2080 l 1,4,-1
 160 2352 l 1,5,-1
 1696 2352 l 1,6,-1
 1696 2080 l 1,7,-1
 528 288 l 1,8,-1
 1696 288 l 1,9,-1
 1696 0 l 1,0,-1
EndSplineSet
EndChar

StartChar: braceleft
Encoding: 123 123 94
Width: 960
GlyphClass: 2
Flags: W
LayerCount: 2
Fore
SplineSet
880 -432 m 1,0,1
 272 -432 272 -432 272 128 c 2,2,-1
 272 1024 l 1,3,4
 304 1360 304 1360 64 1408 c 1,5,-1
 64 1568 l 1,6,7
 320 1600 320 1600 272 1952 c 1,8,-1
 272 2768 l 2,9,10
 272 3344 272 3344 880 3344 c 1,11,-1
 880 3136 l 1,12,13
 560 3136 560 3136 560 2768 c 2,14,-1
 560 1952 l 2,15,16
 560 1616 560 1616 320 1488 c 1,17,18
 560 1344 560 1344 560 1024 c 2,19,-1
 560 128 l 2,20,21
 560 -240 560 -240 880 -240 c 1,22,-1
 880 -432 l 1,0,1
EndSplineSet
EndChar

StartChar: bar
Encoding: 124 124 95
Width: 960
GlyphClass: 2
Flags: W
LayerCount: 2
Fore
SplineSet
624 -352 m 1,0,-1
 336 -352 l 1,1,-1
 336 3328 l 1,2,-1
 624 3328 l 1,3,-1
 624 -352 l 1,0,-1
EndSplineSet
EndChar

StartChar: braceright
Encoding: 125 125 96
Width: 960
GlyphClass: 2
Flags: W
LayerCount: 2
Fore
SplineSet
80 3344 m 1,0,1
 704 3344 704 3344 704 2784 c 2,2,-1
 704 1888 l 1,3,4
 656 1552 656 1552 896 1504 c 1,5,-1
 896 1344 l 1,6,7
 656 1312 656 1312 704 960 c 1,8,-1
 704 144 l 2,9,10
 704 -432 704 -432 80 -432 c 1,11,-1
 80 -224 l 1,12,13
 400 -224 400 -224 400 144 c 2,14,-1
 400 960 l 2,15,16
 400 1296 400 1296 656 1424 c 1,17,18
 400 1568 400 1568 400 1888 c 2,19,-1
 400 2784 l 2,20,21
 400 3152 400 3152 80 3152 c 1,22,-1
 80 3344 l 1,0,1
EndSplineSet
EndChar

StartChar: asciitilde
Encoding: 126 126 97
Width: 1696
GlyphClass: 2
Flags: W
LayerCount: 2
Fore
SplineSet
1472 2880 m 1,0,1
 1248 2448 1248 2448 784 2704 c 1,2,3
 512 2896 512 2896 352 2640 c 1,4,-1
 160 2816 l 1,5,6
 384 3296 384 3296 816 3024 c 1,7,8
 1088 2800 1088 2800 1280 3088 c 1,9,-1
 1472 2880 l 1,0,1
EndSplineSet
EndChar

StartChar: uni00A0
Encoding: 160 160 98
Width: 2048
GlyphClass: 2
Flags: W
LayerCount: 2
Fore
SplineSet
1472 2880 m 1,0,1
 1248 2448 1248 2448 784 2704 c 1,2,3
 512 2896 512 2896 352 2640 c 1,4,-1
 160 2816 l 1,5,6
 384 3296 384 3296 816 3024 c 1,7,8
 1088 2800 1088 2800 1280 3088 c 1,9,-1
 1472 2880 l 1,0,1
EndSplineSet
EndChar

StartChar: exclamdown
Encoding: 161 161 99
Width: 896
GlyphClass: 2
Flags: W
LayerCount: 2
Fore
SplineSet
272 -304 m 1,0,-1
 320 2192 l 1,1,-1
 576 2192 l 1,2,-1
 624 -304 l 1,3,-1
 272 -304 l 1,0,-1
608 3248 m 1,4,-1
 608 2720 l 1,5,-1
 304 2720 l 1,6,-1
 304 3248 l 1,7,-1
 608 3248 l 1,4,-1
EndSplineSet
EndChar

StartChar: cent
Encoding: 162 162 100
Width: 2048
GlyphClass: 2
Flags: W
LayerCount: 2
Fore
SplineSet
208 1632 m 0,0,1
 208 2144 208 2144 440 2424 c 128,-1,2
 672 2704 672 2704 1008 2704 c 0,3,4
 1104 2704 1104 2704 1184 2688 c 1,5,-1
 1248 2992 l 1,6,-1
 1392 2960 l 1,7,-1
 1312 2656 l 1,8,9
 1552 2576 1552 2576 1680 2392 c 128,-1,10
 1808 2208 1808 2208 1840 1920 c 1,11,-1
 1520 1920 l 1,12,13
 1488 2096 1488 2096 1424 2216 c 128,-1,14
 1360 2336 1360 2336 1248 2368 c 1,15,-1
 896 864 l 1,16,17
 976 848 976 848 1040 848 c 0,18,19
 1216 848 1216 848 1352 952 c 128,-1,20
 1488 1056 1488 1056 1520 1248 c 1,21,-1
 1824 1248 l 1,22,23
 1792 960 1792 960 1576 760 c 128,-1,24
 1360 560 1360 560 1040 560 c 0,25,26
 928 560 928 560 832 576 c 1,27,-1
 720 80 l 1,28,-1
 576 112 l 1,29,-1
 704 640 l 1,30,31
 496 720 496 720 352 976 c 128,-1,32
 208 1232 208 1232 208 1632 c 0,0,1
1008 2400 m 2,33,34
 800 2400 800 2400 648 2216 c 128,-1,35
 496 2032 496 2032 496 1616 c 0,36,37
 496 1360 496 1360 560 1200 c 128,-1,38
 624 1040 624 1040 768 944 c 1,39,-1
 1120 2400 l 1,40,-1
 1008 2400 l 2,33,34
EndSplineSet
EndChar

StartChar: sterling
Encoding: 163 163 101
Width: 2736
GlyphClass: 2
Flags: W
LayerCount: 2
Fore
SplineSet
1888 320 m 0,0,1
 2048 320 2048 320 2152 432 c 128,-1,2
 2256 544 2256 544 2256 976 c 1,3,-1
 2592 880 l 1,4,5
 2592 336 2592 336 2408 168 c 128,-1,6
 2224 0 2224 0 1920 0 c 0,7,8
 1680 0 1680 0 1376 192 c 1,9,10
 1184 0 1184 0 720 0 c 0,11,12
 496 0 496 0 320 112 c 128,-1,13
 144 224 144 224 144 432 c 0,14,15
 144 704 144 704 304 800 c 128,-1,16
 464 896 464 896 672 896 c 0,17,18
 928 896 928 896 1232 688 c 1,19,20
 1248 752 1248 752 1248 816 c 0,21,22
 1248 1200 1248 1200 1056 1552 c 1,23,-1
 416 1552 l 1,24,-1
 416 1792 l 1,25,-1
 944 1792 l 1,26,27
 832 2016 832 2016 832 2272 c 0,28,29
 832 2656 832 2656 1016 2880 c 128,-1,30
 1200 3104 1200 3104 1568 3104 c 0,31,32
 1920 3104 1920 3104 2120 2920 c 128,-1,33
 2320 2736 2320 2736 2320 2496 c 1,34,-1
 1920 2496 l 1,35,36
 1920 2608 1920 2608 1840 2712 c 128,-1,37
 1760 2816 1760 2816 1568 2816 c 256,38,39
 1376 2816 1376 2816 1288 2656 c 128,-1,40
 1200 2496 1200 2496 1200 2272 c 256,41,42
 1200 2048 1200 2048 1328 1792 c 1,43,-1
 2128 1792 l 1,44,-1
 2128 1552 l 1,45,-1
 1472 1552 l 1,46,47
 1664 1152 1664 1152 1664 832 c 0,48,49
 1664 656 1664 656 1568 464 c 1,50,51
 1760 320 1760 320 1888 320 c 0,0,1
672 608 m 0,52,53
 480 608 480 608 480 432 c 0,54,55
 480 272 480 272 720 256 c 1,56,57
 960 256 960 256 1104 432 c 1,58,59
 880 608 880 608 672 608 c 0,52,53
EndSplineSet
EndChar

StartChar: currency
Encoding: 164 164 102
Width: 2096
GlyphClass: 2
Flags: W
LayerCount: 2
Fore
SplineSet
560 1472 m 0,0,1
 560 976 560 976 704 736 c 128,-1,2
 848 496 848 496 1056 496 c 0,3,4
 1312 496 1312 496 1432 808 c 128,-1,5
 1552 1120 1552 1120 1552 1472 c 0,6,7
 1552 1904 1552 1904 1416 2168 c 128,-1,8
 1280 2432 1280 2432 1056 2432 c 0,9,10
 816 2432 816 2432 688 2152 c 128,-1,11
 560 1872 560 1872 560 1472 c 0,0,1
368 1472 m 1,12,13
 368 1904 368 1904 512 2288 c 1,14,-1
 240 2800 l 1,15,-1
 384 3072 l 1,16,-1
 656 2544 l 1,17,18
 832 2800 832 2800 1056 2800 c 0,19,20
 1296 2800 1296 2800 1472 2528 c 1,21,-1
 1744 3056 l 1,22,-1
 1888 2816 l 1,23,-1
 1616 2272 l 1,24,25
 1744 1920 1744 1920 1728 1472 c 1,26,27
 1728 1024 1728 1024 1600 672 c 1,28,-1
 1888 112 l 1,29,-1
 1760 -128 l 1,30,-1
 1472 416 l 1,31,32
 1296 160 1296 160 1056 160 c 0,33,34
 832 160 832 160 640 400 c 1,35,-1
 384 -128 l 1,36,-1
 240 128 l 1,37,-1
 512 656 l 1,38,39
 384 976 384 976 368 1472 c 1,12,13
EndSplineSet
EndChar

StartChar: yen
Encoding: 165 165 103
Width: 2416
GlyphClass: 2
Flags: W
LayerCount: 2
Fore
SplineSet
1392 640 m 1,0,-1
 1392 0 l 1,1,-1
 1040 0 l 1,2,-1
 1040 640 l 1,3,-1
 256 640 l 1,4,-1
 256 896 l 1,5,-1
 1040 896 l 1,6,-1
 1040 1472 l 1,7,-1
 256 1472 l 1,8,-1
 256 1728 l 1,9,-1
 960 1728 l 1,10,-1
 208 3104 l 1,11,-1
 592 3104 l 1,12,-1
 1216 1952 l 1,13,-1
 1840 3104 l 1,14,-1
 2208 3104 l 1,15,-1
 1472 1728 l 1,16,-1
 2160 1728 l 1,17,-1
 2160 1472 l 1,18,-1
 1392 1472 l 1,19,-1
 1392 896 l 1,20,-1
 2160 896 l 1,21,-1
 2160 640 l 1,22,-1
 1392 640 l 1,0,-1
EndSplineSet
EndChar

StartChar: brokenbar
Encoding: 166 166 104
Width: 928
GlyphClass: 2
Flags: W
LayerCount: 2
Fore
SplineSet
384 -304 m 1,0,-1
 384 3248 l 1,1,-1
 544 3248 l 1,2,-1
 544 -304 l 1,3,-1
 384 -304 l 1,0,-1
EndSplineSet
EndChar

StartChar: section
Encoding: 167 167 105
Width: 4096
GlyphClass: 2
Flags: W
LayerCount: 2
Fore
SplineSet
1088 464 m 1,0,1
 1152 -32 1152 -32 2064 -32 c 0,2,3
 2992 -32 2992 -32 2992 336 c 0,4,5
 2992 512 2992 512 2656 632 c 128,-1,6
 2320 752 2320 752 1792 880 c 1,7,8
 1120 1040 1120 1040 888 1184 c 128,-1,9
 656 1328 656 1328 656 1584 c 0,10,11
 656 1824 656 1824 1232 2064 c 1,12,13
 800 2272 800 2272 800 2576 c 0,14,15
 800 2896 800 2896 1112 3072 c 128,-1,16
 1424 3248 1424 3248 2064 3248 c 0,17,18
 3344 3248 3344 3248 3424 2480 c 1,19,-1
 3024 2480 l 1,20,21
 3008 2960 3008 2960 2064 2960 c 0,22,23
 1232 2960 1232 2960 1232 2576 c 0,24,25
 1232 2368 1232 2368 1552 2256 c 128,-1,26
 1872 2144 1872 2144 2240 2064 c 1,27,28
 2864 1888 2864 1888 3144 1736 c 128,-1,29
 3424 1584 3424 1584 3424 1344 c 0,30,31
 3424 1056 3424 1056 2896 864 c 1,32,33
 3408 672 3408 672 3408 336 c 0,34,35
 3408 48 3408 48 3024 -128 c 128,-1,36
 2640 -304 2640 -304 2064 -304 c 0,37,38
 768 -304 768 -304 656 464 c 1,39,-1
 1088 464 l 1,0,1
1632 1936 m 1,40,41
 1072 1776 1072 1776 1072 1584 c 0,42,43
 1072 1360 1072 1360 2000 1136 c 1,44,-1
 2512 1008 l 1,45,46
 2992 1136 2992 1136 2992 1360 c 256,47,48
 2992 1584 2992 1584 2176 1792 c 1,49,-1
 1632 1936 l 1,40,41
EndSplineSet
Substitution2: "'vert' Vertical Alternates (obs) in Hiragana & Katakana lookup 0 subtable" section.vert
EndChar

StartChar: dieresis
Encoding: 168 168 106
Width: 2048
GlyphClass: 2
Flags: W
LayerCount: 2
Fore
SplineSet
288 3104 m 1,0,-1
 784 3104 l 1,1,-1
 784 2624 l 1,2,-1
 288 2624 l 1,3,-1
 288 3104 l 1,0,-1
1280 3104 m 1,4,-1
 1776 3104 l 1,5,-1
 1776 2624 l 1,6,-1
 1280 2624 l 1,7,-1
 1280 3104 l 1,4,-1
EndSplineSet
Substitution2: "'vert' Vertical Alternates (obs) in Hiragana & Katakana lookup 0 subtable" dieresis.vert
EndChar

StartChar: copyright
Encoding: 169 169 107
Width: 2736
GlyphClass: 2
Flags: W
LayerCount: 2
Fore
SplineSet
768 1456 m 0,0,1
 768 1712 768 1712 944 1912 c 128,-1,2
 1120 2112 1120 2112 1360 2112 c 0,3,4
 1568 2112 1568 2112 1712 1984 c 128,-1,5
 1856 1856 1856 1856 1904 1616 c 1,6,-1
 1696 1616 l 1,7,8
 1664 1776 1664 1776 1584 1848 c 128,-1,9
 1504 1920 1504 1920 1360 1920 c 256,10,11
 1216 1920 1216 1920 1096 1800 c 128,-1,12
 976 1680 976 1680 976 1456 c 256,13,14
 976 1232 976 1232 1088 1104 c 128,-1,15
 1200 976 1200 976 1360 976 c 0,16,17
 1504 976 1504 976 1592 1064 c 128,-1,18
 1680 1152 1680 1152 1712 1312 c 1,19,-1
 1920 1312 l 1,20,21
 1904 1088 1904 1088 1752 944 c 128,-1,22
 1600 800 1600 800 1360 800 c 256,23,24
 1120 800 1120 800 944 992 c 128,-1,25
 768 1184 768 1184 768 1456 c 0,0,1
240 1472 m 0,26,27
 240 2048 240 2048 584 2392 c 128,-1,28
 928 2736 928 2736 1360 2736 c 0,29,30
 1856 2736 1856 2736 2168 2392 c 128,-1,31
 2480 2048 2480 2048 2480 1472 c 0,32,33
 2480 944 2480 944 2168 576 c 128,-1,34
 1856 208 1856 208 1360 208 c 256,35,36
 864 208 864 208 552 576 c 128,-1,37
 240 944 240 944 240 1472 c 0,26,27
416 1472 m 1,38,39
 432 992 432 992 696 696 c 128,-1,40
 960 400 960 400 1360 400 c 256,41,42
 1760 400 1760 400 2040 704 c 128,-1,43
 2320 1008 2320 1008 2320 1472 c 256,44,45
 2320 1936 2320 1936 2040 2240 c 128,-1,46
 1760 2544 1760 2544 1360 2544 c 256,47,48
 960 2544 960 2544 688 2232 c 128,-1,49
 416 1920 416 1920 416 1472 c 1,38,39
EndSplineSet
EndChar

StartChar: ordfeminine
Encoding: 170 170 108
Width: 1456
GlyphClass: 2
Flags: W
LayerCount: 2
Fore
SplineSet
800 3248 m 2,0,1
 912 3248 912 3248 984 3144 c 128,-1,2
 1056 3040 1056 3040 1056 2864 c 2,3,-1
 1056 2352 l 1,4,-1
 1088 2112 l 1,5,-1
 944 2112 l 1,6,-1
 928 2240 l 1,7,8
 880 2176 880 2176 832 2144 c 128,-1,9
 784 2112 784 2112 688 2112 c 0,10,11
 560 2112 560 2112 496 2192 c 128,-1,12
 432 2272 432 2272 432 2400 c 0,13,14
 432 2624 432 2624 576 2728 c 128,-1,15
 720 2832 720 2832 912 2848 c 1,16,-1
 912 2928 l 2,17,18
 912 2992 912 2992 872 3056 c 128,-1,19
 832 3120 832 3120 752 3120 c 256,20,21
 672 3120 672 3120 632 3064 c 128,-1,22
 592 3008 592 3008 592 2928 c 1,23,-1
 464 2928 l 1,24,25
 464 3072 464 3072 528 3160 c 128,-1,26
 592 3248 592 3248 688 3248 c 2,27,-1
 800 3248 l 2,0,1
912 2704 m 1,28,29
 752 2688 752 2688 664 2624 c 128,-1,30
 576 2560 576 2560 576 2416 c 0,31,32
 576 2336 576 2336 608 2296 c 128,-1,33
 640 2256 640 2256 688 2256 c 0,34,35
 768 2256 768 2256 816 2288 c 128,-1,36
 864 2320 864 2320 912 2432 c 1,37,-1
 912 2704 l 1,28,29
EndSplineSet
EndChar

StartChar: guillemotleft
Encoding: 171 171 109
Width: 2736
GlyphClass: 2
Flags: W
LayerCount: 2
Fore
SplineSet
1856 2656 m 1,0,-1
 512 1472 l 1,1,-1
 1856 288 l 1,2,-1
 1712 144 l 1,3,-1
 224 1472 l 1,4,-1
 1712 2784 l 1,5,-1
 1856 2656 l 1,0,-1
2512 2656 m 1,6,-1
 1168 1472 l 1,7,-1
 2512 288 l 1,8,-1
 2368 144 l 1,9,-1
 864 1472 l 1,10,-1
 2368 2784 l 1,11,-1
 2512 2656 l 1,6,-1
EndSplineSet
EndChar

StartChar: logicalnot
Encoding: 172 172 110
Width: 2624
GlyphClass: 2
Flags: W
LayerCount: 2
Fore
SplineSet
224 2048 m 1,0,-1
 2304 2048 l 1,1,-1
 2304 1040 l 1,2,-1
 2000 1040 l 1,3,-1
 2000 1792 l 1,4,-1
 224 1792 l 1,5,-1
 224 2048 l 1,0,-1
EndSplineSet
EndChar

StartChar: uni00AD
Encoding: 173 173 111
Width: 2064
GlyphClass: 2
Flags: W
LayerCount: 2
Fore
SplineSet
128 1616 m 1,0,-1
 1920 1616 l 1,1,-1
 1920 1344 l 1,2,-1
 128 1344 l 1,3,-1
 128 1616 l 1,0,-1
EndSplineSet
EndChar

StartChar: registered
Encoding: 174 174 112
Width: 2736
GlyphClass: 2
Flags: W
LayerCount: 2
Fore
SplineSet
240 1472 m 0,0,1
 240 2048 240 2048 584 2392 c 128,-1,2
 928 2736 928 2736 1360 2736 c 0,3,4
 1856 2736 1856 2736 2168 2392 c 128,-1,5
 2480 2048 2480 2048 2480 1472 c 0,6,7
 2480 944 2480 944 2168 576 c 128,-1,8
 1856 208 1856 208 1360 208 c 256,9,10
 864 208 864 208 552 576 c 128,-1,11
 240 944 240 944 240 1472 c 0,0,1
416 1472 m 1,12,13
 432 992 432 992 696 696 c 128,-1,14
 960 400 960 400 1360 400 c 256,15,16
 1760 400 1760 400 2040 704 c 128,-1,17
 2320 1008 2320 1008 2320 1472 c 256,18,19
 2320 1936 2320 1936 2040 2240 c 128,-1,20
 1760 2544 1760 2544 1360 2544 c 256,21,22
 960 2544 960 2544 688 2232 c 128,-1,23
 416 1920 416 1920 416 1472 c 1,12,13
1920 752 m 1,24,-1
 1728 752 l 1,25,-1
 1360 1472 l 1,26,-1
 1104 1472 l 1,27,-1
 1104 752 l 1,28,-1
 960 752 l 1,29,-1
 960 2208 l 1,30,-1
 1456 2208 l 2,31,32
 1648 2208 1648 2208 1752 2096 c 128,-1,33
 1856 1984 1856 1984 1856 1840 c 256,34,35
 1856 1696 1856 1696 1784 1592 c 128,-1,36
 1712 1488 1712 1488 1520 1472 c 1,37,-1
 1920 752 l 1,24,-1
1104 1600 m 1,38,-1
 1456 1600 l 2,39,40
 1552 1600 1552 1600 1616 1656 c 128,-1,41
 1680 1712 1680 1712 1680 1840 c 0,42,43
 1680 1952 1680 1952 1616 2008 c 128,-1,44
 1552 2064 1552 2064 1456 2064 c 2,45,-1
 1104 2064 l 1,46,-1
 1104 1600 l 1,38,-1
EndSplineSet
EndChar

StartChar: macron
Encoding: 175 175 113
Width: 2736
GlyphClass: 2
Flags: W
LayerCount: 2
Fore
SplineSet
0 3520 m 1,0,-1
 2736 3520 l 1,1,-1
 2736 3248 l 1,2,-1
 0 3248 l 1,3,-1
 0 3520 l 1,0,-1
EndSplineSet
EndChar

StartChar: degree
Encoding: 176 176 114
Width: 4096
GlyphClass: 2
Flags: W
LayerCount: 2
Fore
SplineSet
912 3312 m 0,0,1
 1184 3312 1184 3312 1392 3120 c 128,-1,2
 1600 2928 1600 2928 1600 2608 c 0,3,4
 1600 2272 1600 2272 1400 2088 c 128,-1,5
 1200 1904 1200 1904 912 1904 c 256,6,7
 624 1904 624 1904 424 2088 c 128,-1,8
 224 2272 224 2272 224 2608 c 0,9,10
 224 2928 224 2928 408 3120 c 128,-1,11
 592 3312 592 3312 912 3312 c 0,0,1
912 3024 m 0,12,13
 720 3024 720 3024 616 2912 c 128,-1,14
 512 2800 512 2800 512 2608 c 256,15,16
 512 2416 512 2416 624 2312 c 128,-1,17
 736 2208 736 2208 912 2208 c 0,18,19
 1072 2208 1072 2208 1184 2312 c 128,-1,20
 1296 2416 1296 2416 1296 2608 c 0,21,22
 1296 2768 1296 2768 1192 2896 c 128,-1,23
 1088 3024 1088 3024 912 3024 c 0,12,13
EndSplineSet
Substitution2: "'vert' Vertical Alternates (obs) in Hiragana & Katakana lookup 0 subtable" degree.vert
EndChar

StartChar: plusminus
Encoding: 177 177 115
Width: 4096
GlyphClass: 2
Flags: W
LayerCount: 2
Fore
SplineSet
1904 3248 m 1,0,-1
 2192 3248 l 1,1,-1
 2192 2048 l 1,2,-1
 3456 2048 l 1,3,-1
 3456 1728 l 1,4,-1
 2192 1728 l 1,5,-1
 2192 512 l 1,6,-1
 1904 512 l 1,7,-1
 1904 1728 l 1,8,-1
 640 1728 l 1,9,-1
 640 2048 l 1,10,-1
 1904 2048 l 1,11,-1
 1904 3248 l 1,0,-1
640 -16 m 1,12,-1
 3456 -16 l 1,13,-1
 3456 -304 l 1,14,-1
 640 -304 l 1,15,-1
 640 -16 l 1,12,-1
EndSplineSet
Substitution2: "'vert' Vertical Alternates (obs) in Hiragana & Katakana lookup 0 subtable" plusminus.vert
EndChar

StartChar: uni00B2
Encoding: 178 178 116
Width: 976
GlyphClass: 2
Flags: W
LayerCount: 2
Fore
SplineSet
272 3424 m 0,0,1
 368 3424 368 3424 432 3328 c 128,-1,2
 496 3232 496 3232 496 3056 c 0,3,4
 496 2848 496 2848 400 2640 c 1,5,-1
 176 2224 l 1,6,-1
 496 2224 l 1,7,-1
 496 2064 l 1,8,-1
 64 2064 l 1,9,-1
 64 2240 l 1,10,-1
 304 2688 l 1,11,12
 416 2880 416 2880 416 3056 c 0,13,14
 416 3184 416 3184 376 3224 c 128,-1,15
 336 3264 336 3264 272 3264 c 0,16,17
 224 3264 224 3264 184 3224 c 128,-1,18
 144 3184 144 3184 144 3040 c 1,19,-1
 64 3040 l 1,20,21
 64 3216 64 3216 128 3320 c 128,-1,22
 192 3424 192 3424 272 3424 c 0,0,1
EndSplineSet
EndChar

StartChar: uni00B3
Encoding: 179 179 117
Width: 976
GlyphClass: 2
Flags: W
LayerCount: 2
Fore
SplineSet
288 2912 m 1,0,1
 496 2912 496 2912 496 2480 c 0,2,3
 496 2064 496 2064 240 2064 c 2,4,-1
 64 2064 l 1,5,-1
 64 2208 l 1,6,-1
 240 2208 l 2,7,8
 384 2208 384 2208 384 2480 c 0,9,10
 384 2784 384 2784 240 2784 c 2,11,-1
 128 2784 l 1,12,-1
 128 2896 l 1,13,-1
 352 3280 l 1,14,-1
 64 3280 l 1,15,-1
 64 3424 l 1,16,-1
 496 3424 l 1,17,-1
 496 3280 l 1,18,-1
 288 2912 l 1,0,1
EndSplineSet
EndChar

StartChar: acute
Encoding: 180 180 118
Width: 2048
GlyphClass: 2
Flags: W
LayerCount: 2
Fore
SplineSet
992 3104 m 1,0,-1
 1488 3104 l 1,1,-1
 1008 2608 l 1,2,-1
 688 2608 l 1,3,-1
 992 3104 l 1,0,-1
EndSplineSet
Substitution2: "'vert' Vertical Alternates (obs) in Hiragana & Katakana lookup 0 subtable" acute.vert
EndChar

StartChar: uni00B5
Encoding: 181 181 119
Width: 2064
GlyphClass: 2
Flags: W
LayerCount: 2
Fore
SplineSet
1744 0 m 1,0,-1
 1376 0 l 1,1,-1
 1376 208 l 1,2,3
 1184 0 1184 0 976 0 c 0,4,5
 784 0 784 0 688 176 c 1,6,-1
 688 -576 l 1,7,-1
 304 -576 l 1,8,-1
 304 1920 l 1,9,-1
 688 1920 l 1,10,-1
 688 544 l 1,11,12
 816 288 816 288 976 288 c 0,13,14
 1184 288 1184 288 1376 576 c 1,15,-1
 1376 1920 l 1,16,-1
 1744 1920 l 1,17,-1
 1744 0 l 1,0,-1
EndSplineSet
EndChar

StartChar: paragraph
Encoding: 182 182 120
Width: 2048
GlyphClass: 2
Flags: W
LayerCount: 2
Fore
SplineSet
416 -304 m 1,0,-1
 416 1920 l 1,1,2
 272 1904 272 1904 176 2096 c 128,-1,3
 80 2288 80 2288 80 2592 c 0,4,5
 80 2880 80 2880 176 3064 c 128,-1,6
 272 3248 272 3248 432 3248 c 2,7,-1
 976 3248 l 1,8,-1
 976 2992 l 1,9,-1
 928 2992 l 1,10,-1
 928 -304 l 1,11,-1
 768 -304 l 1,12,-1
 768 2992 l 1,13,-1
 576 2992 l 1,14,-1
 576 -304 l 1,15,-1
 416 -304 l 1,0,-1
EndSplineSet
Substitution2: "'vert' Vertical Alternates (obs) in Hiragana & Katakana lookup 0 subtable" paragraph.vert
EndChar

StartChar: periodcentered
Encoding: 183 183 121
Width: 832
GlyphClass: 2
Flags: W
LayerCount: 2
Fore
SplineSet
320 1280 m 1,0,-1
 320 1776 l 1,1,-1
 512 1776 l 1,2,-1
 512 1280 l 1,3,-1
 320 1280 l 1,0,-1
EndSplineSet
EndChar

StartChar: cedilla
Encoding: 184 184 122
Width: 832
GlyphClass: 2
Flags: W
LayerCount: 2
Fore
SplineSet
256 288 m 0,0,1
 256 416 256 416 296 528 c 128,-1,2
 336 640 336 640 400 640 c 256,3,4
 464 640 464 640 504 536 c 128,-1,5
 544 432 544 432 544 288 c 1,6,7
 560 -96 560 -96 488 -312 c 128,-1,8
 416 -528 416 -528 272 -576 c 1,9,-1
 256 -400 l 1,10,11
 336 -384 336 -384 368 -320 c 128,-1,12
 400 -256 400 -256 416 -160 c 128,-1,13
 432 -64 432 -64 400 -64 c 0,14,15
 336 -64 336 -64 296 32 c 128,-1,16
 256 128 256 128 256 288 c 0,0,1
EndSplineSet
EndChar

StartChar: uni00B9
Encoding: 185 185 123
Width: 976
GlyphClass: 2
Flags: W
LayerCount: 2
Fore
SplineSet
320 2064 m 1,0,-1
 176 2064 l 1,1,-1
 176 3040 l 1,2,-1
 64 3040 l 1,3,-1
 64 3232 l 1,4,5
 192 3232 192 3232 224 3424 c 1,6,-1
 320 3424 l 1,7,-1
 320 2064 l 1,0,-1
EndSplineSet
EndChar

StartChar: ordmasculine
Encoding: 186 186 124
Width: 976
GlyphClass: 2
Flags: W
LayerCount: 2
Fore
SplineSet
64 2752 m 0,0,1
 64 3008 64 3008 128 3216 c 128,-1,2
 192 3424 192 3424 304 3424 c 256,3,4
 416 3424 416 3424 480 3232 c 128,-1,5
 544 3040 544 3040 544 2752 c 0,6,7
 544 2448 544 2448 480 2256 c 128,-1,8
 416 2064 416 2064 304 2064 c 256,9,10
 192 2064 192 2064 128 2264 c 128,-1,11
 64 2464 64 2464 64 2752 c 0,0,1
160 2752 m 256,12,13
 160 2512 160 2512 200 2392 c 128,-1,14
 240 2272 240 2272 304 2272 c 256,15,16
 368 2272 368 2272 408 2392 c 128,-1,17
 448 2512 448 2512 448 2752 c 256,18,19
 448 2992 448 2992 408 3104 c 128,-1,20
 368 3216 368 3216 304 3216 c 256,21,22
 240 3216 240 3216 200 3104 c 128,-1,23
 160 2992 160 2992 160 2752 c 256,12,13
EndSplineSet
EndChar

StartChar: guillemotright
Encoding: 187 187 125
Width: 2736
GlyphClass: 2
Flags: W
LayerCount: 2
Fore
SplineSet
896 288 m 1,0,-1
 2240 1472 l 1,1,-1
 896 2656 l 1,2,-1
 1056 2800 l 1,3,-1
 2528 1472 l 1,4,-1
 1056 160 l 1,5,-1
 896 288 l 1,0,-1
256 288 m 1,6,-1
 1584 1472 l 1,7,-1
 256 2656 l 1,8,-1
 400 2800 l 1,9,-1
 1888 1472 l 1,10,-1
 400 160 l 1,11,-1
 256 288 l 1,6,-1
EndSplineSet
EndChar

StartChar: onequarter
Encoding: 188 188 126
Width: 2096
GlyphClass: 2
Flags: W
LayerCount: 2
Fore
SplineSet
1744 0 m 1,0,-1
 1536 0 l 1,1,-1
 1536 336 l 1,2,-1
 944 336 l 1,3,-1
 944 416 l 1,4,-1
 1568 1472 l 1,5,-1
 1744 1472 l 1,6,-1
 1744 512 l 1,7,-1
 1984 512 l 1,8,-1
 1984 336 l 1,9,-1
 1744 336 l 1,10,-1
 1744 0 l 1,0,-1
1536 1120 m 1,11,-1
 1168 512 l 1,12,-1
 1536 512 l 1,13,-1
 1536 1120 l 1,11,-1
1616 3104 m 1,14,-1
 1744 3072 l 1,15,-1
 464 16 l 1,16,-1
 336 64 l 1,17,-1
 1616 3104 l 1,14,-1
544 1632 m 1,18,-1
 352 1632 l 1,19,-1
 352 2816 l 1,20,-1
 144 2816 l 1,21,-1
 144 2960 l 1,22,23
 368 2960 368 2960 400 3104 c 1,24,-1
 544 3104 l 1,25,-1
 544 1632 l 1,18,-1
EndSplineSet
EndChar

StartChar: onehalf
Encoding: 189 189 127
Width: 2096
GlyphClass: 2
Flags: W
LayerCount: 2
Fore
SplineSet
1504 1472 m 0,0,1
 1696 1472 1696 1472 1824 1360 c 128,-1,2
 1952 1248 1952 1248 1952 1056 c 0,3,4
 1952 848 1952 848 1744 624 c 1,5,-1
 1296 176 l 1,6,-1
 1952 176 l 1,7,-1
 1952 0 l 1,8,-1
 1088 0 l 1,9,-1
 1088 192 l 1,10,-1
 1568 672 l 1,11,12
 1760 880 1760 880 1760 1056 c 0,13,14
 1760 1200 1760 1200 1688 1248 c 128,-1,15
 1616 1296 1616 1296 1504 1296 c 0,16,17
 1408 1296 1408 1296 1336 1248 c 128,-1,18
 1264 1200 1264 1200 1264 1040 c 1,19,-1
 1072 1040 l 1,20,21
 1072 1232 1072 1232 1200 1352 c 128,-1,22
 1328 1472 1328 1472 1504 1472 c 0,0,1
544 1632 m 1,23,-1
 352 1632 l 1,24,-1
 352 2832 l 1,25,-1
 144 2832 l 1,26,-1
 144 2960 l 1,27,28
 368 2976 368 2976 400 3104 c 1,29,-1
 544 3104 l 1,30,-1
 544 1632 l 1,23,-1
1616 3104 m 1,31,-1
 1744 3072 l 1,32,-1
 464 16 l 1,33,-1
 336 64 l 1,34,-1
 1616 3104 l 1,31,-1
EndSplineSet
EndChar

StartChar: threequarters
Encoding: 190 190 128
Width: 2096
GlyphClass: 2
Flags: W
LayerCount: 2
Fore
SplineSet
1808 0 m 1,0,-1
 1616 0 l 1,1,-1
 1616 336 l 1,2,-1
 1008 336 l 1,3,-1
 1008 544 l 1,4,-1
 1600 1472 l 1,5,-1
 1808 1472 l 1,6,-1
 1808 512 l 1,7,-1
 2064 512 l 1,8,-1
 2064 336 l 1,9,-1
 1808 336 l 1,10,-1
 1808 0 l 1,0,-1
1616 1136 m 1,11,-1
 1216 512 l 1,12,-1
 1616 512 l 1,13,-1
 1616 1136 l 1,11,-1
1616 3104 m 1,14,-1
 1744 3072 l 1,15,-1
 464 16 l 1,16,-1
 336 64 l 1,17,-1
 1616 3104 l 1,14,-1
560 2544 m 1,18,19
 976 2544 976 2544 976 2096 c 0,20,21
 976 1632 976 1632 464 1632 c 2,22,-1
 144 1632 l 1,23,-1
 144 1792 l 1,24,-1
 464 1792 l 2,25,26
 736 1792 736 1792 736 2096 c 0,27,28
 736 2416 736 2416 464 2416 c 2,29,-1
 256 2416 l 1,30,-1
 256 2544 l 1,31,-1
 672 2944 l 1,32,-1
 144 2944 l 1,33,-1
 144 3104 l 1,34,-1
 976 3104 l 1,35,-1
 976 2944 l 1,36,-1
 560 2544 l 1,18,19
EndSplineSet
EndChar

StartChar: questiondown
Encoding: 191 191 129
Width: 1856
GlyphClass: 2
Flags: W
LayerCount: 2
Fore
SplineSet
1136 3168 m 1,0,-1
 1136 2720 l 1,1,-1
 752 2720 l 1,2,-1
 752 3168 l 1,3,-1
 1136 3168 l 1,0,-1
896 -160 m 1,4,5
 544 -176 544 -176 328 40 c 128,-1,6
 112 256 112 256 112 560 c 0,7,8
 112 896 112 896 256 1072 c 128,-1,9
 400 1248 400 1248 576 1376 c 1,10,11
 752 1520 752 1520 776 1680 c 128,-1,12
 800 1840 800 1840 800 1984 c 2,13,-1
 800 2224 l 1,14,-1
 1104 2224 l 1,15,-1
 1104 1984 l 2,16,17
 1104 1824 1104 1824 1072 1640 c 128,-1,18
 1040 1456 1040 1456 832 1248 c 1,19,20
 624 1088 624 1088 512 952 c 128,-1,21
 400 816 400 816 400 576 c 0,22,23
 400 384 400 384 520 248 c 128,-1,24
 640 112 640 112 896 112 c 0,25,26
 1168 112 1168 112 1296 272 c 128,-1,27
 1424 432 1424 432 1424 672 c 2,28,-1
 1424 848 l 1,29,-1
 1696 848 l 1,30,-1
 1696 672 l 2,31,32
 1696 304 1696 304 1472 72 c 128,-1,33
 1248 -160 1248 -160 896 -160 c 1,4,5
EndSplineSet
EndChar

StartChar: Agrave
Encoding: 192 192 130
Width: 2592
GlyphClass: 2
Flags: W
LayerCount: 2
Fore
SplineSet
848 3520 m 1,0,-1
 1280 3520 l 1,1,-1
 1648 2720 l 1,2,-1
 1408 2720 l 1,3,-1
 848 3520 l 1,0,-1
2032 0 m 1,4,-1
 1760 0 l 1,5,-1
 1568 672 l 1,6,-1
 928 672 l 1,7,-1
 752 0 l 1,8,-1
 480 0 l 1,9,-1
 1104 2352 l 1,10,-1
 1408 2352 l 1,11,-1
 2032 0 l 1,4,-1
1008 960 m 1,12,-1
 1504 960 l 1,13,-1
 1248 1904 l 1,14,-1
 1008 960 l 1,12,-1
EndSplineSet
EndChar

StartChar: Aacute
Encoding: 193 193 131
Width: 2592
GlyphClass: 2
Flags: W
LayerCount: 2
Fore
SplineSet
1664 3520 m 1,0,-1
 1120 2720 l 1,1,-1
 864 2720 l 1,2,-1
 1232 3520 l 1,3,-1
 1664 3520 l 1,0,-1
2032 0 m 1,4,-1
 1760 0 l 1,5,-1
 1568 672 l 1,6,-1
 928 672 l 1,7,-1
 752 0 l 1,8,-1
 480 0 l 1,9,-1
 1104 2352 l 1,10,-1
 1408 2352 l 1,11,-1
 2032 0 l 1,4,-1
1008 960 m 1,12,-1
 1504 960 l 1,13,-1
 1248 1904 l 1,14,-1
 1008 960 l 1,12,-1
EndSplineSet
EndChar

StartChar: Acircumflex
Encoding: 194 194 132
Width: 2592
GlyphClass: 2
Flags: W
LayerCount: 2
Fore
SplineSet
1248 3520 m 1,0,-1
 1376 3520 l 1,1,-1
 1808 2832 l 1,2,-1
 1648 2672 l 1,3,-1
 1312 3216 l 1,4,-1
 976 2672 l 1,5,-1
 816 2832 l 1,6,-1
 1248 3520 l 1,0,-1
2096 0 m 1,7,-1
 1824 0 l 1,8,-1
 1632 672 l 1,9,-1
 992 672 l 1,10,-1
 816 0 l 1,11,-1
 544 0 l 1,12,-1
 1168 2352 l 1,13,-1
 1472 2352 l 1,14,-1
 2096 0 l 1,7,-1
1072 960 m 1,15,-1
 1568 960 l 1,16,-1
 1328 1904 l 1,17,-1
 1072 960 l 1,15,-1
EndSplineSet
EndChar

StartChar: Atilde
Encoding: 195 195 133
Width: 2592
GlyphClass: 2
Flags: W
LayerCount: 2
Fore
SplineSet
1936 2960 m 1,0,1
 1712 2656 1712 2656 1568 2656 c 256,2,3
 1424 2656 1424 2656 1312 2800 c 1,4,-1
 1120 3040 l 1,5,6
 1040 3152 1040 3152 928 3152 c 0,7,8
 800 3152 800 3152 544 2800 c 1,9,-1
 544 3200 l 1,10,11
 784 3520 784 3520 928 3520 c 256,12,13
 1072 3520 1072 3520 1168 3360 c 1,14,-1
 1360 3120 l 1,15,16
 1456 3008 1456 3008 1568 3008 c 256,17,18
 1680 3008 1680 3008 1936 3360 c 1,19,-1
 1936 2960 l 1,0,1
2016 0 m 1,20,-1
 1744 0 l 1,21,-1
 1552 672 l 1,22,-1
 912 672 l 1,23,-1
 736 0 l 1,24,-1
 464 0 l 1,25,-1
 1088 2352 l 1,26,-1
 1392 2352 l 1,27,-1
 2016 0 l 1,20,-1
992 960 m 1,28,-1
 1488 960 l 1,29,-1
 1232 1904 l 1,30,-1
 992 960 l 1,28,-1
EndSplineSet
EndChar

StartChar: Adieresis
Encoding: 196 196 134
Width: 2592
GlyphClass: 2
Flags: W
LayerCount: 2
Fore
SplineSet
640 2720 m 1,0,-1
 640 3520 l 1,1,-1
 1040 3520 l 1,2,-1
 1040 2720 l 1,3,-1
 640 2720 l 1,0,-1
1472 2720 m 1,4,-1
 1472 3520 l 1,5,-1
 1888 3520 l 1,6,-1
 1888 2720 l 1,7,-1
 1472 2720 l 1,4,-1
2064 0 m 1,8,-1
 1776 0 l 1,9,-1
 1600 672 l 1,10,-1
 960 672 l 1,11,-1
 784 0 l 1,12,-1
 496 0 l 1,13,-1
 1120 2352 l 1,14,-1
 1440 2352 l 1,15,-1
 2064 0 l 1,8,-1
1024 960 m 1,16,-1
 1536 960 l 1,17,-1
 1280 1904 l 1,18,-1
 1024 960 l 1,16,-1
EndSplineSet
EndChar

StartChar: Aring
Encoding: 197 197 135
Width: 2592
GlyphClass: 2
Flags: W
LayerCount: 2
Fore
SplineSet
832 3104 m 0,0,1
 832 3264 832 3264 960 3392 c 1,2,3
 1072 3520 1072 3520 1248 3520 c 0,4,5
 1408 3520 1408 3520 1536 3392 c 256,6,7
 1664 3264 1664 3264 1664 3104 c 0,8,9
 1664 2928 1664 2928 1536 2816 c 1,10,11
 1408 2688 1408 2688 1248 2688 c 0,12,13
 1072 2688 1072 2688 960 2816 c 1,14,15
 832 2928 832 2928 832 3104 c 0,0,1
976 3104 m 0,16,17
 976 2976 976 2976 1048 2896 c 128,-1,18
 1120 2816 1120 2816 1248 2816 c 0,19,20
 1360 2816 1360 2816 1440 2912 c 1,21,22
 1520 2976 1520 2976 1520 3104 c 0,23,24
 1520 3216 1520 3216 1440 3296 c 128,-1,25
 1360 3376 1360 3376 1248 3376 c 0,26,27
 1120 3376 1120 3376 1056 3296 c 1,28,29
 976 3216 976 3216 976 3104 c 0,16,17
2016 0 m 1,30,-1
 1744 0 l 1,31,-1
 1552 672 l 1,32,-1
 912 672 l 1,33,-1
 736 0 l 1,34,-1
 464 0 l 1,35,-1
 1088 2352 l 1,36,-1
 1392 2352 l 1,37,-1
 2016 0 l 1,30,-1
992 960 m 1,38,-1
 1488 960 l 1,39,-1
 1232 1904 l 1,40,-1
 992 960 l 1,38,-1
EndSplineSet
EndChar

StartChar: AE
Encoding: 198 198 136
Width: 2736
GlyphClass: 2
Flags: W
LayerCount: 2
Fore
SplineSet
1360 1840 m 1,0,-1
 960 960 l 1,1,-1
 1360 960 l 1,2,-1
 1360 1840 l 1,0,-1
1360 688 m 1,3,-1
 832 688 l 1,4,-1
 528 0 l 1,5,-1
 256 0 l 1,6,-1
 1344 2352 l 1,7,-1
 2496 2352 l 1,8,-1
 2496 2080 l 1,9,-1
 1568 2080 l 1,10,-1
 1568 1376 l 1,11,-1
 2320 1376 l 1,12,-1
 2320 1088 l 1,13,-1
 1568 1088 l 1,14,-1
 1568 272 l 1,15,-1
 2496 272 l 1,16,-1
 2496 0 l 1,17,-1
 1360 0 l 1,18,-1
 1360 688 l 1,3,-1
EndSplineSet
EndChar

StartChar: Ccedilla
Encoding: 199 199 137
Width: 2720
GlyphClass: 2
Flags: W
LayerCount: 2
Fore
SplineSet
1216 0 m 1,0,1
 752 48 752 48 416 392 c 128,-1,2
 80 736 80 736 80 1184 c 0,3,4
 80 1648 80 1648 440 2000 c 128,-1,5
 800 2352 800 2352 1424 2368 c 1,6,7
 2064 2352 2064 2352 2328 2144 c 128,-1,8
 2592 1936 2592 1936 2640 1552 c 1,9,-1
 2176 1552 l 1,10,11
 2096 1824 2096 1824 1928 1952 c 128,-1,12
 1760 2080 1760 2080 1424 2080 c 0,13,14
 1056 2080 1056 2080 808 1856 c 128,-1,15
 560 1632 560 1632 560 1184 c 0,16,17
 560 768 560 768 808 512 c 128,-1,18
 1056 256 1056 256 1376 256 c 256,19,20
 1696 256 1696 256 1912 384 c 128,-1,21
 2128 512 2128 512 2176 832 c 1,22,-1
 2640 832 l 1,23,24
 2624 432 2624 432 2312 232 c 128,-1,25
 2000 32 2000 32 1552 0 c 1,26,27
 1632 -32 1632 -32 1696 -32 c 1,28,29
 1920 -64 1920 -64 1968 -136 c 128,-1,30
 2016 -208 2016 -208 2016 -288 c 0,31,32
 2016 -448 2016 -448 1832 -512 c 128,-1,33
 1648 -576 1648 -576 1440 -576 c 1,34,35
 1248 -592 1248 -592 1080 -528 c 128,-1,36
 912 -464 912 -464 848 -400 c 1,37,-1
 1136 -288 l 1,38,39
 1136 -288 1136 -288 1248 -344 c 128,-1,40
 1360 -400 1360 -400 1440 -400 c 0,41,42
 1552 -400 1552 -400 1600 -392 c 128,-1,43
 1648 -384 1648 -384 1664 -288 c 256,44,45
 1680 -192 1680 -192 1552 -160 c 1,46,47
 1296 -112 1296 -112 1216 0 c 1,0,1
EndSplineSet
EndChar

StartChar: Egrave
Encoding: 200 200 138
Width: 2320
GlyphClass: 2
Flags: W
LayerCount: 2
Fore
SplineSet
576 3536 m 1,0,-1
 1200 3536 l 1,1,-1
 1728 2720 l 1,2,-1
 1376 2720 l 1,3,-1
 576 3536 l 1,0,-1
2128 2352 m 1,4,-1
 2128 2080 l 1,5,-1
 592 2080 l 1,6,-1
 592 1376 l 1,7,-1
 1872 1376 l 1,8,-1
 1872 1088 l 1,9,-1
 592 1088 l 1,10,-1
 592 272 l 1,11,-1
 2128 272 l 1,12,-1
 2128 0 l 1,13,-1
 208 0 l 1,14,-1
 208 2352 l 1,15,-1
 2128 2352 l 1,4,-1
EndSplineSet
EndChar

StartChar: Eacute
Encoding: 201 201 139
Width: 2320
GlyphClass: 2
Flags: W
LayerCount: 2
Fore
SplineSet
1728 3536 m 1,0,-1
 944 2720 l 1,1,-1
 576 2720 l 1,2,-1
 1120 3536 l 1,3,-1
 1728 3536 l 1,0,-1
2112 2352 m 1,4,-1
 2112 2064 l 1,5,-1
 576 2064 l 1,6,-1
 576 1360 l 1,7,-1
 1856 1360 l 1,8,-1
 1856 1088 l 1,9,-1
 576 1088 l 1,10,-1
 576 272 l 1,11,-1
 2112 272 l 1,12,-1
 2112 0 l 1,13,-1
 192 0 l 1,14,-1
 192 2352 l 1,15,-1
 2112 2352 l 1,4,-1
EndSplineSet
EndChar

StartChar: Ecircumflex
Encoding: 202 202 140
Width: 2320
GlyphClass: 2
Flags: W
LayerCount: 2
Fore
SplineSet
1072 3536 m 1,0,-1
 1248 3536 l 1,1,-1
 1872 2768 l 1,2,-1
 1648 2576 l 1,3,-1
 1168 3184 l 1,4,-1
 672 2576 l 1,5,-1
 432 2768 l 1,6,-1
 1072 3536 l 1,0,-1
2128 2352 m 1,7,-1
 2128 2080 l 1,8,-1
 592 2080 l 1,9,-1
 592 1376 l 1,10,-1
 1872 1376 l 1,11,-1
 1872 1088 l 1,12,-1
 592 1088 l 1,13,-1
 592 272 l 1,14,-1
 2128 272 l 1,15,-1
 2128 0 l 1,16,-1
 208 0 l 1,17,-1
 208 2352 l 1,18,-1
 2128 2352 l 1,7,-1
EndSplineSet
EndChar

StartChar: Edieresis
Encoding: 203 203 141
Width: 2320
GlyphClass: 2
Flags: W
LayerCount: 2
Fore
SplineSet
384 2720 m 1,0,-1
 384 3520 l 1,1,-1
 928 3520 l 1,2,-1
 928 2720 l 1,3,-1
 384 2720 l 1,0,-1
1392 2720 m 1,4,-1
 1392 3520 l 1,5,-1
 1936 3520 l 1,6,-1
 1936 2720 l 1,7,-1
 1392 2720 l 1,4,-1
2128 2352 m 1,8,-1
 2128 2080 l 1,9,-1
 592 2080 l 1,10,-1
 592 1376 l 1,11,-1
 1872 1376 l 1,12,-1
 1872 1088 l 1,13,-1
 592 1088 l 1,14,-1
 592 272 l 1,15,-1
 2128 272 l 1,16,-1
 2128 0 l 1,17,-1
 208 0 l 1,18,-1
 208 2352 l 1,19,-1
 2128 2352 l 1,8,-1
EndSplineSet
EndChar

StartChar: Igrave
Encoding: 204 204 142
Width: 1376
GlyphClass: 2
Flags: W
LayerCount: 2
Fore
SplineSet
352 3536 m 1,0,-1
 720 3536 l 1,1,-1
 1024 2720 l 1,2,-1
 816 2720 l 1,3,-1
 352 3536 l 1,0,-1
816 0 m 1,4,-1
 576 0 l 1,5,-1
 576 2352 l 1,6,-1
 816 2352 l 1,7,-1
 816 0 l 1,4,-1
EndSplineSet
EndChar

StartChar: Iacute
Encoding: 205 205 143
Width: 1184
GlyphClass: 2
Flags: W
LayerCount: 2
Fore
SplineSet
880 3536 m 1,0,-1
 480 2832 l 1,1,-1
 304 2832 l 1,2,-1
 576 3536 l 1,3,-1
 880 3536 l 1,0,-1
704 0 m 1,4,-1
 496 0 l 1,5,-1
 496 2352 l 1,6,-1
 704 2352 l 1,7,-1
 704 0 l 1,4,-1
EndSplineSet
EndChar

StartChar: Icircumflex
Encoding: 206 206 144
Width: 1776
GlyphClass: 2
Flags: W
LayerCount: 2
Fore
SplineSet
816 3520 m 1,0,-1
 960 3520 l 1,1,-1
 1440 2960 l 1,2,-1
 1264 2816 l 1,3,-1
 896 3264 l 1,4,-1
 512 2816 l 1,5,-1
 336 2960 l 1,6,-1
 816 3520 l 1,0,-1
1040 0 m 1,7,-1
 752 0 l 1,8,-1
 752 2352 l 1,9,-1
 1040 2352 l 1,10,-1
 1040 0 l 1,7,-1
EndSplineSet
EndChar

StartChar: Idieresis
Encoding: 207 207 145
Width: 1376
GlyphClass: 2
Flags: W
LayerCount: 2
Fore
SplineSet
160 3056 m 1,0,-1
 160 3536 l 1,1,-1
 480 3536 l 1,2,-1
 480 3056 l 1,3,-1
 160 3056 l 1,0,-1
832 3056 m 1,4,-1
 832 3536 l 1,5,-1
 1152 3536 l 1,6,-1
 1152 3056 l 1,7,-1
 832 3056 l 1,4,-1
816 0 m 1,8,-1
 576 0 l 1,9,-1
 576 2352 l 1,10,-1
 816 2352 l 1,11,-1
 816 0 l 1,8,-1
EndSplineSet
EndChar

StartChar: Eth
Encoding: 208 208 146
Width: 2656
GlyphClass: 2
Flags: W
LayerCount: 2
Fore
SplineSet
992 1472 m 1,0,-1
 992 304 l 1,1,-1
 1312 304 l 2,2,3
 1712 304 1712 304 1872 648 c 128,-1,4
 2032 992 2032 992 2032 1544 c 128,-1,5
 2032 2096 2032 2096 1872 2464 c 128,-1,6
 1712 2832 1712 2832 1312 2832 c 2,7,-1
 992 2832 l 1,8,-1
 992 1744 l 1,9,-1
 1456 1744 l 1,10,-1
 1456 1472 l 1,11,-1
 992 1472 l 1,0,-1
752 1472 m 1,12,-1
 352 1472 l 1,13,-1
 352 1744 l 1,14,-1
 752 1744 l 1,15,-1
 752 3104 l 1,16,-1
 1312 3104 l 2,17,18
 1872 3104 1872 3104 2096 2680 c 128,-1,19
 2320 2256 2320 2256 2320 1552 c 128,-1,20
 2320 848 2320 848 2096 424 c 128,-1,21
 1872 0 1872 0 1312 0 c 2,22,-1
 752 0 l 1,23,-1
 752 1472 l 1,12,-1
EndSplineSet
EndChar

StartChar: Ntilde
Encoding: 209 209 147
Width: 2624
GlyphClass: 2
Flags: W
LayerCount: 2
Fore
SplineSet
2368 3104 m 1,0,1
 2016 2864 2016 2864 1792 2864 c 0,2,3
 1584 2864 1584 2864 1424 2976 c 1,4,-1
 1136 3168 l 1,5,6
 1008 3248 1008 3248 832 3248 c 256,7,8
 656 3248 656 3248 256 2976 c 1,9,-1
 256 3280 l 1,10,11
 608 3520 608 3520 832 3520 c 256,12,13
 1056 3520 1056 3520 1200 3408 c 1,14,-1
 1488 3216 l 1,15,16
 1616 3136 1616 3136 1792 3136 c 0,17,18
 1984 3136 1984 3136 2368 3408 c 1,19,-1
 2368 3104 l 1,0,1
672 0 m 1,20,-1
 224 0 l 1,21,-1
 224 2352 l 1,22,-1
 800 2352 l 1,23,-1
 1968 576 l 1,24,-1
 1968 2352 l 1,25,-1
 2416 2352 l 1,26,-1
 2416 0 l 1,27,-1
 1856 0 l 1,28,-1
 672 1824 l 1,29,-1
 672 0 l 1,20,-1
EndSplineSet
EndChar

StartChar: Ograve
Encoding: 210 210 148
Width: 2736
GlyphClass: 2
Flags: W
LayerCount: 2
Fore
SplineSet
784 3520 m 1,0,-1
 1376 3520 l 1,1,-1
 1888 2864 l 1,2,-1
 1536 2864 l 1,3,-1
 784 3520 l 1,0,-1
304 1168 m 0,4,5
 304 1632 304 1632 560 1992 c 128,-1,6
 816 2352 816 2352 1232 2352 c 2,7,-1
 1472 2352 l 2,8,9
 1872 2352 1872 2352 2144 1992 c 128,-1,10
 2416 1632 2416 1632 2416 1168 c 0,11,12
 2416 672 2416 672 2120 328 c 128,-1,13
 1824 -16 1824 -16 1352 -16 c 128,-1,14
 880 -16 880 -16 592 328 c 128,-1,15
 304 672 304 672 304 1168 c 0,4,5
640 1168 m 0,16,17
 640 704 640 704 864 480 c 128,-1,18
 1088 256 1088 256 1352 256 c 128,-1,19
 1616 256 1616 256 1848 480 c 128,-1,20
 2080 704 2080 704 2080 1168 c 0,21,22
 2080 1616 2080 1616 1856 1856 c 128,-1,23
 1632 2096 1632 2096 1408 2096 c 2,24,-1
 1296 2096 l 2,25,26
 1088 2096 1088 2096 864 1840 c 128,-1,27
 640 1584 640 1584 640 1168 c 0,16,17
EndSplineSet
EndChar

StartChar: Oacute
Encoding: 211 211 149
Width: 2736
GlyphClass: 2
Flags: W
LayerCount: 2
Fore
SplineSet
1856 3520 m 1,0,-1
 1232 2816 l 1,1,-1
 944 2816 l 1,2,-1
 1360 3520 l 1,3,-1
 1856 3520 l 1,0,-1
304 1168 m 0,4,5
 304 1632 304 1632 560 1992 c 128,-1,6
 816 2352 816 2352 1232 2352 c 2,7,-1
 1472 2352 l 2,8,9
 1872 2352 1872 2352 2144 1992 c 128,-1,10
 2416 1632 2416 1632 2416 1168 c 0,11,12
 2416 672 2416 672 2120 328 c 128,-1,13
 1824 -16 1824 -16 1352 -16 c 128,-1,14
 880 -16 880 -16 592 328 c 128,-1,15
 304 672 304 672 304 1168 c 0,4,5
640 1168 m 0,16,17
 640 704 640 704 864 480 c 128,-1,18
 1088 256 1088 256 1352 256 c 128,-1,19
 1616 256 1616 256 1848 480 c 128,-1,20
 2080 704 2080 704 2080 1168 c 0,21,22
 2080 1616 2080 1616 1856 1856 c 128,-1,23
 1632 2096 1632 2096 1408 2096 c 2,24,-1
 1296 2096 l 2,25,26
 1088 2096 1088 2096 864 1840 c 128,-1,27
 640 1584 640 1584 640 1168 c 0,16,17
EndSplineSet
EndChar

StartChar: Ocircumflex
Encoding: 212 212 150
Width: 2736
GlyphClass: 2
Flags: W
LayerCount: 2
Fore
SplineSet
1280 3520 m 1,0,-1
 1424 3520 l 1,1,-1
 1920 2960 l 1,2,-1
 1744 2816 l 1,3,-1
 1360 3280 l 1,4,-1
 976 2816 l 1,5,-1
 784 2960 l 1,6,-1
 1280 3520 l 1,0,-1
304 1168 m 0,7,8
 304 1632 304 1632 560 1992 c 128,-1,9
 816 2352 816 2352 1232 2352 c 2,10,-1
 1472 2352 l 2,11,12
 1872 2352 1872 2352 2144 1992 c 128,-1,13
 2416 1632 2416 1632 2416 1168 c 0,14,15
 2416 672 2416 672 2120 328 c 128,-1,16
 1824 -16 1824 -16 1352 -16 c 128,-1,17
 880 -16 880 -16 592 328 c 128,-1,18
 304 672 304 672 304 1168 c 0,7,8
640 1168 m 0,19,20
 640 704 640 704 864 480 c 128,-1,21
 1088 256 1088 256 1352 256 c 128,-1,22
 1616 256 1616 256 1848 480 c 128,-1,23
 2080 704 2080 704 2080 1168 c 0,24,25
 2080 1616 2080 1616 1856 1856 c 128,-1,26
 1632 2096 1632 2096 1408 2096 c 2,27,-1
 1296 2096 l 2,28,29
 1088 2096 1088 2096 864 1840 c 128,-1,30
 640 1584 640 1584 640 1168 c 0,19,20
EndSplineSet
EndChar

StartChar: Otilde
Encoding: 213 213 151
Width: 2736
GlyphClass: 2
Flags: W
LayerCount: 2
Fore
SplineSet
2080 3104 m 1,0,1
 1856 2864 1856 2864 1696 2864 c 256,2,3
 1536 2864 1536 2864 1424 2976 c 2,4,-1
 1232 3168 l 1,5,6
 1136 3248 1136 3248 1024 3248 c 0,7,8
 896 3248 896 3248 624 2976 c 1,9,-1
 624 3296 l 1,10,11
 864 3536 864 3536 1024 3536 c 0,12,13
 1168 3536 1168 3536 1280 3424 c 2,14,-1
 1472 3232 l 1,15,16
 1568 3152 1568 3152 1696 3152 c 256,17,18
 1824 3152 1824 3152 2080 3424 c 1,19,-1
 2080 3104 l 1,0,1
304 1168 m 0,20,21
 304 1632 304 1632 560 1992 c 128,-1,22
 816 2352 816 2352 1232 2352 c 2,23,-1
 1472 2352 l 2,24,25
 1872 2352 1872 2352 2144 1992 c 128,-1,26
 2416 1632 2416 1632 2416 1168 c 0,27,28
 2416 672 2416 672 2120 328 c 128,-1,29
 1824 -16 1824 -16 1352 -16 c 128,-1,30
 880 -16 880 -16 592 328 c 128,-1,31
 304 672 304 672 304 1168 c 0,20,21
640 1168 m 0,32,33
 640 704 640 704 864 480 c 128,-1,34
 1088 256 1088 256 1352 256 c 128,-1,35
 1616 256 1616 256 1848 480 c 128,-1,36
 2080 704 2080 704 2080 1168 c 0,37,38
 2080 1616 2080 1616 1856 1856 c 128,-1,39
 1632 2096 1632 2096 1408 2096 c 2,40,-1
 1296 2096 l 2,41,42
 1088 2096 1088 2096 864 1840 c 128,-1,43
 640 1584 640 1584 640 1168 c 0,32,33
EndSplineSet
EndChar

StartChar: Odieresis
Encoding: 214 214 152
Width: 2736
GlyphClass: 2
Flags: W
LayerCount: 2
Fore
SplineSet
704 2720 m 1,0,-1
 704 3520 l 1,1,-1
 1136 3520 l 1,2,-1
 1136 2720 l 1,3,-1
 704 2720 l 1,0,-1
1584 2720 m 1,4,-1
 1584 3520 l 1,5,-1
 2016 3520 l 1,6,-1
 2016 2720 l 1,7,-1
 1584 2720 l 1,4,-1
304 1168 m 0,8,9
 304 1632 304 1632 544 1992 c 128,-1,10
 784 2352 784 2352 1232 2352 c 2,11,-1
 1472 2352 l 2,12,13
 1920 2352 1920 2352 2168 1992 c 128,-1,14
 2416 1632 2416 1632 2416 1168 c 0,15,16
 2416 672 2416 672 2152 336 c 128,-1,17
 1888 0 1888 0 1456 0 c 2,18,-1
 1248 0 l 2,19,20
 832 0 832 0 568 336 c 128,-1,21
 304 672 304 672 304 1168 c 0,8,9
640 1168 m 0,22,23
 640 704 640 704 840 496 c 128,-1,24
 1040 288 1040 288 1296 288 c 2,25,-1
 1408 288 l 2,26,27
 1632 288 1632 288 1856 496 c 128,-1,28
 2080 704 2080 704 2080 1168 c 0,29,30
 2080 1616 2080 1616 1888 1840 c 128,-1,31
 1696 2064 1696 2064 1408 2064 c 2,32,-1
 1296 2064 l 2,33,34
 1008 2064 1008 2064 824 1824 c 128,-1,35
 640 1584 640 1584 640 1168 c 0,22,23
EndSplineSet
EndChar

StartChar: multiply
Encoding: 215 215 153
Width: 4096
GlyphClass: 2
Flags: W
LayerCount: 2
Fore
SplineSet
992 2832 m 1,0,-1
 2048 1776 l 1,1,-1
 3104 2832 l 1,2,-1
 3312 2624 l 1,3,-1
 2256 1568 l 1,4,-1
 3344 496 l 1,5,-1
 3136 272 l 1,6,-1
 2048 1360 l 1,7,-1
 976 272 l 1,8,-1
 768 496 l 1,9,-1
 1840 1568 l 1,10,-1
 784 2624 l 1,11,-1
 992 2832 l 1,0,-1
EndSplineSet
Substitution2: "'vert' Vertical Alternates (obs) in Hiragana & Katakana lookup 0 subtable" multiply.vert
EndChar

StartChar: Oslash
Encoding: 216 216 154
Width: 2736
GlyphClass: 2
Flags: W
LayerCount: 2
Fore
SplineSet
1808 2560 m 1,0,1
 1664 2768 1664 2768 1472 2768 c 0,2,3
 1264 2768 1264 2768 1104 2456 c 128,-1,4
 944 2144 944 2144 944 1568 c 0,5,6
 944 1120 944 1120 1024 832 c 1,7,-1
 1808 2560 l 1,0,1
1936 2304 m 1,8,-1
 1136 560 l 1,9,10
 1280 304 1280 304 1472 304 c 0,11,12
 1696 304 1696 304 1864 632 c 128,-1,13
 2032 960 2032 960 2032 1568 c 0,14,15
 2032 2000 2032 2000 1936 2304 c 1,8,-1
848 448 m 1,16,17
 608 912 608 912 608 1568 c 0,18,19
 608 2176 608 2176 848 2640 c 128,-1,20
 1088 3104 1088 3104 1472 3104 c 0,21,22
 1760 3104 1760 3104 1952 2864 c 1,23,-1
 2192 3376 l 1,24,-1
 2384 3264 l 1,25,-1
 2096 2656 l 1,26,27
 2352 2176 2352 2176 2352 1568 c 0,28,29
 2352 912 2352 912 2104 456 c 128,-1,30
 1856 0 1856 0 1472 0 c 0,31,32
 1200 0 1200 0 992 240 c 1,33,-1
 752 -288 l 1,34,-1
 560 -160 l 1,35,-1
 848 448 l 1,16,17
EndSplineSet
EndChar

StartChar: Ugrave
Encoding: 217 217 155
Width: 2624
GlyphClass: 2
Flags: W
LayerCount: 2
Fore
SplineSet
768 3536 m 1,0,-1
 1456 3536 l 1,1,-1
 2064 2832 l 1,2,-1
 1648 2832 l 1,3,-1
 768 3536 l 1,0,-1
1312 320 m 256,4,5
 1600 320 1600 320 1768 480 c 128,-1,6
 1936 640 1936 640 1936 1040 c 2,7,-1
 1936 2352 l 1,8,-1
 2384 2352 l 1,9,-1
 2384 1040 l 2,10,11
 2384 448 2384 448 2072 216 c 128,-1,12
 1760 -16 1760 -16 1296 -16 c 128,-1,13
 832 -16 832 -16 544 216 c 128,-1,14
 256 448 256 448 256 1040 c 2,15,-1
 256 2352 l 1,16,-1
 704 2352 l 1,17,-1
 704 1040 l 2,18,19
 704 640 704 640 864 480 c 128,-1,20
 1024 320 1024 320 1312 320 c 256,4,5
EndSplineSet
EndChar

StartChar: Uacute
Encoding: 218 218 156
Width: 2624
GlyphClass: 2
Flags: W
LayerCount: 2
Fore
SplineSet
1920 3536 m 1,0,-1
 1024 2832 l 1,1,-1
 624 2832 l 1,2,-1
 1216 3536 l 1,3,-1
 1920 3536 l 1,0,-1
1312 320 m 256,4,5
 1600 320 1600 320 1768 480 c 128,-1,6
 1936 640 1936 640 1936 1040 c 2,7,-1
 1936 2352 l 1,8,-1
 2384 2352 l 1,9,-1
 2384 1040 l 2,10,11
 2384 448 2384 448 2072 216 c 128,-1,12
 1760 -16 1760 -16 1296 -16 c 128,-1,13
 832 -16 832 -16 544 216 c 128,-1,14
 256 448 256 448 256 1040 c 2,15,-1
 256 2352 l 1,16,-1
 704 2352 l 1,17,-1
 704 1040 l 2,18,19
 704 640 704 640 864 480 c 128,-1,20
 1024 320 1024 320 1312 320 c 256,4,5
EndSplineSet
EndChar

StartChar: Ucircumflex
Encoding: 219 219 157
Width: 2624
GlyphClass: 2
Flags: W
LayerCount: 2
Fore
SplineSet
1216 3520 m 1,0,-1
 1424 3520 l 1,1,-1
 2128 2960 l 1,2,-1
 1872 2816 l 1,3,-1
 1312 3264 l 1,4,-1
 768 2816 l 1,5,-1
 496 2960 l 1,6,-1
 1216 3520 l 1,0,-1
1312 320 m 256,7,8
 1600 320 1600 320 1768 480 c 128,-1,9
 1936 640 1936 640 1936 1040 c 2,10,-1
 1936 2352 l 1,11,-1
 2384 2352 l 1,12,-1
 2384 1040 l 2,13,14
 2384 448 2384 448 2072 216 c 128,-1,15
 1760 -16 1760 -16 1296 -16 c 128,-1,16
 832 -16 832 -16 544 216 c 128,-1,17
 256 448 256 448 256 1040 c 2,18,-1
 256 2352 l 1,19,-1
 704 2352 l 1,20,-1
 704 1040 l 2,21,22
 704 640 704 640 864 480 c 128,-1,23
 1024 320 1024 320 1312 320 c 256,7,8
EndSplineSet
EndChar

StartChar: Udieresis
Encoding: 220 220 158
Width: 2624
GlyphClass: 2
Flags: W
LayerCount: 2
Fore
SplineSet
304 3056 m 1,0,-1
 304 3536 l 1,1,-1
 928 3536 l 1,2,-1
 928 3056 l 1,3,-1
 304 3056 l 1,0,-1
1584 3056 m 1,4,-1
 1584 3536 l 1,5,-1
 2192 3536 l 1,6,-1
 2192 3056 l 1,7,-1
 1584 3056 l 1,4,-1
1312 320 m 256,8,9
 1600 320 1600 320 1768 480 c 128,-1,10
 1936 640 1936 640 1936 1040 c 2,11,-1
 1936 2352 l 1,12,-1
 2384 2352 l 1,13,-1
 2384 1040 l 2,14,15
 2384 448 2384 448 2072 216 c 128,-1,16
 1760 -16 1760 -16 1296 -16 c 128,-1,17
 832 -16 832 -16 544 216 c 128,-1,18
 256 448 256 448 256 1040 c 2,19,-1
 256 2352 l 1,20,-1
 704 2352 l 1,21,-1
 704 1040 l 2,22,23
 704 640 704 640 864 480 c 128,-1,24
 1024 320 1024 320 1312 320 c 256,8,9
EndSplineSet
EndChar

StartChar: Yacute
Encoding: 221 221 159
Width: 2416
GlyphClass: 2
Flags: W
LayerCount: 2
Fore
SplineSet
1840 3520 m 1,0,-1
 1024 2816 l 1,1,-1
 640 2816 l 1,2,-1
 1200 3520 l 1,3,-1
 1840 3520 l 1,0,-1
1424 0 m 1,4,-1
 1008 0 l 1,5,-1
 1008 1104 l 1,6,-1
 224 2352 l 1,7,-1
 640 2352 l 1,8,-1
 1216 1408 l 1,9,-1
 1792 2352 l 1,10,-1
 2208 2352 l 1,11,-1
 1424 1104 l 1,12,-1
 1424 0 l 1,4,-1
EndSplineSet
EndChar

StartChar: Thorn
Encoding: 222 222 160
Width: 2224
GlyphClass: 2
Flags: W
LayerCount: 2
Fore
SplineSet
672 0 m 1,0,-1
 304 0 l 1,1,-1
 304 3248 l 1,2,-1
 672 3248 l 1,3,-1
 672 2384 l 1,4,-1
 1216 2384 l 2,5,6
 2000 2384 2000 2384 2016 1632 c 256,7,8
 2032 880 2032 880 1216 864 c 1,9,-1
 672 864 l 1,10,-1
 672 0 l 1,0,-1
1696 1632 m 1,11,12
 1696 2096 1696 2096 1216 2112 c 1,13,-1
 672 2112 l 1,14,-1
 672 1120 l 1,15,-1
 1216 1120 l 2,16,17
 1680 1120 1680 1120 1696 1632 c 1,11,12
EndSplineSet
EndChar

StartChar: germandbls
Encoding: 223 223 161
Width: 2224
GlyphClass: 2
Flags: W
LayerCount: 2
Fore
SplineSet
1088 3104 m 2,0,1
 1392 3104 1392 3104 1616 2872 c 128,-1,2
 1840 2640 1840 2640 1840 2304 c 0,3,4
 1840 2016 1840 2016 1688 1848 c 128,-1,5
 1536 1680 1536 1680 1424 1648 c 1,6,7
 1664 1600 1664 1600 1856 1376 c 128,-1,8
 2048 1152 2048 1152 2048 848 c 0,9,10
 2048 -16 2048 -16 1232 0 c 1,11,-1
 768 0 l 1,12,-1
 768 288 l 1,13,-1
 1168 288 l 2,14,15
 1696 288 1696 288 1696 832 c 0,16,17
 1696 1168 1696 1168 1432 1344 c 128,-1,18
 1168 1520 1168 1520 880 1520 c 1,19,-1
 880 1776 l 1,20,21
 1152 1776 1152 1776 1312 1920 c 128,-1,22
 1472 2064 1472 2064 1472 2304 c 0,23,24
 1472 2576 1472 2576 1336 2696 c 128,-1,25
 1200 2816 1200 2816 960 2816 c 0,26,27
 784 2816 784 2816 664 2664 c 128,-1,28
 544 2512 544 2512 544 2176 c 2,29,-1
 544 0 l 1,30,-1
 176 0 l 1,31,-1
 176 2176 l 2,32,33
 176 2704 176 2704 408 2904 c 128,-1,34
 640 3104 640 3104 896 3104 c 2,35,-1
 1088 3104 l 2,0,1
EndSplineSet
EndChar

StartChar: agrave
Encoding: 224 224 162
Width: 1952
GlyphClass: 2
Flags: W
LayerCount: 2
Fore
SplineSet
496 3248 m 1,0,-1
 1008 3248 l 1,1,-1
 1456 2544 l 1,2,-1
 1152 2544 l 1,3,-1
 496 3248 l 1,0,-1
1744 0 m 1,4,-1
 1456 0 l 1,5,-1
 1392 176 l 1,6,7
 1152 0 1152 0 768 0 c 0,8,9
 192 0 192 0 192 608 c 0,10,11
 192 1280 192 1280 1040 1280 c 2,12,-1
 1360 1280 l 1,13,-1
 1360 1392 l 2,14,15
 1360 1552 1360 1552 1272 1616 c 128,-1,16
 1184 1680 1184 1680 1040 1680 c 2,17,-1
 768 1680 l 2,18,19
 496 1680 496 1680 336 1568 c 1,20,-1
 208 1744 l 1,21,22
 464 1920 464 1920 752 1920 c 2,23,-1
 1104 1920 l 2,24,25
 1312 1920 1312 1920 1488 1800 c 128,-1,26
 1664 1680 1664 1680 1664 1392 c 2,27,-1
 1664 416 l 1,28,-1
 1744 0 l 1,4,-1
1360 1040 m 1,29,-1
 1040 1040 l 2,30,31
 544 1040 544 1040 528 592 c 1,32,33
 528 224 528 224 848 224 c 0,34,35
 1104 224 1104 224 1360 432 c 1,36,-1
 1360 1040 l 1,29,-1
EndSplineSet
EndChar

StartChar: aacute
Encoding: 225 225 163
Width: 1952
GlyphClass: 2
Flags: W
LayerCount: 2
Fore
SplineSet
1456 3248 m 1,0,-1
 800 2544 l 1,1,-1
 496 2544 l 1,2,-1
 944 3248 l 1,3,-1
 1456 3248 l 1,0,-1
1744 0 m 1,4,-1
 1456 0 l 1,5,-1
 1392 176 l 1,6,7
 1152 0 1152 0 768 0 c 0,8,9
 192 0 192 0 192 608 c 0,10,11
 192 1280 192 1280 1040 1280 c 2,12,-1
 1360 1280 l 1,13,-1
 1360 1392 l 2,14,15
 1360 1552 1360 1552 1272 1616 c 128,-1,16
 1184 1680 1184 1680 1040 1680 c 2,17,-1
 768 1680 l 2,18,19
 496 1680 496 1680 336 1568 c 1,20,-1
 208 1744 l 1,21,22
 464 1920 464 1920 752 1920 c 2,23,-1
 1104 1920 l 2,24,25
 1312 1920 1312 1920 1488 1800 c 128,-1,26
 1664 1680 1664 1680 1664 1392 c 2,27,-1
 1664 416 l 1,28,-1
 1744 0 l 1,4,-1
1360 1040 m 1,29,-1
 1040 1040 l 2,30,31
 544 1040 544 1040 528 592 c 1,32,33
 528 224 528 224 848 224 c 0,34,35
 1104 224 1104 224 1360 432 c 1,36,-1
 1360 1040 l 1,29,-1
EndSplineSet
EndChar

StartChar: acircumflex
Encoding: 226 226 164
Width: 1952
GlyphClass: 2
Flags: W
LayerCount: 2
Fore
SplineSet
896 3248 m 1,0,-1
 1056 3248 l 1,1,-1
 1584 2672 l 1,2,-1
 1392 2544 l 1,3,-1
 976 2992 l 1,4,-1
 576 2544 l 1,5,-1
 368 2672 l 1,6,-1
 896 3248 l 1,0,-1
1744 0 m 1,7,-1
 1456 0 l 1,8,-1
 1392 176 l 1,9,10
 1152 0 1152 0 768 0 c 0,11,12
 192 0 192 0 192 608 c 0,13,14
 192 1280 192 1280 1040 1280 c 2,15,-1
 1360 1280 l 1,16,-1
 1360 1392 l 2,17,18
 1360 1552 1360 1552 1272 1616 c 128,-1,19
 1184 1680 1184 1680 1040 1680 c 2,20,-1
 768 1680 l 2,21,22
 496 1680 496 1680 336 1568 c 1,23,-1
 208 1744 l 1,24,25
 464 1920 464 1920 752 1920 c 2,26,-1
 1104 1920 l 2,27,28
 1312 1920 1312 1920 1488 1800 c 128,-1,29
 1664 1680 1664 1680 1664 1392 c 2,30,-1
 1664 416 l 1,31,-1
 1744 0 l 1,7,-1
1360 1040 m 1,32,-1
 1040 1040 l 2,33,34
 544 1040 544 1040 528 592 c 1,35,36
 528 224 528 224 848 224 c 0,37,38
 1104 224 1104 224 1360 432 c 1,39,-1
 1360 1040 l 1,32,-1
EndSplineSet
EndChar

StartChar: atilde
Encoding: 227 227 165
Width: 1952
GlyphClass: 2
Flags: W
LayerCount: 2
Fore
SplineSet
1760 2672 m 1,0,1
 1504 2432 1504 2432 1344 2432 c 256,2,3
 1184 2432 1184 2432 1056 2544 c 1,4,-1
 848 2736 l 1,5,6
 752 2816 752 2816 624 2816 c 0,7,8
 480 2816 480 2816 192 2544 c 1,9,-1
 192 2848 l 1,10,11
 448 3088 448 3088 624 3088 c 0,12,13
 784 3088 784 3088 896 2976 c 1,14,-1
 1104 2784 l 1,15,16
 1216 2704 1216 2704 1344 2704 c 256,17,18
 1472 2704 1472 2704 1760 2976 c 1,19,-1
 1760 2672 l 1,0,1
1744 0 m 1,20,-1
 1456 0 l 1,21,-1
 1392 176 l 1,22,23
 1152 0 1152 0 768 0 c 0,24,25
 192 0 192 0 192 608 c 0,26,27
 192 1280 192 1280 1040 1280 c 2,28,-1
 1360 1280 l 1,29,-1
 1360 1392 l 2,30,31
 1360 1552 1360 1552 1272 1616 c 128,-1,32
 1184 1680 1184 1680 1040 1680 c 2,33,-1
 768 1680 l 2,34,35
 496 1680 496 1680 336 1568 c 1,36,-1
 208 1744 l 1,37,38
 464 1920 464 1920 752 1920 c 2,39,-1
 1104 1920 l 2,40,41
 1312 1920 1312 1920 1488 1800 c 128,-1,42
 1664 1680 1664 1680 1664 1392 c 2,43,-1
 1664 416 l 1,44,-1
 1744 0 l 1,20,-1
1360 1040 m 1,45,-1
 1040 1040 l 2,46,47
 544 1040 544 1040 528 592 c 1,48,49
 528 224 528 224 848 224 c 0,50,51
 1104 224 1104 224 1360 432 c 1,52,-1
 1360 1040 l 1,45,-1
EndSplineSet
EndChar

StartChar: adieresis
Encoding: 228 228 166
Width: 1952
GlyphClass: 2
Flags: W
LayerCount: 2
Fore
SplineSet
240 2352 m 1,0,-1
 240 3104 l 1,1,-1
 688 3104 l 1,2,-1
 688 2352 l 1,3,-1
 240 2352 l 1,0,-1
1184 2352 m 1,4,-1
 1184 3104 l 1,5,-1
 1632 3104 l 1,6,-1
 1632 2352 l 1,7,-1
 1184 2352 l 1,4,-1
1744 0 m 1,8,-1
 1456 0 l 1,9,-1
 1392 176 l 1,10,11
 1152 0 1152 0 768 0 c 0,12,13
 192 0 192 0 192 608 c 0,14,15
 192 1280 192 1280 1040 1280 c 2,16,-1
 1360 1280 l 1,17,-1
 1360 1392 l 2,18,19
 1360 1552 1360 1552 1272 1616 c 128,-1,20
 1184 1680 1184 1680 1040 1680 c 2,21,-1
 768 1680 l 2,22,23
 496 1680 496 1680 336 1568 c 1,24,-1
 208 1744 l 1,25,26
 464 1920 464 1920 752 1920 c 2,27,-1
 1104 1920 l 2,28,29
 1312 1920 1312 1920 1488 1800 c 128,-1,30
 1664 1680 1664 1680 1664 1392 c 2,31,-1
 1664 416 l 1,32,-1
 1744 0 l 1,8,-1
1360 1040 m 1,33,-1
 1040 1040 l 2,34,35
 544 1040 544 1040 528 592 c 1,36,37
 528 224 528 224 848 224 c 0,38,39
 1104 224 1104 224 1360 432 c 1,40,-1
 1360 1040 l 1,33,-1
EndSplineSet
EndChar

StartChar: aring
Encoding: 229 229 167
Width: 1952
GlyphClass: 2
Flags: W
LayerCount: 2
Fore
SplineSet
512 2800 m 0,0,1
 512 2992 512 2992 656 3136 c 1,2,3
 784 3280 784 3280 976 3280 c 256,4,5
 1168 3280 1168 3280 1312 3136 c 1,6,7
 1440 2992 1440 2992 1440 2800 c 0,8,9
 1440 2592 1440 2592 1312 2448 c 1,10,11
 1168 2304 1168 2304 976 2304 c 256,12,13
 784 2304 784 2304 656 2448 c 1,14,15
 512 2592 512 2592 512 2800 c 0,0,1
672 2784 m 0,16,17
 672 2656 672 2656 760 2560 c 128,-1,18
 848 2464 848 2464 976 2464 c 256,19,20
 1104 2464 1104 2464 1200 2560 c 1,21,22
 1280 2656 1280 2656 1280 2784 c 0,23,24
 1280 2928 1280 2928 1192 3024 c 128,-1,25
 1104 3120 1104 3120 976 3120 c 256,26,27
 848 3120 848 3120 752 3024 c 1,28,29
 672 2928 672 2928 672 2784 c 0,16,17
1744 0 m 1,30,-1
 1456 0 l 1,31,-1
 1392 176 l 1,32,33
 1152 0 1152 0 768 0 c 0,34,35
 192 0 192 0 192 608 c 0,36,37
 192 1280 192 1280 1040 1280 c 2,38,-1
 1360 1280 l 1,39,-1
 1360 1392 l 2,40,41
 1360 1552 1360 1552 1272 1616 c 128,-1,42
 1184 1680 1184 1680 1040 1680 c 2,43,-1
 768 1680 l 2,44,45
 496 1680 496 1680 336 1568 c 1,46,-1
 208 1744 l 1,47,48
 464 1920 464 1920 752 1920 c 2,49,-1
 1104 1920 l 2,50,51
 1312 1920 1312 1920 1488 1800 c 128,-1,52
 1664 1680 1664 1680 1664 1392 c 2,53,-1
 1664 416 l 1,54,-1
 1744 0 l 1,30,-1
1360 1040 m 1,55,-1
 1040 1040 l 2,56,57
 544 1040 544 1040 528 592 c 1,58,59
 528 224 528 224 848 224 c 0,60,61
 1104 224 1104 224 1360 432 c 1,62,-1
 1360 1040 l 1,55,-1
EndSplineSet
EndChar

StartChar: ae
Encoding: 230 230 168
Width: 2736
GlyphClass: 2
Flags: W
LayerCount: 2
Fore
SplineSet
1424 1216 m 1,0,-1
 2208 1216 l 1,1,2
 2144 1632 2144 1632 1824 1648 c 1,3,4
 1488 1632 1488 1632 1424 1216 c 1,0,-1
1312 1648 m 1,5,6
 1456 1920 1456 1920 1744 1920 c 2,7,-1
 1904 1920 l 2,8,9
 2128 1920 2128 1920 2328 1664 c 128,-1,10
 2528 1408 2528 1408 2528 960 c 1,11,-1
 1408 960 l 1,12,13
 1408 640 1408 640 1544 456 c 128,-1,14
 1680 272 1680 272 1872 272 c 0,15,16
 2016 272 2016 272 2104 360 c 128,-1,17
 2192 448 2192 448 2240 608 c 1,18,-1
 2512 608 l 1,19,20
 2384 -16 2384 -16 1872 -16 c 0,21,22
 1488 -16 1488 -16 1312 288 c 1,23,24
 992 0 992 0 640 -16 c 1,25,26
 400 -16 400 -16 296 120 c 128,-1,27
 192 256 192 256 192 480 c 0,28,29
 192 896 192 896 440 1056 c 128,-1,30
 688 1216 688 1216 1136 1264 c 1,31,32
 1136 1664 1136 1664 816 1696 c 1,33,34
 544 1696 544 1696 512 1392 c 1,35,-1
 224 1392 l 1,36,37
 272 1712 272 1712 416 1816 c 128,-1,38
 560 1920 560 1920 720 1920 c 2,39,-1
 928 1920 l 2,40,41
 1184 1920 1184 1920 1312 1648 c 1,5,6
1136 512 m 1,42,43
 1136 1008 1136 1008 1136 1008 c 1,44,45
 800 944 800 944 632 840 c 128,-1,46
 464 736 464 736 464 480 c 0,47,48
 464 288 464 288 640 288 c 0,49,50
 928 288 928 288 1136 512 c 1,42,43
EndSplineSet
EndChar

StartChar: ccedilla
Encoding: 231 231 169
Width: 2048
GlyphClass: 2
Flags: W
LayerCount: 2
Fore
SplineSet
1168 0 m 1,0,1
 1248 -64 1248 -64 1344 -80 c 1,2,3
 1456 -128 1456 -128 1512 -176 c 128,-1,4
 1568 -224 1568 -224 1568 -288 c 0,5,6
 1568 -416 1568 -416 1440 -496 c 128,-1,7
 1312 -576 1312 -576 1088 -576 c 0,8,9
 896 -576 896 -576 776 -536 c 128,-1,10
 656 -496 656 -496 512 -352 c 1,11,-1
 656 -208 l 1,12,13
 768 -320 768 -320 864 -352 c 128,-1,14
 960 -384 960 -384 1088 -384 c 0,15,16
 1184 -384 1184 -384 1256 -368 c 128,-1,17
 1328 -352 1328 -352 1328 -288 c 0,18,19
 1328 -240 1328 -240 1168 -192 c 1,20,21
 976 -144 976 -144 928 0 c 1,22,23
 592 32 592 32 384 288 c 128,-1,24
 176 544 176 544 176 992 c 0,25,26
 176 1424 176 1424 392 1672 c 128,-1,27
 608 1920 608 1920 944 1920 c 2,28,-1
 1152 1920 l 2,29,30
 1440 1920 1440 1920 1648 1696 c 128,-1,31
 1856 1472 1856 1472 1872 1184 c 1,32,-1
 1568 1184 l 1,33,34
 1536 1392 1536 1392 1400 1520 c 128,-1,35
 1264 1648 1264 1648 1040 1648 c 0,36,37
 784 1648 784 1648 624 1472 c 128,-1,38
 464 1296 464 1296 464 992 c 0,39,40
 464 608 464 608 624 448 c 128,-1,41
 784 288 784 288 1040 288 c 0,42,43
 1280 288 1280 288 1408 400 c 128,-1,44
 1536 512 1536 512 1568 736 c 1,45,-1
 1872 736 l 1,46,47
 1840 400 1840 400 1672 216 c 128,-1,48
 1504 32 1504 32 1168 0 c 1,0,1
EndSplineSet
EndChar

